<?xml version="1.0" encoding="utf-8"?>
<!-- Generator: Adobe Illustrator 27.2.0, SVG Export Plug-In . SVG Version: 6.00 Build 0)  -->
<svg version="1.1" id="Layer_1" xmlns="http://www.w3.org/2000/svg" xmlns:xlink="http://www.w3.org/1999/xlink" x="0px" y="0px"
	 viewBox="0 0 742.4 158.4" style="enable-background:new 0 0 742.4 158.4;" xml:space="preserve">
<style type="text/css">
	.st0{fill:#89AC33;}
</style>
<g>
	<g>
		<g>
			<path class="st0" d="M202.4,27.8c2.7,0,5,0.3,6.9,0.9c1.9,0.6,3.5,1.5,4.8,2.6c1.3,1.1,2.2,2.5,2.8,4c0.6,1.6,0.9,3.3,0.9,5.1
				c0,1.9-0.3,3.7-1,5.3c-0.6,1.6-1.6,3-2.9,4.1c-1.3,1.2-2.9,2.1-4.8,2.7c-1.9,0.6-4.2,1-6.8,1h-5.5v14h-7.4V27.8H202.4z
				 M202.4,47.8c1.4,0,2.5-0.2,3.5-0.5c1-0.3,1.8-0.8,2.5-1.5c0.7-0.6,1.2-1.4,1.5-2.3s0.5-1.9,0.5-3c0-1.1-0.2-2-0.5-2.9
				c-0.3-0.9-0.8-1.6-1.5-2.2c-0.7-0.6-1.5-1.1-2.5-1.4c-1-0.3-2.2-0.5-3.6-0.5h-5.5v14.3H202.4z"/>
		</g>
		<g>
			<path class="st0" d="M234.2,38.9c2.1,0,4,0.3,5.7,1c1.7,0.7,3.2,1.6,4.4,2.9c1.2,1.2,2.2,2.8,2.8,4.6c0.7,1.8,1,3.8,1,6
				c0,2.2-0.3,4.3-1,6c-0.7,1.8-1.6,3.3-2.8,4.6c-1.2,1.3-2.7,2.2-4.4,2.9c-1.7,0.7-3.6,1-5.7,1c-2.1,0-4-0.3-5.7-1
				c-1.7-0.7-3.2-1.6-4.4-2.9c-1.2-1.3-2.2-2.8-2.8-4.6c-0.7-1.8-1-3.8-1-6c0-2.2,0.3-4.2,1-6c0.7-1.8,1.6-3.3,2.8-4.6
				c1.2-1.2,2.7-2.2,4.4-2.9C230.1,39.3,232,38.9,234.2,38.9z M234.2,62.8c2.3,0,4.1-0.8,5.2-2.4c1.1-1.6,1.7-3.9,1.7-6.9
				s-0.6-5.4-1.7-7c-1.1-1.6-2.9-2.4-5.2-2.4c-2.4,0-4.1,0.8-5.3,2.4c-1.1,1.6-1.7,3.9-1.7,6.9s0.6,5.3,1.7,6.9
				C230,62,231.8,62.8,234.2,62.8z"/>
		</g>
		<g>
			<path class="st0" d="M262.7,68c-2.5,0-4.3-0.7-5.7-2.1c-1.3-1.4-2-3.3-2-5.7V44.5h-2.9c-0.4,0-0.7-0.1-0.9-0.4
				c-0.3-0.2-0.4-0.6-0.4-1.1v-2.7l4.5-0.7l1.4-7.7c0.1-0.4,0.3-0.7,0.5-0.9c0.3-0.2,0.6-0.3,1-0.3h3.5v8.9h7.5v4.8h-7.5v15.3
				c0,0.9,0.2,1.6,0.6,2.1c0.4,0.5,1,0.7,1.8,0.7c0.4,0,0.8-0.1,1.1-0.2c0.3-0.1,0.5-0.2,0.7-0.3s0.4-0.2,0.6-0.3
				c0.2-0.1,0.3-0.2,0.5-0.2c0.2,0,0.4,0.1,0.5,0.2c0.1,0.1,0.3,0.3,0.4,0.5l2,3.3c-1,0.8-2.1,1.4-3.4,1.9S264,68,262.7,68z"/>
		</g>
		<g>
			<path class="st0" d="M279.3,54.3c0.1,1.4,0.4,2.7,0.8,3.8c0.4,1.1,0.9,1.9,1.6,2.6s1.4,1.2,2.4,1.5c0.9,0.3,1.9,0.5,3,0.5
				c1.1,0,2-0.1,2.8-0.4c0.8-0.3,1.5-0.5,2.1-0.9c0.6-0.3,1.1-0.6,1.6-0.9c0.4-0.3,0.9-0.4,1.3-0.4c0.6,0,1,0.2,1.3,0.6l2,2.5
				c-0.8,0.9-1.6,1.6-2.5,2.2c-0.9,0.6-1.9,1.1-2.9,1.4s-2.1,0.6-3.1,0.8s-2.1,0.2-3.1,0.2c-2,0-3.8-0.3-5.5-1
				c-1.7-0.7-3.2-1.6-4.4-2.9c-1.2-1.3-2.2-2.9-2.9-4.7c-0.7-1.9-1.1-4.1-1.1-6.5c0-1.9,0.3-3.7,0.9-5.4s1.5-3.2,2.7-4.4
				c1.2-1.3,2.6-2.2,4.3-3c1.7-0.7,3.6-1.1,5.7-1.1c1.8,0,3.4,0.3,4.9,0.9c1.5,0.6,2.8,1.4,3.9,2.5c1.1,1.1,1.9,2.4,2.5,4
				s0.9,3.4,0.9,5.4c0,1-0.1,1.7-0.3,2.1s-0.6,0.5-1.3,0.5H279.3z M292.2,50.2c0-0.9-0.1-1.7-0.4-2.5c-0.2-0.8-0.6-1.5-1.1-2
				s-1.1-1-1.9-1.4c-0.8-0.3-1.6-0.5-2.7-0.5c-2,0-3.5,0.6-4.6,1.7c-1.1,1.1-1.8,2.7-2.2,4.8H292.2z"/>
		</g>
		<g>
			<path class="st0" d="M310.3,42.8c0.6-0.6,1.2-1.1,1.8-1.6s1.3-0.9,2-1.2c0.7-0.3,1.5-0.6,2.3-0.8s1.7-0.3,2.6-0.3
				c1.5,0,2.9,0.3,4.1,0.8c1.2,0.5,2.2,1.3,3,2.2c0.8,0.9,1.4,2.1,1.8,3.4c0.4,1.3,0.6,2.8,0.6,4.3v18h-6.8v-18c0-1.7-0.4-3.1-1.2-4
				c-0.8-0.9-2-1.4-3.6-1.4c-1.2,0-2.3,0.3-3.3,0.8c-1,0.5-2,1.3-2.9,2.2v20.4H304V39.4h4.2c0.9,0,1.5,0.4,1.7,1.2L310.3,42.8z"/>
		</g>
		<g>
			<path class="st0" d="M344.6,68c-2.5,0-4.3-0.7-5.7-2.1c-1.3-1.4-2-3.3-2-5.7V44.5h-2.9c-0.4,0-0.7-0.1-0.9-0.4
				c-0.3-0.2-0.4-0.6-0.4-1.1v-2.7l4.5-0.7l1.4-7.7c0.1-0.4,0.3-0.7,0.5-0.9c0.3-0.2,0.6-0.3,1-0.3h3.5v8.9h7.5v4.8h-7.5v15.3
				c0,0.9,0.2,1.6,0.6,2.1c0.4,0.5,1,0.7,1.8,0.7c0.4,0,0.8-0.1,1.1-0.2c0.3-0.1,0.5-0.2,0.7-0.3s0.4-0.2,0.6-0.3
				c0.2-0.1,0.3-0.2,0.5-0.2c0.2,0,0.4,0.1,0.5,0.2c0.1,0.1,0.3,0.3,0.4,0.5l2,3.3c-1,0.8-2.1,1.4-3.4,1.9S345.9,68,344.6,68z"/>
		</g>
		<g>
			<path class="st0" d="M364.1,31.2c0,0.6-0.1,1.1-0.4,1.7c-0.2,0.5-0.6,1-0.9,1.3c-0.4,0.4-0.9,0.7-1.4,0.9
				c-0.5,0.2-1.1,0.3-1.7,0.3c-0.6,0-1.1-0.1-1.7-0.3s-1-0.5-1.4-0.9c-0.4-0.4-0.7-0.8-0.9-1.3c-0.2-0.5-0.3-1.1-0.3-1.7
				c0-0.6,0.1-1.2,0.3-1.7c0.2-0.5,0.5-1,0.9-1.4c0.4-0.4,0.8-0.7,1.4-0.9s1.1-0.3,1.7-0.3c0.6,0,1.2,0.1,1.7,0.3
				c0.5,0.2,1,0.5,1.4,0.9s0.7,0.8,0.9,1.4C364,30,364.1,30.5,364.1,31.2z M363.2,39.4v28.2h-6.8V39.4H363.2z"/>
		</g>
		<g>
			<path class="st0" d="M370,43.3c3.2-3,7.1-4.5,11.7-4.5c1.6,0,3.1,0.3,4.4,0.8c1.3,0.5,2.4,1.3,3.3,2.3c0.9,1,1.6,2.1,2,3.5
				c0.5,1.3,0.7,2.8,0.7,4.4v17.8h-3.1c-0.6,0-1.1-0.1-1.5-0.3s-0.6-0.6-0.8-1.2l-0.6-2c-0.7,0.6-1.4,1.2-2.1,1.7
				c-0.7,0.5-1.4,0.9-2.1,1.2s-1.5,0.6-2.4,0.8c-0.8,0.2-1.8,0.3-2.8,0.3c-1.2,0-2.3-0.2-3.3-0.5c-1-0.3-1.9-0.8-2.6-1.4
				c-0.7-0.6-1.3-1.4-1.7-2.4c-0.4-1-0.6-2.1-0.6-3.3c0-0.7,0.1-1.4,0.4-2.1s0.6-1.4,1.2-2c0.5-0.6,1.2-1.2,2.1-1.8
				c0.9-0.6,1.9-1.1,3.2-1.5s2.7-0.8,4.4-1c1.7-0.3,3.6-0.4,5.7-0.5v-1.7c0-1.9-0.4-3.3-1.2-4.2s-2-1.4-3.5-1.4
				c-1.1,0-2,0.1-2.7,0.4c-0.7,0.3-1.4,0.5-1.9,0.9c-0.5,0.3-1,0.6-1.5,0.9c-0.4,0.3-0.9,0.4-1.5,0.4c-0.5,0-0.9-0.1-1.2-0.4
				c-0.3-0.2-0.6-0.5-0.8-0.9L370,43.3z M385.6,55.5c-2,0.1-3.6,0.3-5,0.5c-1.3,0.2-2.4,0.6-3.2,0.9c-0.8,0.4-1.4,0.8-1.7,1.3
				c-0.3,0.5-0.5,1.1-0.5,1.7c0,1.2,0.4,2,1.1,2.6c0.7,0.5,1.6,0.8,2.8,0.8c1.4,0,2.6-0.3,3.6-0.8c1-0.5,2-1.3,3-2.3V55.5z"/>
		</g>
		<g>
			<path class="st0" d="M406,26.7v40.9h-6.8V26.7H406z"/>
		</g>
		<g>
			<path class="st0" d="M429.3,67.6V44.5l-2.4-0.4c-0.5-0.1-1-0.3-1.3-0.6c-0.3-0.3-0.5-0.6-0.5-1.1v-2.8h4.2v-2.1
				c0-1.6,0.2-3.1,0.7-4.3s1.2-2.4,2.1-3.3c0.9-0.9,2-1.6,3.3-2.1c1.3-0.5,2.8-0.7,4.4-0.7c1.3,0,2.5,0.2,3.6,0.5l-0.1,3.4
				c0,0.3-0.1,0.5-0.2,0.6c-0.1,0.2-0.3,0.3-0.5,0.4c-0.2,0.1-0.5,0.1-0.7,0.2c-0.3,0-0.6,0-0.9,0c-0.8,0-1.5,0.1-2.2,0.3
				c-0.6,0.2-1.2,0.5-1.6,0.9c-0.4,0.4-0.8,1-1,1.7c-0.2,0.7-0.3,1.6-0.3,2.6v1.9h7.3v4.8h-7.1v23.1H429.3z"/>
		</g>
		<g>
			<path class="st0" d="M459.3,38.9c2.1,0,4,0.3,5.7,1c1.7,0.7,3.2,1.6,4.4,2.9c1.2,1.2,2.2,2.8,2.8,4.6c0.7,1.8,1,3.8,1,6
				c0,2.2-0.3,4.3-1,6c-0.7,1.8-1.6,3.3-2.8,4.6c-1.2,1.3-2.7,2.2-4.4,2.9c-1.7,0.7-3.6,1-5.7,1c-2.1,0-4-0.3-5.7-1
				c-1.7-0.7-3.2-1.6-4.4-2.9c-1.2-1.3-2.2-2.8-2.8-4.6c-0.7-1.8-1-3.8-1-6c0-2.2,0.3-4.2,1-6c0.7-1.8,1.6-3.3,2.8-4.6
				c1.2-1.2,2.7-2.2,4.4-2.9C455.3,39.3,457.2,38.9,459.3,38.9z M459.3,62.8c2.3,0,4.1-0.8,5.2-2.4c1.1-1.6,1.7-3.9,1.7-6.9
				s-0.6-5.4-1.7-7c-1.1-1.6-2.9-2.4-5.2-2.4c-2.4,0-4.1,0.8-5.3,2.4c-1.1,1.6-1.7,3.9-1.7,6.9s0.6,5.3,1.7,6.9
				C455.1,62,456.9,62.8,459.3,62.8z"/>
		</g>
		<g>
			<path class="st0" d="M485.4,44.3c0.9-1.7,1.9-3,3.1-4c1.2-1,2.6-1.4,4.3-1.4c1.3,0,2.3,0.3,3.1,0.9l-0.4,5.1
				c-0.1,0.3-0.2,0.6-0.4,0.7c-0.2,0.1-0.4,0.2-0.7,0.2c-0.3,0-0.7,0-1.2-0.1s-1.1-0.1-1.6-0.1c-0.8,0-1.4,0.1-2,0.3
				s-1.1,0.5-1.6,0.9c-0.5,0.4-0.9,0.9-1.2,1.5c-0.4,0.6-0.7,1.3-1,2v17.4H479V39.4h4c0.7,0,1.2,0.1,1.5,0.4
				c0.3,0.2,0.5,0.7,0.5,1.3L485.4,44.3z"/>
		</g>
		<g>
			<path class="st0" d="M557,27.8v39.8h-6.5V41.9c0-1,0.1-2.1,0.2-3.3l-12,22.6c-0.6,1.1-1.4,1.6-2.6,1.6h-1c-1.2,0-2-0.5-2.6-1.6
				l-12.2-22.7c0.1,0.6,0.1,1.2,0.1,1.8c0,0.6,0.1,1.1,0.1,1.6v25.7h-6.5V27.8h5.6c0.3,0,0.6,0,0.9,0s0.5,0.1,0.6,0.1
				s0.4,0.2,0.5,0.4c0.2,0.2,0.3,0.4,0.5,0.7l11.9,22.1c0.3,0.6,0.6,1.2,0.9,1.8s0.5,1.3,0.8,1.9c0.3-0.7,0.5-1.3,0.8-2
				c0.3-0.6,0.6-1.2,0.9-1.8l11.7-22c0.1-0.3,0.3-0.5,0.5-0.7s0.3-0.3,0.5-0.4c0.2-0.1,0.4-0.1,0.6-0.1s0.5,0,0.9,0H557z"/>
		</g>
		<g>
			<path class="st0" d="M572.9,31.2c0,0.6-0.1,1.1-0.4,1.7c-0.2,0.5-0.6,1-0.9,1.3c-0.4,0.4-0.9,0.7-1.4,0.9
				c-0.5,0.2-1.1,0.3-1.7,0.3c-0.6,0-1.1-0.1-1.7-0.3s-1-0.5-1.4-0.9c-0.4-0.4-0.7-0.8-0.9-1.3c-0.2-0.5-0.3-1.1-0.3-1.7
				c0-0.6,0.1-1.2,0.3-1.7c0.2-0.5,0.5-1,0.9-1.4c0.4-0.4,0.8-0.7,1.4-0.9s1.1-0.3,1.7-0.3c0.6,0,1.2,0.1,1.7,0.3
				c0.5,0.2,1,0.5,1.4,0.9s0.7,0.8,0.9,1.4C572.8,30,572.9,30.5,572.9,31.2z M572,39.4v28.2h-6.8V39.4H572z"/>
		</g>
		<g>
			<path class="st0" d="M604.6,67.6h-6.5c-0.5,0-0.9-0.1-1.2-0.4s-0.6-0.5-0.8-0.9l-6-9.8c-0.1,0.3-0.2,0.6-0.3,0.9
				c-0.1,0.3-0.3,0.5-0.4,0.8l-5.3,8.2c-0.2,0.3-0.4,0.6-0.7,0.9c-0.3,0.3-0.7,0.4-1.1,0.4h-6.1l9.7-14.5l-9.3-13.7h6.5
				c0.5,0,0.9,0.1,1.1,0.2c0.2,0.1,0.4,0.4,0.6,0.7l5.9,9.4c0.2-0.6,0.5-1.2,0.9-1.8l4.8-7.4c0.4-0.7,0.9-1,1.6-1h6.2L595,52.7
				L604.6,67.6z"/>
		</g>
		<g>
			<path class="st0" d="M612.7,54.3c0.1,1.4,0.4,2.7,0.8,3.8c0.4,1.1,0.9,1.9,1.6,2.6s1.4,1.2,2.4,1.5c0.9,0.3,1.9,0.5,3,0.5
				c1.1,0,2-0.1,2.8-0.4c0.8-0.3,1.5-0.5,2.1-0.9c0.6-0.3,1.1-0.6,1.6-0.9c0.4-0.3,0.9-0.4,1.3-0.4c0.6,0,1,0.2,1.3,0.6l2,2.5
				c-0.8,0.9-1.6,1.6-2.5,2.2c-0.9,0.6-1.9,1.1-2.9,1.4s-2.1,0.6-3.1,0.8s-2.1,0.2-3.1,0.2c-2,0-3.8-0.3-5.5-1
				c-1.7-0.7-3.2-1.6-4.4-2.9c-1.2-1.3-2.2-2.9-2.9-4.7c-0.7-1.9-1.1-4.1-1.1-6.5c0-1.9,0.3-3.7,0.9-5.4s1.5-3.2,2.7-4.4
				c1.2-1.3,2.6-2.2,4.3-3c1.7-0.7,3.6-1.1,5.7-1.1c1.8,0,3.4,0.3,4.9,0.9c1.5,0.6,2.8,1.4,3.9,2.5c1.1,1.1,1.9,2.4,2.5,4
				s0.9,3.4,0.9,5.4c0,1-0.1,1.7-0.3,2.1s-0.6,0.5-1.3,0.5H612.7z M625.6,50.2c0-0.9-0.1-1.7-0.4-2.5c-0.2-0.8-0.6-1.5-1.1-2
				s-1.1-1-1.9-1.4c-0.8-0.3-1.6-0.5-2.7-0.5c-2,0-3.5,0.6-4.6,1.7c-1.1,1.1-1.8,2.7-2.2,4.8H625.6z"/>
		</g>
		<g>
			<path class="st0" d="M661.9,26.7v40.9h-4.2c-0.9,0-1.5-0.4-1.7-1.2l-0.6-2.7c-1.1,1.3-2.4,2.4-3.9,3.2c-1.5,0.8-3.2,1.2-5.2,1.2
				c-1.5,0-3-0.3-4.2-1s-2.4-1.6-3.3-2.8c-0.9-1.2-1.6-2.7-2.1-4.5c-0.5-1.8-0.8-3.8-0.8-6.2c0-2.1,0.3-4,0.9-5.8
				c0.6-1.8,1.4-3.4,2.4-4.7c1.1-1.3,2.3-2.4,3.8-3.1c1.5-0.7,3.2-1.1,5-1.1c1.6,0,2.9,0.2,4,0.7s2.1,1.2,3,2V26.7H661.9z
				 M655.1,46.6c-0.8-0.9-1.6-1.6-2.5-2s-1.9-0.6-2.9-0.6c-1,0-2,0.2-2.8,0.6s-1.5,1-2.1,1.7c-0.6,0.8-1,1.8-1.3,3
				c-0.3,1.2-0.5,2.6-0.5,4.2c0,1.7,0.1,3,0.4,4.2s0.6,2.1,1.1,2.8c0.5,0.7,1.1,1.2,1.8,1.6c0.7,0.3,1.5,0.5,2.4,0.5
				c1.4,0,2.6-0.3,3.6-0.9s1.9-1.4,2.8-2.5V46.6z"/>
		</g>
		<g>
			<path class="st0" d="M196.9,122.6h-7.4V82.8h7.4V122.6z"/>
		</g>
		<g>
			<path class="st0" d="M204.8,122.6V94.4h4.2c0.9,0,1.5,0.4,1.7,1.2l0.4,2.1c0.5-0.5,1-1.1,1.6-1.5c0.5-0.5,1.1-0.9,1.7-1.2
				c0.6-0.3,1.3-0.6,2-0.8c0.7-0.2,1.5-0.3,2.3-0.3c1.8,0,3.2,0.5,4.4,1.4c1.1,1,2,2.2,2.6,3.8c0.4-0.9,1-1.7,1.7-2.4
				c0.7-0.7,1.4-1.2,2.2-1.6c0.8-0.4,1.6-0.7,2.5-0.9c0.9-0.2,1.8-0.3,2.7-0.3c1.6,0,2.9,0.2,4.2,0.7c1.2,0.5,2.2,1.2,3.1,2.1
				c0.8,0.9,1.5,2,1.9,3.4s0.6,2.8,0.6,4.5v18h-6.8v-18c0-1.8-0.4-3.1-1.2-4.1c-0.8-0.9-1.9-1.4-3.5-1.4c-0.7,0-1.3,0.1-1.9,0.4
				s-1.1,0.6-1.6,1s-0.8,1-1.1,1.7c-0.3,0.7-0.4,1.5-0.4,2.3v18h-6.8v-18c0-1.9-0.4-3.3-1.1-4.1c-0.8-0.9-1.9-1.3-3.3-1.3
				c-1,0-1.9,0.2-2.8,0.7c-0.9,0.5-1.6,1.2-2.4,2v20.7H204.8z"/>
		</g>
		<g>
			<path class="st0" d="M257.9,98.2c1.2-1.3,2.5-2.4,3.9-3.2s3.2-1.2,5.2-1.2c1.5,0,2.9,0.3,4.2,1c1.3,0.6,2.4,1.6,3.3,2.8
				c0.9,1.2,1.6,2.7,2.1,4.5c0.5,1.8,0.8,3.8,0.8,6.1c0,2.1-0.3,4.1-0.9,5.9c-0.6,1.8-1.4,3.4-2.4,4.7c-1.1,1.3-2.3,2.4-3.8,3.1
				s-3.2,1.1-5,1.1c-1.6,0-2.9-0.2-4-0.7s-2.1-1.2-3-2v11.6h-6.8V94.4h4.2c0.9,0,1.5,0.4,1.7,1.2L257.9,98.2z M258.2,115.3
				c0.8,0.9,1.6,1.6,2.5,2c0.9,0.4,1.9,0.6,3,0.6c1,0,2-0.2,2.8-0.6s1.5-1,2.1-1.8c0.6-0.8,1-1.8,1.3-3c0.3-1.2,0.5-2.6,0.5-4.2
				c0-1.7-0.1-3-0.4-4.2c-0.3-1.1-0.6-2.1-1.1-2.8s-1.1-1.2-1.8-1.6s-1.5-0.5-2.4-0.5c-1.4,0-2.6,0.3-3.6,0.9
				c-1,0.6-1.9,1.4-2.8,2.5V115.3z"/>
		</g>
		<g>
			<path class="st0" d="M282.6,98.3c3.2-3,7.1-4.5,11.7-4.5c1.6,0,3.1,0.3,4.4,0.8c1.3,0.5,2.4,1.3,3.3,2.3c0.9,1,1.6,2.1,2,3.5
				c0.5,1.3,0.7,2.8,0.7,4.4v17.8h-3.1c-0.6,0-1.1-0.1-1.5-0.3s-0.6-0.6-0.8-1.2l-0.6-2c-0.7,0.6-1.4,1.2-2.1,1.7
				c-0.7,0.5-1.4,0.9-2.1,1.2s-1.5,0.6-2.4,0.8c-0.8,0.2-1.8,0.3-2.8,0.3c-1.2,0-2.3-0.2-3.3-0.5c-1-0.3-1.9-0.8-2.6-1.4
				c-0.7-0.6-1.3-1.4-1.7-2.4c-0.4-1-0.6-2.1-0.6-3.3c0-0.7,0.1-1.4,0.4-2.1s0.6-1.4,1.2-2c0.5-0.6,1.2-1.2,2.1-1.8
				c0.9-0.6,1.9-1.1,3.2-1.5s2.7-0.8,4.4-1c1.7-0.3,3.6-0.4,5.7-0.5v-1.7c0-1.9-0.4-3.3-1.2-4.2s-2-1.4-3.5-1.4
				c-1.1,0-2,0.1-2.7,0.4c-0.7,0.3-1.4,0.5-1.9,0.9c-0.5,0.3-1,0.6-1.5,0.9c-0.4,0.3-0.9,0.4-1.5,0.4c-0.5,0-0.9-0.1-1.2-0.4
				c-0.3-0.2-0.6-0.5-0.8-0.9L282.6,98.3z M298.1,110.5c-2,0.1-3.6,0.3-5,0.5c-1.3,0.2-2.4,0.6-3.2,0.9c-0.8,0.4-1.4,0.8-1.7,1.3
				c-0.3,0.5-0.5,1.1-0.5,1.7c0,1.2,0.4,2,1.1,2.6c0.7,0.5,1.6,0.8,2.8,0.8c1.4,0,2.6-0.3,3.6-0.8c1-0.5,2-1.3,3-2.3V110.5z"/>
		</g>
		<g>
			<path class="st0" d="M331.9,100.3c-0.2,0.3-0.4,0.5-0.6,0.6c-0.2,0.1-0.5,0.2-0.8,0.2c-0.3,0-0.7-0.1-1-0.3s-0.7-0.4-1.2-0.7
				c-0.5-0.3-1-0.5-1.6-0.7c-0.6-0.2-1.4-0.3-2.4-0.3c-1.2,0-2.2,0.2-3.1,0.6c-0.9,0.4-1.6,1-2.2,1.9c-0.6,0.8-1,1.8-1.3,2.9
				c-0.3,1.1-0.4,2.4-0.4,3.9c0,1.5,0.2,2.8,0.5,4c0.3,1.2,0.8,2.2,1.4,3c0.6,0.8,1.3,1.4,2.2,1.8c0.9,0.4,1.8,0.6,2.9,0.6
				c1.1,0,2-0.1,2.6-0.4s1.2-0.6,1.7-0.9c0.5-0.3,0.9-0.6,1.2-0.9c0.3-0.3,0.7-0.4,1.1-0.4c0.5,0,1,0.2,1.2,0.6l2,2.5
				c-0.8,0.9-1.6,1.6-2.4,2.2c-0.9,0.6-1.8,1.1-2.7,1.4s-1.9,0.6-2.9,0.8s-2,0.2-3,0.2c-1.7,0-3.4-0.3-4.9-1s-2.9-1.6-4-2.8
				c-1.2-1.2-2.1-2.8-2.7-4.6c-0.7-1.8-1-3.9-1-6.2c0-2.1,0.3-4,0.9-5.8c0.6-1.8,1.5-3.3,2.6-4.6c1.2-1.3,2.6-2.3,4.3-3
				s3.7-1.1,5.9-1.1c2.1,0,4,0.3,5.5,1c1.6,0.7,3,1.7,4.3,2.9L331.9,100.3z"/>
		</g>
		<g>
			<path class="st0" d="M348.1,123c-2.5,0-4.3-0.7-5.7-2.1c-1.3-1.4-2-3.3-2-5.7V99.5h-2.9c-0.4,0-0.7-0.1-0.9-0.4
				c-0.3-0.2-0.4-0.6-0.4-1.1v-2.7l4.5-0.7l1.4-7.7c0.1-0.4,0.3-0.7,0.5-0.9c0.3-0.2,0.6-0.3,1-0.3h3.5v8.9h7.5v4.8h-7.5v15.3
				c0,0.9,0.2,1.6,0.6,2.1c0.4,0.5,1,0.7,1.8,0.7c0.4,0,0.8-0.1,1.1-0.2c0.3-0.1,0.5-0.2,0.7-0.3s0.4-0.2,0.6-0.3
				c0.2-0.1,0.3-0.2,0.5-0.2c0.2,0,0.4,0.1,0.5,0.2c0.1,0.1,0.3,0.3,0.4,0.5l2,3.3c-1,0.8-2.1,1.4-3.4,1.9S349.5,123,348.1,123z"/>
		</g>
		<g>
			<path class="st0" d="M386.1,93.9c2.1,0,4,0.3,5.7,1c1.7,0.7,3.2,1.6,4.4,2.9c1.2,1.2,2.2,2.8,2.8,4.6c0.7,1.8,1,3.8,1,6
				c0,2.2-0.3,4.3-1,6c-0.7,1.8-1.6,3.3-2.8,4.6c-1.2,1.3-2.7,2.2-4.4,2.9c-1.7,0.7-3.6,1-5.7,1c-2.1,0-4-0.3-5.7-1
				c-1.7-0.7-3.2-1.6-4.4-2.9c-1.2-1.3-2.2-2.8-2.8-4.6c-0.7-1.8-1-3.8-1-6c0-2.2,0.3-4.2,1-6c0.7-1.8,1.6-3.3,2.8-4.6
				c1.2-1.2,2.7-2.2,4.4-2.9C382.1,94.3,384,93.9,386.1,93.9z M386.1,117.8c2.3,0,4.1-0.8,5.2-2.4c1.1-1.6,1.7-3.9,1.7-6.9
				s-0.6-5.4-1.7-7c-1.1-1.6-2.9-2.4-5.2-2.4c-2.4,0-4.1,0.8-5.3,2.4c-1.1,1.6-1.7,3.9-1.7,6.9s0.6,5.3,1.7,6.9
				C382,117,383.8,117.8,386.1,117.8z"/>
		</g>
		<g>
			<path class="st0" d="M412.2,97.8c0.6-0.6,1.2-1.1,1.8-1.6s1.3-0.9,2-1.2c0.7-0.3,1.5-0.6,2.3-0.8s1.7-0.3,2.6-0.3
				c1.5,0,2.9,0.3,4.1,0.8c1.2,0.5,2.2,1.3,3,2.2c0.8,0.9,1.4,2.1,1.8,3.4c0.4,1.3,0.6,2.8,0.6,4.3v18h-6.8v-18c0-1.7-0.4-3.1-1.2-4
				c-0.8-0.9-2-1.4-3.6-1.4c-1.2,0-2.3,0.3-3.3,0.8c-1,0.5-2,1.3-2.9,2.2v20.4h-6.8V94.4h4.2c0.9,0,1.5,0.4,1.7,1.2L412.2,97.8z"/>
		</g>
		<g>
			<path class="st0" d="M487.7,102.7c0,2.9-0.5,5.6-1.5,8c-1,2.4-2.3,4.5-4.1,6.3c-1.8,1.8-3.9,3.1-6.4,4.1s-5.2,1.5-8.2,1.5h-15.2
				V82.8h15.2c3,0,5.8,0.5,8.2,1.5c2.5,1,4.6,2.3,6.4,4.1s3.1,3.8,4.1,6.3C487.2,97.1,487.7,99.8,487.7,102.7z M480.1,102.7
				c0-2.2-0.3-4.1-0.9-5.9s-1.4-3.2-2.5-4.4c-1.1-1.2-2.4-2.1-4-2.8c-1.5-0.6-3.3-1-5.2-1h-7.7v28h7.7c1.9,0,3.7-0.3,5.2-1
				c1.5-0.6,2.9-1.6,4-2.8c1.1-1.2,1.9-2.7,2.5-4.4C479.8,106.8,480.1,104.9,480.1,102.7z"/>
		</g>
		<g>
			<path class="st0" d="M501.2,86.2c0,0.6-0.1,1.1-0.4,1.7c-0.2,0.5-0.6,1-0.9,1.3c-0.4,0.4-0.9,0.7-1.4,0.9
				c-0.5,0.2-1.1,0.3-1.7,0.3c-0.6,0-1.1-0.1-1.7-0.3s-1-0.5-1.4-0.9c-0.4-0.4-0.7-0.8-0.9-1.3c-0.2-0.5-0.3-1.1-0.3-1.7
				c0-0.6,0.1-1.2,0.3-1.7c0.2-0.5,0.5-1,0.9-1.4c0.4-0.4,0.8-0.7,1.4-0.9s1.1-0.3,1.7-0.3c0.6,0,1.2,0.1,1.7,0.3
				c0.5,0.2,1,0.5,1.4,0.9s0.7,0.8,0.9,1.4C501.1,85,501.2,85.5,501.2,86.2z M500.2,94.4v28.2h-6.8V94.4H500.2z"/>
		</g>
		<g>
			<path class="st0" d="M524.9,99.9c-0.2,0.3-0.4,0.5-0.6,0.6c-0.2,0.1-0.5,0.2-0.8,0.2c-0.3,0-0.7-0.1-1.1-0.3
				c-0.4-0.2-0.8-0.4-1.3-0.6c-0.5-0.2-1.1-0.4-1.7-0.6c-0.6-0.2-1.4-0.3-2.2-0.3c-1.3,0-2.4,0.3-3.1,0.9s-1.1,1.3-1.1,2.2
				c0,0.6,0.2,1.1,0.6,1.5c0.4,0.4,0.9,0.8,1.6,1.1c0.7,0.3,1.4,0.6,2.2,0.8c0.8,0.2,1.7,0.5,2.5,0.8s1.7,0.6,2.5,1s1.6,0.9,2.2,1.4
				c0.7,0.6,1.2,1.3,1.6,2.1c0.4,0.8,0.6,1.8,0.6,2.9c0,1.4-0.2,2.6-0.7,3.8s-1.2,2.1-2.2,3c-1,0.8-2.1,1.5-3.5,2
				c-1.4,0.5-3,0.7-4.9,0.7c-1,0-1.9-0.1-2.8-0.3c-0.9-0.2-1.8-0.4-2.7-0.7s-1.6-0.7-2.4-1.1c-0.7-0.4-1.4-0.9-1.9-1.4l1.6-2.6
				c0.2-0.3,0.4-0.5,0.7-0.7c0.3-0.2,0.6-0.2,1-0.2s0.8,0.1,1.2,0.4s0.8,0.5,1.3,0.8c0.5,0.3,1.1,0.5,1.7,0.8
				c0.7,0.2,1.5,0.4,2.5,0.4c0.8,0,1.5-0.1,2.1-0.3c0.6-0.2,1.1-0.4,1.4-0.8s0.7-0.7,0.8-1.1c0.2-0.4,0.3-0.8,0.3-1.3
				c0-0.7-0.2-1.2-0.6-1.6c-0.4-0.4-0.9-0.8-1.6-1.1c-0.7-0.3-1.4-0.6-2.2-0.8c-0.8-0.2-1.7-0.5-2.6-0.8c-0.9-0.3-1.7-0.6-2.6-1
				s-1.6-0.9-2.2-1.5c-0.7-0.6-1.2-1.3-1.6-2.2s-0.6-1.9-0.6-3.2c0-1.2,0.2-2.3,0.7-3.3c0.5-1,1.1-2,2-2.7c0.9-0.8,2-1.4,3.3-1.9
				c1.3-0.5,2.9-0.7,4.6-0.7c1.9,0,3.7,0.3,5.3,1c1.6,0.6,2.9,1.5,4,2.5L524.9,99.9z"/>
		</g>
		<g>
			<path class="st0" d="M538.9,98.2c1.2-1.3,2.5-2.4,3.9-3.2s3.2-1.2,5.2-1.2c1.5,0,2.9,0.3,4.2,1c1.3,0.6,2.4,1.6,3.3,2.8
				c0.9,1.2,1.6,2.7,2.1,4.5c0.5,1.8,0.8,3.8,0.8,6.1c0,2.1-0.3,4.1-0.9,5.9c-0.6,1.8-1.4,3.4-2.4,4.7c-1.1,1.3-2.3,2.4-3.8,3.1
				s-3.2,1.1-5,1.1c-1.6,0-2.9-0.2-4-0.7s-2.1-1.2-3-2v11.6h-6.8V94.4h4.2c0.9,0,1.5,0.4,1.7,1.2L538.9,98.2z M539.2,115.3
				c0.8,0.9,1.6,1.6,2.5,2c0.9,0.4,1.9,0.6,3,0.6c1,0,2-0.2,2.8-0.6s1.5-1,2.1-1.8c0.6-0.8,1-1.8,1.3-3c0.3-1.2,0.5-2.6,0.5-4.2
				c0-1.7-0.1-3-0.4-4.2c-0.3-1.1-0.6-2.1-1.1-2.8s-1.1-1.2-1.8-1.6s-1.5-0.5-2.4-0.5c-1.4,0-2.6,0.3-3.6,0.9
				c-1,0.6-1.9,1.4-2.8,2.5V115.3z"/>
		</g>
		<g>
			<path class="st0" d="M563.6,98.3c3.2-3,7.1-4.5,11.7-4.5c1.6,0,3.1,0.3,4.4,0.8c1.3,0.5,2.4,1.3,3.3,2.3c0.9,1,1.6,2.1,2,3.5
				c0.5,1.3,0.7,2.8,0.7,4.4v17.8h-3.1c-0.6,0-1.1-0.1-1.5-0.3s-0.6-0.6-0.8-1.2l-0.6-2c-0.7,0.6-1.4,1.2-2.1,1.7
				c-0.7,0.5-1.4,0.9-2.1,1.2s-1.5,0.6-2.4,0.8c-0.8,0.2-1.8,0.3-2.8,0.3c-1.2,0-2.3-0.2-3.3-0.5c-1-0.3-1.9-0.8-2.6-1.4
				c-0.7-0.6-1.3-1.4-1.7-2.4c-0.4-1-0.6-2.1-0.6-3.3c0-0.7,0.1-1.4,0.4-2.1s0.6-1.4,1.2-2c0.5-0.6,1.2-1.2,2.1-1.8
				c0.9-0.6,1.9-1.1,3.2-1.5s2.7-0.8,4.4-1c1.7-0.3,3.6-0.4,5.7-0.5v-1.7c0-1.9-0.4-3.3-1.2-4.2s-2-1.4-3.5-1.4
				c-1.1,0-2,0.1-2.7,0.4c-0.7,0.3-1.4,0.5-1.9,0.9c-0.5,0.3-1,0.6-1.5,0.9c-0.4,0.3-0.9,0.4-1.5,0.4c-0.5,0-0.9-0.1-1.2-0.4
				c-0.3-0.2-0.6-0.5-0.8-0.9L563.6,98.3z M579.1,110.5c-2,0.1-3.6,0.3-5,0.5c-1.3,0.2-2.4,0.6-3.2,0.9c-0.8,0.4-1.4,0.8-1.7,1.3
				c-0.3,0.5-0.5,1.1-0.5,1.7c0,1.2,0.4,2,1.1,2.6c0.7,0.5,1.6,0.8,2.8,0.8c1.4,0,2.6-0.3,3.6-0.8c1-0.5,2-1.3,3-2.3V110.5z"/>
		</g>
		<g>
			<path class="st0" d="M599.1,99.3c0.9-1.7,1.9-3,3.1-4c1.2-1,2.6-1.4,4.3-1.4c1.3,0,2.3,0.3,3.1,0.9l-0.4,5.1
				c-0.1,0.3-0.2,0.6-0.4,0.7c-0.2,0.1-0.4,0.2-0.7,0.2c-0.3,0-0.7,0-1.2-0.1s-1.1-0.1-1.6-0.1c-0.8,0-1.4,0.1-2,0.3
				s-1.1,0.5-1.6,0.9c-0.5,0.4-0.9,0.9-1.2,1.5c-0.4,0.6-0.7,1.3-1,2v17.4h-6.8V94.4h4c0.7,0,1.2,0.1,1.5,0.4
				c0.3,0.2,0.5,0.7,0.5,1.3L599.1,99.3z"/>
		</g>
		<g>
			<path class="st0" d="M621.7,86.2c0,0.6-0.1,1.1-0.4,1.7c-0.2,0.5-0.6,1-0.9,1.3c-0.4,0.4-0.9,0.7-1.4,0.9
				c-0.5,0.2-1.1,0.3-1.7,0.3c-0.6,0-1.1-0.1-1.7-0.3s-1-0.5-1.4-0.9c-0.4-0.4-0.7-0.8-0.9-1.3c-0.2-0.5-0.3-1.1-0.3-1.7
				c0-0.6,0.1-1.2,0.3-1.7c0.2-0.5,0.5-1,0.9-1.4c0.4-0.4,0.8-0.7,1.4-0.9s1.1-0.3,1.7-0.3c0.6,0,1.2,0.1,1.7,0.3
				c0.5,0.2,1,0.5,1.4,0.9s0.7,0.8,0.9,1.4C621.6,85,621.7,85.5,621.7,86.2z M620.8,94.4v28.2H614V94.4H620.8z"/>
		</g>
		<g>
			<path class="st0" d="M656.7,122.6h-6.8V99.5h-13.1v15.3c0,0.9,0.2,1.6,0.6,2.1c0.4,0.5,1,0.7,1.8,0.7c0.4,0,0.8-0.1,1.1-0.2
				c0.3-0.1,0.5-0.2,0.7-0.3s0.4-0.2,0.6-0.3c0.2-0.1,0.3-0.2,0.5-0.2c0.2,0,0.4,0.1,0.5,0.2c0.1,0.1,0.3,0.3,0.4,0.5l2,3.3
				c-1,0.8-2.1,1.4-3.4,1.9s-2.6,0.6-4,0.6c-2.5,0-4.3-0.7-5.7-2.1c-1.3-1.4-2-3.3-2-5.7V99.5h-2.9c-0.4,0-0.7-0.1-0.9-0.4
				c-0.3-0.2-0.4-0.6-0.4-1.1v-2.7l4.5-0.8l1.4-7.7c0.1-0.4,0.3-0.7,0.5-0.9c0.3-0.2,0.6-0.3,1-0.3h3.5v8.9h19.9V122.6z M657.9,86
				c0,0.6-0.1,1.1-0.4,1.7s-0.6,1-0.9,1.4s-0.9,0.7-1.4,0.9c-0.5,0.2-1.1,0.3-1.7,0.3c-0.6,0-1.1-0.1-1.6-0.3
				c-0.5-0.2-1-0.5-1.3-0.9s-0.7-0.8-0.9-1.4s-0.3-1.1-0.3-1.7c0-0.6,0.1-1.2,0.3-1.7c0.2-0.5,0.5-1,0.9-1.4
				c0.4-0.4,0.8-0.7,1.3-0.9c0.5-0.2,1.1-0.3,1.6-0.3c0.6,0,1.2,0.1,1.7,0.3c0.5,0.2,1,0.5,1.4,0.9c0.4,0.4,0.7,0.9,0.9,1.4
				C657.8,84.9,657.9,85.4,657.9,86z"/>
		</g>
		<g>
			<path class="st0" d="M669.4,109.3c0.1,1.4,0.4,2.7,0.8,3.8c0.4,1.1,0.9,1.9,1.6,2.6s1.4,1.2,2.4,1.5c0.9,0.3,1.9,0.5,3,0.5
				c1.1,0,2-0.1,2.8-0.4c0.8-0.3,1.5-0.5,2.1-0.9c0.6-0.3,1.1-0.6,1.6-0.9c0.4-0.3,0.9-0.4,1.3-0.4c0.6,0,1,0.2,1.3,0.6l2,2.5
				c-0.8,0.9-1.6,1.6-2.5,2.2c-0.9,0.6-1.9,1.1-2.9,1.4s-2.1,0.6-3.1,0.8s-2.1,0.2-3.1,0.2c-2,0-3.8-0.3-5.5-1
				c-1.7-0.7-3.2-1.6-4.4-2.9c-1.2-1.3-2.2-2.9-2.9-4.7c-0.7-1.9-1.1-4.1-1.1-6.5c0-1.9,0.3-3.7,0.9-5.4s1.5-3.2,2.7-4.4
				c1.2-1.3,2.6-2.2,4.3-3c1.7-0.7,3.6-1.1,5.7-1.1c1.8,0,3.4,0.3,4.9,0.9c1.5,0.6,2.8,1.4,3.9,2.5c1.1,1.1,1.9,2.4,2.5,4
				s0.9,3.4,0.9,5.4c0,1-0.1,1.7-0.3,2.1s-0.6,0.5-1.3,0.5H669.4z M682.4,105.2c0-0.9-0.1-1.7-0.4-2.5c-0.2-0.8-0.6-1.5-1.1-2
				s-1.1-1-1.9-1.4c-0.8-0.3-1.6-0.5-2.7-0.5c-2,0-3.5,0.6-4.6,1.7c-1.1,1.1-1.8,2.7-2.2,4.8H682.4z"/>
		</g>
		<g>
			<path class="st0" d="M711.4,99.9c-0.2,0.3-0.4,0.5-0.6,0.6c-0.2,0.1-0.5,0.2-0.8,0.2c-0.3,0-0.7-0.1-1.1-0.3
				c-0.4-0.2-0.8-0.4-1.3-0.6c-0.5-0.2-1.1-0.4-1.7-0.6c-0.6-0.2-1.4-0.3-2.2-0.3c-1.3,0-2.4,0.3-3.1,0.9s-1.1,1.3-1.1,2.2
				c0,0.6,0.2,1.1,0.6,1.5c0.4,0.4,0.9,0.8,1.6,1.1c0.7,0.3,1.4,0.6,2.2,0.8c0.8,0.2,1.7,0.5,2.5,0.8s1.7,0.6,2.5,1s1.6,0.9,2.2,1.4
				c0.7,0.6,1.2,1.3,1.6,2.1c0.4,0.8,0.6,1.8,0.6,2.9c0,1.4-0.2,2.6-0.7,3.8s-1.2,2.1-2.2,3c-1,0.8-2.1,1.5-3.5,2
				c-1.4,0.5-3,0.7-4.9,0.7c-1,0-1.9-0.1-2.8-0.3c-0.9-0.2-1.8-0.4-2.7-0.7s-1.6-0.7-2.4-1.1c-0.7-0.4-1.4-0.9-1.9-1.4l1.6-2.6
				c0.2-0.3,0.4-0.5,0.7-0.7c0.3-0.2,0.6-0.2,1-0.2s0.8,0.1,1.2,0.4s0.8,0.5,1.3,0.8c0.5,0.3,1.1,0.5,1.7,0.8
				c0.7,0.2,1.5,0.4,2.5,0.4c0.8,0,1.5-0.1,2.1-0.3c0.6-0.2,1.1-0.4,1.4-0.8s0.7-0.7,0.8-1.1c0.2-0.4,0.3-0.8,0.3-1.3
				c0-0.7-0.2-1.2-0.6-1.6c-0.4-0.4-0.9-0.8-1.6-1.1c-0.7-0.3-1.4-0.6-2.2-0.8c-0.8-0.2-1.7-0.5-2.6-0.8c-0.9-0.3-1.7-0.6-2.6-1
				s-1.6-0.9-2.2-1.5c-0.7-0.6-1.2-1.3-1.6-2.2s-0.6-1.9-0.6-3.2c0-1.2,0.2-2.3,0.7-3.3c0.5-1,1.1-2,2-2.7c0.9-0.8,2-1.4,3.3-1.9
				c1.3-0.5,2.9-0.7,4.6-0.7c1.9,0,3.7,0.3,5.3,1c1.6,0.6,2.9,1.5,4,2.5L711.4,99.9z"/>
		</g>
	</g>
	<path class="st0" d="M734.3-0.1H158.5v0h-8.3H8.1h-8.3v8.3v142.1v8.3h8.3H150v0h8.3h576h8.3v-8.3V8.2v-8.3H734.3z M20.5,41h35.6
		l11.6,15.5L55.3,73.3L46.2,61H20.5V41z M117.1,128.2v-9.8H89.1l-11.9-15.9l12.5-16.7l9.4,12.6h18.1v-9.8l23,19.8L117.1,128.2z
		 M117.1,70.4v-9.8H99.1L56.2,118H20.5V98h25.6l42.9-57.4h28.1v-9.8l23,19.8L117.1,70.4z M734.3,150.2H158.5v0V8.2h575.8V150.2z"/>
</g>
</svg>
