<?xml version="1.0" encoding="utf-8"?>
<!-- Generator: Adobe Illustrator 27.2.0, SVG Export Plug-In . SVG Version: 6.00 Build 0)  -->
<svg version="1.1" id="Layer_1" xmlns="http://www.w3.org/2000/svg" xmlns:xlink="http://www.w3.org/1999/xlink" x="0px" y="0px"
	 viewBox="0 0 742.4 158.4" style="enable-background:new 0 0 742.4 158.4;" xml:space="preserve">
<style type="text/css">
	.st0{fill:#89AC33;}
</style>
<g>
	<g>
		<g>
			<path class="st0" d="M194.3,67.6h-7.4V27.8h7.4V67.6z"/>
		</g>
		<g>
			<path class="st0" d="M208.6,42.8c0.6-0.6,1.2-1.1,1.8-1.6s1.3-0.9,2-1.2c0.7-0.3,1.5-0.6,2.3-0.8s1.7-0.3,2.6-0.3
				c1.5,0,2.9,0.3,4.1,0.8c1.2,0.5,2.2,1.3,3,2.2c0.8,0.9,1.4,2.1,1.8,3.4c0.4,1.3,0.6,2.8,0.6,4.3v18H220v-18c0-1.7-0.4-3.1-1.2-4
				c-0.8-0.9-2-1.4-3.6-1.4c-1.2,0-2.3,0.3-3.3,0.8c-1,0.5-2,1.3-2.9,2.2v20.4h-6.8V39.4h4.2c0.9,0,1.5,0.4,1.7,1.2L208.6,42.8z"/>
		</g>
		<g>
			<path class="st0" d="M254,45.3c-0.2,0.3-0.4,0.5-0.6,0.6c-0.2,0.1-0.5,0.2-0.8,0.2c-0.3,0-0.7-0.1-1-0.3s-0.7-0.4-1.2-0.7
				c-0.5-0.3-1-0.5-1.6-0.7c-0.6-0.2-1.4-0.3-2.4-0.3c-1.2,0-2.2,0.2-3.1,0.6c-0.9,0.4-1.6,1-2.2,1.9c-0.6,0.8-1,1.8-1.3,2.9
				c-0.3,1.1-0.4,2.4-0.4,3.9c0,1.5,0.2,2.8,0.5,4c0.3,1.2,0.8,2.2,1.4,3c0.6,0.8,1.3,1.4,2.2,1.8c0.9,0.4,1.8,0.6,2.9,0.6
				c1.1,0,2-0.1,2.6-0.4s1.2-0.6,1.7-0.9c0.5-0.3,0.9-0.6,1.2-0.9c0.3-0.3,0.7-0.4,1.1-0.4c0.5,0,1,0.2,1.2,0.6l2,2.5
				c-0.8,0.9-1.6,1.6-2.4,2.2c-0.9,0.6-1.8,1.1-2.7,1.4s-1.9,0.6-2.9,0.8s-2,0.2-3,0.2c-1.7,0-3.4-0.3-4.9-1s-2.9-1.6-4-2.8
				c-1.2-1.2-2.1-2.8-2.7-4.6c-0.7-1.8-1-3.9-1-6.2c0-2.1,0.3-4,0.9-5.8c0.6-1.8,1.5-3.3,2.6-4.6c1.2-1.3,2.6-2.3,4.3-3
				s3.7-1.1,5.9-1.1c2.1,0,4,0.3,5.5,1c1.6,0.7,3,1.7,4.3,2.9L254,45.3z"/>
		</g>
		<g>
			<path class="st0" d="M272.8,38.9c2.1,0,4,0.3,5.7,1c1.7,0.7,3.2,1.6,4.4,2.9c1.2,1.2,2.2,2.8,2.8,4.6c0.7,1.8,1,3.8,1,6
				c0,2.2-0.3,4.3-1,6c-0.7,1.8-1.6,3.3-2.8,4.6c-1.2,1.3-2.7,2.2-4.4,2.9c-1.7,0.7-3.6,1-5.7,1c-2.1,0-4-0.3-5.7-1
				c-1.7-0.7-3.2-1.6-4.4-2.9c-1.2-1.3-2.2-2.8-2.8-4.6c-0.7-1.8-1-3.8-1-6c0-2.2,0.3-4.2,1-6c0.7-1.8,1.6-3.3,2.8-4.6
				c1.2-1.2,2.7-2.2,4.4-2.9C268.8,39.3,270.7,38.9,272.8,38.9z M272.8,62.8c2.3,0,4.1-0.8,5.2-2.4c1.1-1.6,1.7-3.9,1.7-6.9
				s-0.6-5.4-1.7-7c-1.1-1.6-2.9-2.4-5.2-2.4c-2.4,0-4.1,0.8-5.3,2.4c-1.1,1.6-1.7,3.9-1.7,6.9s0.6,5.3,1.7,6.9
				C268.7,62,270.5,62.8,272.8,62.8z"/>
		</g>
		<g>
			<path class="st0" d="M298.9,42.8c0.6-0.6,1.2-1.1,1.8-1.6s1.3-0.9,2-1.2c0.7-0.3,1.5-0.6,2.3-0.8s1.7-0.3,2.6-0.3
				c1.5,0,2.9,0.3,4.1,0.8c1.2,0.5,2.2,1.3,3,2.2c0.8,0.9,1.4,2.1,1.8,3.4c0.4,1.3,0.6,2.8,0.6,4.3v18h-6.8v-18c0-1.7-0.4-3.1-1.2-4
				c-0.8-0.9-2-1.4-3.6-1.4c-1.2,0-2.3,0.3-3.3,0.8c-1,0.5-2,1.3-2.9,2.2v20.4h-6.8V39.4h4.2c0.9,0,1.5,0.4,1.7,1.2L298.9,42.8z"/>
		</g>
		<g>
			<path class="st0" d="M344.3,45.3c-0.2,0.3-0.4,0.5-0.6,0.6c-0.2,0.1-0.5,0.2-0.8,0.2c-0.3,0-0.7-0.1-1-0.3s-0.7-0.4-1.2-0.7
				c-0.5-0.3-1-0.5-1.6-0.7c-0.6-0.2-1.4-0.3-2.4-0.3c-1.2,0-2.2,0.2-3.1,0.6c-0.9,0.4-1.6,1-2.2,1.9c-0.6,0.8-1,1.8-1.3,2.9
				c-0.3,1.1-0.4,2.4-0.4,3.9c0,1.5,0.2,2.8,0.5,4c0.3,1.2,0.8,2.2,1.4,3c0.6,0.8,1.3,1.4,2.2,1.8c0.9,0.4,1.8,0.6,2.9,0.6
				c1.1,0,2-0.1,2.6-0.4s1.2-0.6,1.7-0.9c0.5-0.3,0.9-0.6,1.2-0.9c0.3-0.3,0.7-0.4,1.1-0.4c0.5,0,1,0.2,1.2,0.6l2,2.5
				c-0.8,0.9-1.6,1.6-2.4,2.2c-0.9,0.6-1.8,1.1-2.7,1.4s-1.9,0.6-2.9,0.8s-2,0.2-3,0.2c-1.7,0-3.4-0.3-4.9-1s-2.9-1.6-4-2.8
				c-1.2-1.2-2.1-2.8-2.7-4.6c-0.7-1.8-1-3.9-1-6.2c0-2.1,0.3-4,0.9-5.8c0.6-1.8,1.5-3.3,2.6-4.6c1.2-1.3,2.6-2.3,4.3-3
				s3.7-1.1,5.9-1.1c2.1,0,4,0.3,5.5,1c1.6,0.7,3,1.7,4.3,2.9L344.3,45.3z"/>
		</g>
		<g>
			<path class="st0" d="M358,26.7v40.9h-6.8V26.7H358z"/>
		</g>
		<g>
			<path class="st0" d="M389.7,39.4v28.2h-4.2c-0.9,0-1.5-0.4-1.7-1.2l-0.5-2.3c-1.2,1.2-2.4,2.1-3.8,2.8c-1.4,0.7-3,1.1-4.9,1.1
				c-1.5,0-2.9-0.3-4.1-0.8c-1.2-0.5-2.2-1.3-3-2.2s-1.4-2.1-1.8-3.4c-0.4-1.3-0.6-2.8-0.6-4.3V39.4h6.8v17.9c0,1.7,0.4,3.1,1.2,4
				c0.8,0.9,2,1.4,3.6,1.4c1.2,0,2.3-0.3,3.3-0.8c1-0.5,2-1.2,2.9-2.2V39.4H389.7z"/>
		</g>
		<g>
			<path class="st0" d="M414.1,44.9c-0.2,0.3-0.4,0.5-0.6,0.6c-0.2,0.1-0.5,0.2-0.8,0.2c-0.3,0-0.7-0.1-1.1-0.3
				c-0.4-0.2-0.8-0.4-1.3-0.6c-0.5-0.2-1.1-0.4-1.7-0.6c-0.6-0.2-1.4-0.3-2.2-0.3c-1.3,0-2.4,0.3-3.1,0.9s-1.1,1.3-1.1,2.2
				c0,0.6,0.2,1.1,0.6,1.5c0.4,0.4,0.9,0.8,1.6,1.1c0.7,0.3,1.4,0.6,2.2,0.8c0.8,0.2,1.7,0.5,2.5,0.8s1.7,0.6,2.5,1s1.6,0.9,2.2,1.4
				c0.7,0.6,1.2,1.3,1.6,2.1c0.4,0.8,0.6,1.8,0.6,2.9c0,1.4-0.2,2.6-0.7,3.8s-1.2,2.1-2.2,3c-1,0.8-2.1,1.5-3.5,2
				c-1.4,0.5-3,0.7-4.9,0.7c-1,0-1.9-0.1-2.8-0.3c-0.9-0.2-1.8-0.4-2.7-0.7s-1.6-0.7-2.4-1.1c-0.7-0.4-1.4-0.9-1.9-1.4l1.6-2.6
				c0.2-0.3,0.4-0.5,0.7-0.7c0.3-0.2,0.6-0.2,1-0.2s0.8,0.1,1.2,0.4s0.8,0.5,1.3,0.8c0.5,0.3,1.1,0.5,1.7,0.8
				c0.7,0.2,1.5,0.4,2.5,0.4c0.8,0,1.5-0.1,2.1-0.3c0.6-0.2,1.1-0.4,1.4-0.8s0.7-0.7,0.8-1.1c0.2-0.4,0.3-0.8,0.3-1.3
				c0-0.7-0.2-1.2-0.6-1.6c-0.4-0.4-0.9-0.8-1.6-1.1c-0.7-0.3-1.4-0.6-2.2-0.8c-0.8-0.2-1.7-0.5-2.6-0.8c-0.9-0.3-1.7-0.6-2.6-1
				s-1.6-0.9-2.2-1.5c-0.7-0.6-1.2-1.3-1.6-2.2s-0.6-1.9-0.6-3.2c0-1.2,0.2-2.3,0.7-3.3c0.5-1,1.1-2,2-2.7c0.9-0.8,2-1.4,3.3-1.9
				c1.3-0.5,2.9-0.7,4.6-0.7c1.9,0,3.7,0.3,5.3,1c1.6,0.6,2.9,1.5,4,2.5L414.1,44.9z"/>
		</g>
		<g>
			<path class="st0" d="M429.6,31.2c0,0.6-0.1,1.1-0.4,1.7c-0.2,0.5-0.6,1-0.9,1.3c-0.4,0.4-0.9,0.7-1.4,0.9
				c-0.5,0.2-1.1,0.3-1.7,0.3c-0.6,0-1.1-0.1-1.7-0.3s-1-0.5-1.4-0.9c-0.4-0.4-0.7-0.8-0.9-1.3c-0.2-0.5-0.3-1.1-0.3-1.7
				c0-0.6,0.1-1.2,0.3-1.7c0.2-0.5,0.5-1,0.9-1.4c0.4-0.4,0.8-0.7,1.4-0.9s1.1-0.3,1.7-0.3c0.6,0,1.2,0.1,1.7,0.3
				c0.5,0.2,1,0.5,1.4,0.9s0.7,0.8,0.9,1.4C429.5,30,429.6,30.5,429.6,31.2z M428.7,39.4v28.2h-6.8V39.4H428.7z"/>
		</g>
		<g>
			<path class="st0" d="M461.6,39.4l-11.2,28.2h-6.2l-11.2-28.2h5.6c0.5,0,0.9,0.1,1.3,0.4c0.3,0.2,0.6,0.5,0.7,0.9l5.4,15.1
				c0.3,0.9,0.5,1.7,0.8,2.6c0.2,0.8,0.4,1.7,0.6,2.5c0.2-0.8,0.4-1.7,0.6-2.5c0.2-0.8,0.5-1.7,0.8-2.6l5.6-15.1
				c0.1-0.4,0.4-0.7,0.7-0.9c0.3-0.2,0.7-0.4,1.2-0.4H461.6z"/>
		</g>
		<g>
			<path class="st0" d="M470.1,54.3c0.1,1.4,0.4,2.7,0.8,3.8c0.4,1.1,0.9,1.9,1.6,2.6s1.4,1.2,2.4,1.5c0.9,0.3,1.9,0.5,3,0.5
				c1.1,0,2-0.1,2.8-0.4c0.8-0.3,1.5-0.5,2.1-0.9c0.6-0.3,1.1-0.6,1.6-0.9c0.4-0.3,0.9-0.4,1.3-0.4c0.6,0,1,0.2,1.3,0.6l2,2.5
				c-0.8,0.9-1.6,1.6-2.5,2.2c-0.9,0.6-1.9,1.1-2.9,1.4s-2.1,0.6-3.1,0.8s-2.1,0.2-3.1,0.2c-2,0-3.8-0.3-5.5-1
				c-1.7-0.7-3.2-1.6-4.4-2.9c-1.2-1.3-2.2-2.9-2.9-4.7c-0.7-1.9-1.1-4.1-1.1-6.5c0-1.9,0.3-3.7,0.9-5.4s1.5-3.2,2.7-4.4
				c1.2-1.3,2.6-2.2,4.3-3c1.7-0.7,3.6-1.1,5.7-1.1c1.8,0,3.4,0.3,4.9,0.9c1.5,0.6,2.8,1.4,3.9,2.5c1.1,1.1,1.9,2.4,2.5,4
				s0.9,3.4,0.9,5.4c0,1-0.1,1.7-0.3,2.1s-0.6,0.5-1.3,0.5H470.1z M483,50.2c0-0.9-0.1-1.7-0.4-2.5c-0.2-0.8-0.6-1.5-1.1-2
				s-1.1-1-1.9-1.4c-0.8-0.3-1.6-0.5-2.7-0.5c-2,0-3.5,0.6-4.6,1.7c-1.1,1.1-1.8,2.7-2.2,4.8H483z"/>
		</g>
		<g>
			<path class="st0" d="M517.2,67.6h-7.4V27.8h7.4V67.6z"/>
		</g>
		<g>
			<path class="st0" d="M525.2,67.6V39.4h4.2c0.9,0,1.5,0.4,1.7,1.2l0.4,2.1c0.5-0.5,1-1.1,1.6-1.5c0.5-0.5,1.1-0.9,1.7-1.2
				c0.6-0.3,1.3-0.6,2-0.8c0.7-0.2,1.5-0.3,2.3-0.3c1.8,0,3.2,0.5,4.4,1.4c1.1,1,2,2.2,2.6,3.8c0.4-0.9,1-1.7,1.7-2.4
				c0.7-0.7,1.4-1.2,2.2-1.6c0.8-0.4,1.6-0.7,2.5-0.9c0.9-0.2,1.8-0.3,2.7-0.3c1.6,0,2.9,0.2,4.2,0.7c1.2,0.5,2.2,1.2,3.1,2.1
				c0.8,0.9,1.5,2,1.9,3.4s0.6,2.8,0.6,4.5v18H558v-18c0-1.8-0.4-3.1-1.2-4.1c-0.8-0.9-1.9-1.4-3.5-1.4c-0.7,0-1.3,0.1-1.9,0.4
				s-1.1,0.6-1.6,1s-0.8,1-1.1,1.7c-0.3,0.7-0.4,1.5-0.4,2.3v18h-6.8v-18c0-1.9-0.4-3.3-1.1-4.1c-0.8-0.9-1.9-1.3-3.3-1.3
				c-1,0-1.9,0.2-2.8,0.7c-0.9,0.5-1.6,1.2-2.4,2v20.7H525.2z"/>
		</g>
		<g>
			<path class="st0" d="M578.2,43.2c1.2-1.3,2.5-2.4,3.9-3.2s3.2-1.2,5.2-1.2c1.5,0,2.9,0.3,4.2,1c1.3,0.6,2.4,1.6,3.3,2.8
				c0.9,1.2,1.6,2.7,2.1,4.5c0.5,1.8,0.8,3.8,0.8,6.1c0,2.1-0.3,4.1-0.9,5.9c-0.6,1.8-1.4,3.4-2.4,4.7c-1.1,1.3-2.3,2.4-3.8,3.1
				s-3.2,1.1-5,1.1c-1.6,0-2.9-0.2-4-0.7s-2.1-1.2-3-2v11.6h-6.8V39.4h4.2c0.9,0,1.5,0.4,1.7,1.2L578.2,43.2z M578.6,60.3
				c0.8,0.9,1.6,1.6,2.5,2c0.9,0.4,1.9,0.6,3,0.6c1,0,2-0.2,2.8-0.6s1.5-1,2.1-1.8c0.6-0.8,1-1.8,1.3-3c0.3-1.2,0.5-2.6,0.5-4.2
				c0-1.7-0.1-3-0.4-4.2c-0.3-1.1-0.6-2.1-1.1-2.8s-1.1-1.2-1.8-1.6s-1.5-0.5-2.4-0.5c-1.4,0-2.6,0.3-3.6,0.9
				c-1,0.6-1.9,1.4-2.8,2.5V60.3z"/>
		</g>
		<g>
			<path class="st0" d="M602.9,43.3c3.2-3,7.1-4.5,11.7-4.5c1.6,0,3.1,0.3,4.4,0.8c1.3,0.5,2.4,1.3,3.3,2.3c0.9,1,1.6,2.1,2,3.5
				c0.5,1.3,0.7,2.8,0.7,4.4v17.8H622c-0.6,0-1.1-0.1-1.5-0.3s-0.6-0.6-0.8-1.2l-0.6-2c-0.7,0.6-1.4,1.2-2.1,1.7
				c-0.7,0.5-1.4,0.9-2.1,1.2s-1.5,0.6-2.4,0.8c-0.8,0.2-1.8,0.3-2.8,0.3c-1.2,0-2.3-0.2-3.3-0.5c-1-0.3-1.9-0.8-2.6-1.4
				c-0.7-0.6-1.3-1.4-1.7-2.4c-0.4-1-0.6-2.1-0.6-3.3c0-0.7,0.1-1.4,0.4-2.1s0.6-1.4,1.2-2c0.5-0.6,1.2-1.2,2.1-1.8
				c0.9-0.6,1.9-1.1,3.2-1.5s2.7-0.8,4.4-1c1.7-0.3,3.6-0.4,5.7-0.5v-1.7c0-1.9-0.4-3.3-1.2-4.2s-2-1.4-3.5-1.4
				c-1.1,0-2,0.1-2.7,0.4c-0.7,0.3-1.4,0.5-1.9,0.9c-0.5,0.3-1,0.6-1.5,0.9c-0.4,0.3-0.9,0.4-1.5,0.4c-0.5,0-0.9-0.1-1.2-0.4
				c-0.3-0.2-0.6-0.5-0.8-0.9L602.9,43.3z M618.5,55.5c-2,0.1-3.6,0.3-5,0.5c-1.3,0.2-2.4,0.6-3.2,0.9c-0.8,0.4-1.4,0.8-1.7,1.3
				c-0.3,0.5-0.5,1.1-0.5,1.7c0,1.2,0.4,2,1.1,2.6c0.7,0.5,1.6,0.8,2.8,0.8c1.4,0,2.6-0.3,3.6-0.8c1-0.5,2-1.3,3-2.3V55.5z"/>
		</g>
		<g>
			<path class="st0" d="M652.2,45.3c-0.2,0.3-0.4,0.5-0.6,0.6c-0.2,0.1-0.5,0.2-0.8,0.2c-0.3,0-0.7-0.1-1-0.3s-0.7-0.4-1.2-0.7
				c-0.5-0.3-1-0.5-1.6-0.7c-0.6-0.2-1.4-0.3-2.4-0.3c-1.2,0-2.2,0.2-3.1,0.6c-0.9,0.4-1.6,1-2.2,1.9c-0.6,0.8-1,1.8-1.3,2.9
				c-0.3,1.1-0.4,2.4-0.4,3.9c0,1.5,0.2,2.8,0.5,4c0.3,1.2,0.8,2.2,1.4,3c0.6,0.8,1.3,1.4,2.2,1.8c0.9,0.4,1.8,0.6,2.9,0.6
				c1.1,0,2-0.1,2.6-0.4s1.2-0.6,1.7-0.9c0.5-0.3,0.9-0.6,1.2-0.9c0.3-0.3,0.7-0.4,1.1-0.4c0.5,0,1,0.2,1.2,0.6l2,2.5
				c-0.8,0.9-1.6,1.6-2.4,2.2c-0.9,0.6-1.8,1.1-2.7,1.4s-1.9,0.6-2.9,0.8s-2,0.2-3,0.2c-1.7,0-3.4-0.3-4.9-1s-2.9-1.6-4-2.8
				c-1.2-1.2-2.1-2.8-2.7-4.6c-0.7-1.8-1-3.9-1-6.2c0-2.1,0.3-4,0.9-5.8c0.6-1.8,1.5-3.3,2.6-4.6c1.2-1.3,2.6-2.3,4.3-3
				s3.7-1.1,5.9-1.1c2.1,0,4,0.3,5.5,1c1.6,0.7,3,1.7,4.3,2.9L652.2,45.3z"/>
		</g>
		<g>
			<path class="st0" d="M668.5,68c-2.5,0-4.3-0.7-5.7-2.1c-1.3-1.4-2-3.3-2-5.7V44.5H658c-0.4,0-0.7-0.1-0.9-0.4
				c-0.3-0.2-0.4-0.6-0.4-1.1v-2.7l4.5-0.7l1.4-7.7c0.1-0.4,0.3-0.7,0.5-0.9c0.3-0.2,0.6-0.3,1-0.3h3.5v8.9h7.5v4.8h-7.5v15.3
				c0,0.9,0.2,1.6,0.6,2.1c0.4,0.5,1,0.7,1.8,0.7c0.4,0,0.8-0.1,1.1-0.2c0.3-0.1,0.5-0.2,0.7-0.3s0.4-0.2,0.6-0.3
				c0.2-0.1,0.3-0.2,0.5-0.2c0.2,0,0.4,0.1,0.5,0.2c0.1,0.1,0.3,0.3,0.4,0.5l2,3.3c-1,0.8-2.1,1.4-3.4,1.9S669.9,68,668.5,68z"/>
		</g>
		<g>
			<path class="st0" d="M198.3,93.9c2.1,0,4,0.3,5.7,1c1.7,0.7,3.2,1.6,4.4,2.9c1.2,1.2,2.2,2.8,2.8,4.6c0.7,1.8,1,3.8,1,6
				c0,2.2-0.3,4.3-1,6c-0.7,1.8-1.6,3.3-2.8,4.6c-1.2,1.3-2.7,2.2-4.4,2.9c-1.7,0.7-3.6,1-5.7,1c-2.1,0-4-0.3-5.7-1
				c-1.7-0.7-3.2-1.6-4.4-2.9c-1.2-1.3-2.2-2.8-2.8-4.6c-0.7-1.8-1-3.8-1-6c0-2.2,0.3-4.2,1-6c0.7-1.8,1.6-3.3,2.8-4.6
				c1.2-1.2,2.7-2.2,4.4-2.9C194.2,94.3,196.2,93.9,198.3,93.9z M198.3,117.8c2.3,0,4.1-0.8,5.2-2.4c1.1-1.6,1.7-3.9,1.7-6.9
				s-0.6-5.4-1.7-7c-1.1-1.6-2.9-2.4-5.2-2.4c-2.4,0-4.1,0.8-5.3,2.4c-1.1,1.6-1.7,3.9-1.7,6.9s0.6,5.3,1.7,6.9
				C194.1,117,195.9,117.8,198.3,117.8z"/>
		</g>
		<g>
			<path class="st0" d="M224.3,97.8c0.6-0.6,1.2-1.1,1.8-1.6s1.3-0.9,2-1.2c0.7-0.3,1.5-0.6,2.3-0.8s1.7-0.3,2.6-0.3
				c1.5,0,2.9,0.3,4.1,0.8c1.2,0.5,2.2,1.3,3,2.2c0.8,0.9,1.4,2.1,1.8,3.4c0.4,1.3,0.6,2.8,0.6,4.3v18h-6.8v-18c0-1.7-0.4-3.1-1.2-4
				c-0.8-0.9-2-1.4-3.6-1.4c-1.2,0-2.3,0.3-3.3,0.8c-1,0.5-2,1.3-2.9,2.2v20.4h-6.8V94.4h4.2c0.9,0,1.5,0.4,1.7,1.2L224.3,97.8z"/>
		</g>
		<g>
			<path class="st0" d="M299.8,102.7c0,2.9-0.5,5.6-1.5,8c-1,2.4-2.3,4.5-4.1,6.3c-1.8,1.8-3.9,3.1-6.4,4.1s-5.2,1.5-8.2,1.5h-15.2
				V82.8h15.2c3,0,5.8,0.5,8.2,1.5c2.5,1,4.6,2.3,6.4,4.1s3.1,3.8,4.1,6.3C299.3,97.1,299.8,99.8,299.8,102.7z M292.2,102.7
				c0-2.2-0.3-4.1-0.9-5.9s-1.4-3.2-2.5-4.4c-1.1-1.2-2.4-2.1-4-2.8c-1.5-0.6-3.3-1-5.2-1h-7.7v28h7.7c1.9,0,3.7-0.3,5.2-1
				c1.5-0.6,2.9-1.6,4-2.8c1.1-1.2,1.9-2.7,2.5-4.4C291.9,106.8,292.2,104.9,292.2,102.7z"/>
		</g>
		<g>
			<path class="st0" d="M313.3,86.2c0,0.6-0.1,1.1-0.4,1.7c-0.2,0.5-0.6,1-0.9,1.3c-0.4,0.4-0.9,0.7-1.4,0.9
				c-0.5,0.2-1.1,0.3-1.7,0.3c-0.6,0-1.1-0.1-1.7-0.3s-1-0.5-1.4-0.9c-0.4-0.4-0.7-0.8-0.9-1.3c-0.2-0.5-0.3-1.1-0.3-1.7
				c0-0.6,0.1-1.2,0.3-1.7c0.2-0.5,0.5-1,0.9-1.4c0.4-0.4,0.8-0.7,1.4-0.9s1.1-0.3,1.7-0.3c0.6,0,1.2,0.1,1.7,0.3
				c0.5,0.2,1,0.5,1.4,0.9s0.7,0.8,0.9,1.4C313.2,85,313.3,85.5,313.3,86.2z M312.4,94.4v28.2h-6.8V94.4H312.4z"/>
		</g>
		<g>
			<path class="st0" d="M337.1,99.9c-0.2,0.3-0.4,0.5-0.6,0.6c-0.2,0.1-0.5,0.2-0.8,0.2c-0.3,0-0.7-0.1-1.1-0.3
				c-0.4-0.2-0.8-0.4-1.3-0.6c-0.5-0.2-1.1-0.4-1.7-0.6c-0.6-0.2-1.4-0.3-2.2-0.3c-1.3,0-2.4,0.3-3.1,0.9s-1.1,1.3-1.1,2.2
				c0,0.6,0.2,1.1,0.6,1.5c0.4,0.4,0.9,0.8,1.6,1.1c0.7,0.3,1.4,0.6,2.2,0.8c0.8,0.2,1.7,0.5,2.5,0.8s1.7,0.6,2.5,1s1.6,0.9,2.2,1.4
				c0.7,0.6,1.2,1.3,1.6,2.1c0.4,0.8,0.6,1.8,0.6,2.9c0,1.4-0.2,2.6-0.7,3.8s-1.2,2.1-2.2,3c-1,0.8-2.1,1.5-3.5,2
				c-1.4,0.5-3,0.7-4.9,0.7c-1,0-1.9-0.1-2.8-0.3c-0.9-0.2-1.8-0.4-2.7-0.7s-1.6-0.7-2.4-1.1c-0.7-0.4-1.4-0.9-1.9-1.4l1.6-2.6
				c0.2-0.3,0.4-0.5,0.7-0.7c0.3-0.2,0.6-0.2,1-0.2s0.8,0.1,1.2,0.4s0.8,0.5,1.3,0.8c0.5,0.3,1.1,0.5,1.7,0.8
				c0.7,0.2,1.5,0.4,2.5,0.4c0.8,0,1.5-0.1,2.1-0.3c0.6-0.2,1.1-0.4,1.4-0.8s0.7-0.7,0.8-1.1c0.2-0.4,0.3-0.8,0.3-1.3
				c0-0.7-0.2-1.2-0.6-1.6c-0.4-0.4-0.9-0.8-1.6-1.1c-0.7-0.3-1.4-0.6-2.2-0.8c-0.8-0.2-1.7-0.5-2.6-0.8c-0.9-0.3-1.7-0.6-2.6-1
				s-1.6-0.9-2.2-1.5c-0.7-0.6-1.2-1.3-1.6-2.2s-0.6-1.9-0.6-3.2c0-1.2,0.2-2.3,0.7-3.3c0.5-1,1.1-2,2-2.7c0.9-0.8,2-1.4,3.3-1.9
				c1.3-0.5,2.9-0.7,4.6-0.7c1.9,0,3.7,0.3,5.3,1c1.6,0.6,2.9,1.5,4,2.5L337.1,99.9z"/>
		</g>
		<g>
			<path class="st0" d="M351,98.2c1.2-1.3,2.5-2.4,3.9-3.2s3.2-1.2,5.2-1.2c1.5,0,2.9,0.3,4.2,1c1.3,0.6,2.4,1.6,3.3,2.8
				c0.9,1.2,1.6,2.7,2.1,4.5c0.5,1.8,0.8,3.8,0.8,6.1c0,2.1-0.3,4.1-0.9,5.9c-0.6,1.8-1.4,3.4-2.4,4.7c-1.1,1.3-2.3,2.4-3.8,3.1
				s-3.2,1.1-5,1.1c-1.6,0-2.9-0.2-4-0.7s-2.1-1.2-3-2v11.6h-6.8V94.4h4.2c0.9,0,1.5,0.4,1.7,1.2L351,98.2z M351.4,115.3
				c0.8,0.9,1.6,1.6,2.5,2c0.9,0.4,1.9,0.6,3,0.6c1,0,2-0.2,2.8-0.6s1.5-1,2.1-1.8c0.6-0.8,1-1.8,1.3-3c0.3-1.2,0.5-2.6,0.5-4.2
				c0-1.7-0.1-3-0.4-4.2c-0.3-1.1-0.6-2.1-1.1-2.8s-1.1-1.2-1.8-1.6s-1.5-0.5-2.4-0.5c-1.4,0-2.6,0.3-3.6,0.9
				c-1,0.6-1.9,1.4-2.8,2.5V115.3z"/>
		</g>
		<g>
			<path class="st0" d="M375.7,98.3c3.2-3,7.1-4.5,11.7-4.5c1.6,0,3.1,0.3,4.4,0.8c1.3,0.5,2.4,1.3,3.3,2.3c0.9,1,1.6,2.1,2,3.5
				c0.5,1.3,0.7,2.8,0.7,4.4v17.8h-3.1c-0.6,0-1.1-0.1-1.5-0.3s-0.6-0.6-0.8-1.2l-0.6-2c-0.7,0.6-1.4,1.2-2.1,1.7
				c-0.7,0.5-1.4,0.9-2.1,1.2s-1.5,0.6-2.4,0.8c-0.8,0.2-1.8,0.3-2.8,0.3c-1.2,0-2.3-0.2-3.3-0.5c-1-0.3-1.9-0.8-2.6-1.4
				c-0.7-0.6-1.3-1.4-1.7-2.4c-0.4-1-0.6-2.1-0.6-3.3c0-0.7,0.1-1.4,0.4-2.1s0.6-1.4,1.2-2c0.5-0.6,1.2-1.2,2.1-1.8
				c0.9-0.6,1.9-1.1,3.2-1.5s2.7-0.8,4.4-1c1.7-0.3,3.6-0.4,5.7-0.5v-1.7c0-1.9-0.4-3.3-1.2-4.2s-2-1.4-3.5-1.4
				c-1.1,0-2,0.1-2.7,0.4c-0.7,0.3-1.4,0.5-1.9,0.9c-0.5,0.3-1,0.6-1.5,0.9c-0.4,0.3-0.9,0.4-1.5,0.4c-0.5,0-0.9-0.1-1.2-0.4
				c-0.3-0.2-0.6-0.5-0.8-0.9L375.7,98.3z M391.3,110.5c-2,0.1-3.6,0.3-5,0.5c-1.3,0.2-2.4,0.6-3.2,0.9c-0.8,0.4-1.4,0.8-1.7,1.3
				c-0.3,0.5-0.5,1.1-0.5,1.7c0,1.2,0.4,2,1.1,2.6c0.7,0.5,1.6,0.8,2.8,0.8c1.4,0,2.6-0.3,3.6-0.8c1-0.5,2-1.3,3-2.3V110.5z"/>
		</g>
		<g>
			<path class="st0" d="M411.2,99.3c0.9-1.7,1.9-3,3.1-4c1.2-1,2.6-1.4,4.3-1.4c1.3,0,2.3,0.3,3.1,0.9l-0.4,5.1
				c-0.1,0.3-0.2,0.6-0.4,0.7c-0.2,0.1-0.4,0.2-0.7,0.2c-0.3,0-0.7,0-1.2-0.1s-1.1-0.1-1.6-0.1c-0.8,0-1.4,0.1-2,0.3
				s-1.1,0.5-1.6,0.9c-0.5,0.4-0.9,0.9-1.2,1.5c-0.4,0.6-0.7,1.3-1,2v17.4h-6.8V94.4h4c0.7,0,1.2,0.1,1.5,0.4
				c0.3,0.2,0.5,0.7,0.5,1.3L411.2,99.3z"/>
		</g>
		<g>
			<path class="st0" d="M433.8,86.2c0,0.6-0.1,1.1-0.4,1.7c-0.2,0.5-0.6,1-0.9,1.3c-0.4,0.4-0.9,0.7-1.4,0.9
				c-0.5,0.2-1.1,0.3-1.7,0.3c-0.6,0-1.1-0.1-1.7-0.3s-1-0.5-1.4-0.9c-0.4-0.4-0.7-0.8-0.9-1.3c-0.2-0.5-0.3-1.1-0.3-1.7
				c0-0.6,0.1-1.2,0.3-1.7c0.2-0.5,0.5-1,0.9-1.4c0.4-0.4,0.8-0.7,1.4-0.9s1.1-0.3,1.7-0.3c0.6,0,1.2,0.1,1.7,0.3
				c0.5,0.2,1,0.5,1.4,0.9s0.7,0.8,0.9,1.4C433.7,85,433.8,85.5,433.8,86.2z M432.9,94.4v28.2h-6.8V94.4H432.9z"/>
		</g>
		<g>
			<path class="st0" d="M468.9,122.6h-6.8V99.5H449v15.3c0,0.9,0.2,1.6,0.6,2.1c0.4,0.5,1,0.7,1.8,0.7c0.4,0,0.8-0.1,1.1-0.2
				c0.3-0.1,0.5-0.2,0.7-0.3s0.4-0.2,0.6-0.3c0.2-0.1,0.3-0.2,0.5-0.2c0.2,0,0.4,0.1,0.5,0.2c0.1,0.1,0.3,0.3,0.4,0.5l2,3.3
				c-1,0.8-2.1,1.4-3.4,1.9s-2.6,0.6-4,0.6c-2.5,0-4.3-0.7-5.7-2.1c-1.3-1.4-2-3.3-2-5.7V99.5h-2.9c-0.4,0-0.7-0.1-0.9-0.4
				c-0.3-0.2-0.4-0.6-0.4-1.1v-2.7l4.5-0.8l1.4-7.7c0.1-0.4,0.3-0.7,0.5-0.9c0.3-0.2,0.6-0.3,1-0.3h3.5v8.9h19.9V122.6z M470,86
				c0,0.6-0.1,1.1-0.4,1.7s-0.6,1-0.9,1.4s-0.9,0.7-1.4,0.9c-0.5,0.2-1.1,0.3-1.7,0.3c-0.6,0-1.1-0.1-1.6-0.3
				c-0.5-0.2-1-0.5-1.3-0.9s-0.7-0.8-0.9-1.4s-0.3-1.1-0.3-1.7c0-0.6,0.1-1.2,0.3-1.7c0.2-0.5,0.5-1,0.9-1.4
				c0.4-0.4,0.8-0.7,1.3-0.9c0.5-0.2,1.1-0.3,1.6-0.3c0.6,0,1.2,0.1,1.7,0.3c0.5,0.2,1,0.5,1.4,0.9c0.4,0.4,0.7,0.9,0.9,1.4
				C469.9,84.9,470,85.4,470,86z"/>
		</g>
		<g>
			<path class="st0" d="M481.6,109.3c0.1,1.4,0.4,2.7,0.8,3.8c0.4,1.1,0.9,1.9,1.6,2.6s1.4,1.2,2.4,1.5c0.9,0.3,1.9,0.5,3,0.5
				c1.1,0,2-0.1,2.8-0.4c0.8-0.3,1.5-0.5,2.1-0.9c0.6-0.3,1.1-0.6,1.6-0.9c0.4-0.3,0.9-0.4,1.3-0.4c0.6,0,1,0.2,1.3,0.6l2,2.5
				c-0.8,0.9-1.6,1.6-2.5,2.2c-0.9,0.6-1.9,1.1-2.9,1.4s-2.1,0.6-3.1,0.8s-2.1,0.2-3.1,0.2c-2,0-3.8-0.3-5.5-1
				c-1.7-0.7-3.2-1.6-4.4-2.9c-1.2-1.3-2.2-2.9-2.9-4.7c-0.7-1.9-1.1-4.1-1.1-6.5c0-1.9,0.3-3.7,0.9-5.4s1.5-3.2,2.7-4.4
				c1.2-1.3,2.6-2.2,4.3-3c1.7-0.7,3.6-1.1,5.7-1.1c1.8,0,3.4,0.3,4.9,0.9c1.5,0.6,2.8,1.4,3.9,2.5c1.1,1.1,1.9,2.4,2.5,4
				s0.9,3.4,0.9,5.4c0,1-0.1,1.7-0.3,2.1s-0.6,0.5-1.3,0.5H481.6z M494.5,105.2c0-0.9-0.1-1.7-0.4-2.5c-0.2-0.8-0.6-1.5-1.1-2
				s-1.1-1-1.9-1.4c-0.8-0.3-1.6-0.5-2.7-0.5c-2,0-3.5,0.6-4.6,1.7c-1.1,1.1-1.8,2.7-2.2,4.8H494.5z"/>
		</g>
		<g>
			<path class="st0" d="M523.5,99.9c-0.2,0.3-0.4,0.5-0.6,0.6c-0.2,0.1-0.5,0.2-0.8,0.2c-0.3,0-0.7-0.1-1.1-0.3
				c-0.4-0.2-0.8-0.4-1.3-0.6c-0.5-0.2-1.1-0.4-1.7-0.6c-0.6-0.2-1.4-0.3-2.2-0.3c-1.3,0-2.4,0.3-3.1,0.9c-0.8,0.6-1.1,1.3-1.1,2.2
				c0,0.6,0.2,1.1,0.6,1.5c0.4,0.4,0.9,0.8,1.6,1.1c0.7,0.3,1.4,0.6,2.2,0.8c0.8,0.2,1.7,0.5,2.5,0.8s1.7,0.6,2.5,1s1.6,0.9,2.2,1.4
				c0.7,0.6,1.2,1.3,1.6,2.1c0.4,0.8,0.6,1.8,0.6,2.9c0,1.4-0.2,2.6-0.7,3.8s-1.2,2.1-2.2,3c-1,0.8-2.1,1.5-3.5,2
				c-1.4,0.5-3,0.7-4.9,0.7c-1,0-1.9-0.1-2.8-0.3c-0.9-0.2-1.8-0.4-2.7-0.7s-1.6-0.7-2.4-1.1c-0.7-0.4-1.4-0.9-1.9-1.4l1.6-2.6
				c0.2-0.3,0.4-0.5,0.7-0.7c0.3-0.2,0.6-0.2,1-0.2s0.8,0.1,1.2,0.4s0.8,0.5,1.3,0.8c0.5,0.3,1.1,0.5,1.7,0.8
				c0.7,0.2,1.5,0.4,2.5,0.4c0.8,0,1.5-0.1,2.1-0.3c0.6-0.2,1.1-0.4,1.4-0.8s0.7-0.7,0.8-1.1c0.2-0.4,0.3-0.8,0.3-1.3
				c0-0.7-0.2-1.2-0.6-1.6c-0.4-0.4-0.9-0.8-1.6-1.1c-0.7-0.3-1.4-0.6-2.2-0.8c-0.8-0.2-1.7-0.5-2.6-0.8c-0.9-0.3-1.7-0.6-2.6-1
				s-1.6-0.9-2.2-1.5c-0.7-0.6-1.2-1.3-1.6-2.2s-0.6-1.9-0.6-3.2c0-1.2,0.2-2.3,0.7-3.3c0.5-1,1.1-2,2-2.7c0.9-0.8,2-1.4,3.3-1.9
				c1.3-0.5,2.9-0.7,4.6-0.7c1.9,0,3.7,0.3,5.3,1c1.6,0.6,2.9,1.5,4,2.5L523.5,99.9z"/>
		</g>
	</g>
	<path class="st0" d="M734.3-0.1H158.5v0h-8.3H8.1h-8.3v8.3v142.1v8.3h8.3H150v0h8.3h576h8.3v-8.3V8.2v-8.3H734.3z M84.9,133.5H64.8
		v-20.2h20.2V133.5z M84.8,84.9v11.9h-20V66.6h10c6,0,10.9-4.9,10.9-10.9s-4.9-10.9-10.9-10.9c-3.2,0-5.5,1.3-6.8,2.4L55.5,31.6
		c5.5-4.4,12.3-6.8,19.3-6.8c17,0,30.9,13.9,30.9,30.9C105.7,69.2,97,80.8,84.8,84.9z M734.3,150.2H158.5v0V8.2h575.8V150.2z"/>
</g>
</svg>
