<?xml version="1.0" encoding="utf-8"?>
<!-- Generator: Adobe Illustrator 27.2.0, SVG Export Plug-In . SVG Version: 6.00 Build 0)  -->
<svg version="1.1" id="Layer_1" xmlns="http://www.w3.org/2000/svg" xmlns:xlink="http://www.w3.org/1999/xlink" x="0px" y="0px"
	 viewBox="0 0 742.4 158.4" style="enable-background:new 0 0 742.4 158.4;" xml:space="preserve">
<style type="text/css">
	.st0{fill:#2F5014;}
</style>
<g>
	<path class="st0" d="M734.5-0.2H158.6v0h-8.1H8.4H0.2V8V150v8.1h8.1h142.1h8.1v0h575.9h8.1V150V8v-8.1H734.5z M73.5,123L30,83.2
		l13.5-14.8L70,92.7l43.2-63.2l16.5,11.3L73.5,123z M734.5,150H158.6v0V8h575.9V150z"/>
	<g>
		<g>
			<path class="st0" d="M202.6,27.6c2.7,0,5,0.3,6.9,0.9c1.9,0.6,3.5,1.5,4.8,2.6c1.3,1.1,2.2,2.5,2.8,4c0.6,1.6,0.9,3.3,0.9,5.1
				c0,1.9-0.3,3.7-1,5.3c-0.6,1.6-1.6,3-2.9,4.1c-1.3,1.2-2.9,2.1-4.8,2.7c-1.9,0.6-4.2,1-6.8,1h-5.5v14h-7.4V27.6H202.6z
				 M202.6,47.6c1.4,0,2.5-0.2,3.5-0.5c1-0.3,1.8-0.8,2.5-1.5c0.7-0.6,1.2-1.4,1.5-2.3s0.5-1.9,0.5-3c0-1.1-0.2-2-0.5-2.9
				c-0.3-0.9-0.8-1.6-1.5-2.2c-0.7-0.6-1.5-1.1-2.5-1.4c-1-0.3-2.2-0.5-3.6-0.5h-5.5v14.3H202.6z"/>
		</g>
		<g>
			<path class="st0" d="M234.4,38.7c2.1,0,4,0.3,5.7,1c1.7,0.7,3.2,1.6,4.4,2.9c1.2,1.2,2.2,2.8,2.8,4.6c0.7,1.8,1,3.8,1,6
				c0,2.2-0.3,4.3-1,6c-0.7,1.8-1.6,3.3-2.8,4.6c-1.2,1.3-2.7,2.2-4.4,2.9c-1.7,0.7-3.6,1-5.7,1c-2.1,0-4-0.3-5.7-1
				c-1.7-0.7-3.2-1.6-4.4-2.9c-1.2-1.3-2.2-2.8-2.8-4.6c-0.7-1.8-1-3.8-1-6c0-2.2,0.3-4.2,1-6c0.7-1.8,1.6-3.3,2.8-4.6
				c1.2-1.2,2.7-2.2,4.4-2.9C230.3,39.1,232.3,38.7,234.4,38.7z M234.4,62.6c2.3,0,4.1-0.8,5.2-2.4c1.1-1.6,1.7-3.9,1.7-6.9
				s-0.6-5.4-1.7-7c-1.1-1.6-2.9-2.4-5.2-2.4c-2.4,0-4.1,0.8-5.3,2.4c-1.1,1.6-1.7,3.9-1.7,6.9s0.6,5.3,1.7,6.9
				C230.2,61.8,232,62.6,234.4,62.6z"/>
		</g>
		<g>
			<path class="st0" d="M262.9,67.8c-2.5,0-4.3-0.7-5.7-2.1c-1.3-1.4-2-3.3-2-5.7V44.3h-2.9c-0.4,0-0.7-0.1-0.9-0.4
				c-0.3-0.2-0.4-0.6-0.4-1.1v-2.7l4.5-0.7l1.4-7.7c0.1-0.4,0.3-0.7,0.5-0.9c0.3-0.2,0.6-0.3,1-0.3h3.5v8.9h7.5v4.8h-7.5v15.3
				c0,0.9,0.2,1.6,0.6,2.1c0.4,0.5,1,0.7,1.8,0.7c0.4,0,0.8-0.1,1.1-0.2c0.3-0.1,0.5-0.2,0.7-0.3s0.4-0.2,0.6-0.3
				c0.2-0.1,0.3-0.2,0.5-0.2c0.2,0,0.4,0.1,0.5,0.2c0.1,0.1,0.3,0.3,0.4,0.5l2,3.3c-1,0.8-2.1,1.4-3.4,1.9S264.3,67.8,262.9,67.8z"
				/>
		</g>
		<g>
			<path class="st0" d="M279.5,54.1c0.1,1.4,0.4,2.7,0.8,3.8c0.4,1.1,0.9,1.9,1.6,2.6s1.4,1.2,2.4,1.5c0.9,0.3,1.9,0.5,3,0.5
				c1.1,0,2-0.1,2.8-0.4c0.8-0.3,1.5-0.5,2.1-0.9c0.6-0.3,1.1-0.6,1.6-0.9c0.4-0.3,0.9-0.4,1.3-0.4c0.6,0,1,0.2,1.3,0.6l2,2.5
				c-0.8,0.9-1.6,1.6-2.5,2.2c-0.9,0.6-1.9,1.1-2.9,1.4s-2.1,0.6-3.1,0.8s-2.1,0.2-3.1,0.2c-2,0-3.8-0.3-5.5-1
				c-1.7-0.7-3.2-1.6-4.4-2.9c-1.2-1.3-2.2-2.9-2.9-4.7c-0.7-1.9-1.1-4.1-1.1-6.5c0-1.9,0.3-3.7,0.9-5.4s1.5-3.2,2.7-4.4
				c1.2-1.3,2.6-2.2,4.3-3c1.7-0.7,3.6-1.1,5.7-1.1c1.8,0,3.4,0.3,4.9,0.9c1.5,0.6,2.8,1.4,3.9,2.5c1.1,1.1,1.9,2.4,2.5,4
				s0.9,3.4,0.9,5.4c0,1-0.1,1.7-0.3,2.1s-0.6,0.5-1.3,0.5H279.5z M292.5,50c0-0.9-0.1-1.7-0.4-2.5c-0.2-0.8-0.6-1.5-1.1-2
				s-1.1-1-1.9-1.4c-0.8-0.3-1.6-0.5-2.7-0.5c-2,0-3.5,0.6-4.6,1.7c-1.1,1.1-1.8,2.7-2.2,4.8H292.5z"/>
		</g>
		<g>
			<path class="st0" d="M310.5,42.6c0.6-0.6,1.2-1.1,1.8-1.6s1.3-0.9,2-1.2c0.7-0.3,1.5-0.6,2.3-0.8s1.7-0.3,2.6-0.3
				c1.5,0,2.9,0.3,4.1,0.8c1.2,0.5,2.2,1.3,3,2.2c0.8,0.9,1.4,2.1,1.8,3.4c0.4,1.3,0.6,2.8,0.6,4.3v18H322v-18c0-1.7-0.4-3.1-1.2-4
				c-0.8-0.9-2-1.4-3.6-1.4c-1.2,0-2.3,0.3-3.3,0.8c-1,0.5-2,1.3-2.9,2.2v20.4h-6.8V39.2h4.2c0.9,0,1.5,0.4,1.7,1.2L310.5,42.6z"/>
		</g>
		<g>
			<path class="st0" d="M363.8,67.4H357V44.3H344v15.3c0,0.9,0.2,1.6,0.6,2.1c0.4,0.5,1,0.7,1.8,0.7c0.4,0,0.8-0.1,1.1-0.2
				c0.3-0.1,0.5-0.2,0.7-0.3s0.4-0.2,0.6-0.3c0.2-0.1,0.3-0.2,0.5-0.2c0.2,0,0.4,0.1,0.5,0.2c0.1,0.1,0.3,0.3,0.4,0.5l2,3.3
				c-1,0.8-2.1,1.4-3.4,1.9s-2.6,0.6-4,0.6c-2.5,0-4.3-0.7-5.7-2.1c-1.3-1.4-2-3.3-2-5.7V44.3h-2.9c-0.4,0-0.7-0.1-0.9-0.4
				c-0.3-0.2-0.4-0.6-0.4-1.1v-2.7l4.5-0.8l1.4-7.7c0.1-0.4,0.3-0.7,0.5-0.9c0.3-0.2,0.6-0.3,1-0.3h3.5v8.9h19.9V67.4z M365,30.8
				c0,0.6-0.1,1.1-0.4,1.7s-0.6,1-0.9,1.4s-0.9,0.7-1.4,0.9c-0.5,0.2-1.1,0.3-1.7,0.3c-0.6,0-1.1-0.1-1.6-0.3
				c-0.5-0.2-1-0.5-1.3-0.9s-0.7-0.8-0.9-1.4s-0.3-1.1-0.3-1.7c0-0.6,0.1-1.2,0.3-1.7c0.2-0.5,0.5-1,0.9-1.4
				c0.4-0.4,0.8-0.7,1.3-0.9c0.5-0.2,1.1-0.3,1.6-0.3c0.6,0,1.2,0.1,1.7,0.3c0.5,0.2,1,0.5,1.4,0.9c0.4,0.4,0.7,0.9,0.9,1.4
				C364.9,29.7,365,30.2,365,30.8z"/>
		</g>
		<g>
			<path class="st0" d="M370.7,43.1c3.2-3,7.1-4.5,11.7-4.5c1.6,0,3.1,0.3,4.4,0.8c1.3,0.5,2.4,1.3,3.3,2.3c0.9,1,1.6,2.1,2,3.5
				c0.5,1.3,0.7,2.8,0.7,4.4v17.8h-3.1c-0.6,0-1.1-0.1-1.5-0.3s-0.6-0.6-0.8-1.2l-0.6-2c-0.7,0.6-1.4,1.2-2.1,1.7
				c-0.7,0.5-1.4,0.9-2.1,1.2s-1.5,0.6-2.4,0.8c-0.8,0.2-1.8,0.3-2.8,0.3c-1.2,0-2.3-0.2-3.3-0.5c-1-0.3-1.9-0.8-2.6-1.4
				c-0.7-0.6-1.3-1.4-1.7-2.4c-0.4-1-0.6-2.1-0.6-3.3c0-0.7,0.1-1.4,0.4-2.1s0.6-1.4,1.2-2c0.5-0.6,1.2-1.2,2.1-1.8
				c0.9-0.6,1.9-1.1,3.2-1.5s2.7-0.8,4.4-1c1.7-0.3,3.6-0.4,5.7-0.5v-1.7c0-1.9-0.4-3.3-1.2-4.2s-2-1.4-3.5-1.4
				c-1.1,0-2,0.1-2.7,0.4c-0.7,0.3-1.4,0.5-1.9,0.9c-0.5,0.3-1,0.6-1.5,0.9c-0.4,0.3-0.9,0.4-1.5,0.4c-0.5,0-0.9-0.1-1.2-0.4
				c-0.3-0.2-0.6-0.5-0.8-0.9L370.7,43.1z M386.2,55.4c-2,0.1-3.6,0.3-5,0.5c-1.3,0.2-2.4,0.6-3.2,0.9c-0.8,0.4-1.4,0.8-1.7,1.3
				c-0.3,0.5-0.5,1.1-0.5,1.7c0,1.2,0.4,2,1.1,2.6c0.7,0.5,1.6,0.8,2.8,0.8c1.4,0,2.6-0.3,3.6-0.8c1-0.5,2-1.3,3-2.3V55.4z"/>
		</g>
		<g>
			<path class="st0" d="M406.7,26.5v40.9h-6.8V26.5H406.7z"/>
		</g>
		<g>
			<path class="st0" d="M437.3,67.8c-2.5,0-4.3-0.7-5.7-2.1c-1.3-1.4-2-3.3-2-5.7V44.3h-2.9c-0.4,0-0.7-0.1-0.9-0.4
				c-0.3-0.2-0.4-0.6-0.4-1.1v-2.7l4.5-0.7l1.4-7.7c0.1-0.4,0.3-0.7,0.5-0.9c0.3-0.2,0.6-0.3,1-0.3h3.5v8.9h7.5v4.8h-7.5v15.3
				c0,0.9,0.2,1.6,0.6,2.1c0.4,0.5,1,0.7,1.8,0.7c0.4,0,0.8-0.1,1.1-0.2c0.3-0.1,0.5-0.2,0.7-0.3s0.4-0.2,0.6-0.3
				c0.2-0.1,0.3-0.2,0.5-0.2c0.2,0,0.4,0.1,0.5,0.2c0.1,0.1,0.3,0.3,0.4,0.5l2,3.3c-1,0.8-2.1,1.4-3.4,1.9S438.7,67.8,437.3,67.8z"
				/>
		</g>
		<g>
			<path class="st0" d="M461.2,38.7c2.1,0,4,0.3,5.7,1c1.7,0.7,3.2,1.6,4.4,2.9c1.2,1.2,2.2,2.8,2.8,4.6c0.7,1.8,1,3.8,1,6
				c0,2.2-0.3,4.3-1,6c-0.7,1.8-1.6,3.3-2.8,4.6c-1.2,1.3-2.7,2.2-4.4,2.9c-1.7,0.7-3.6,1-5.7,1c-2.1,0-4-0.3-5.7-1
				c-1.7-0.7-3.2-1.6-4.4-2.9c-1.2-1.3-2.2-2.8-2.8-4.6c-0.7-1.8-1-3.8-1-6c0-2.2,0.3-4.2,1-6c0.7-1.8,1.6-3.3,2.8-4.6
				c1.2-1.2,2.7-2.2,4.4-2.9C457.2,39.1,459.1,38.7,461.2,38.7z M461.2,62.6c2.3,0,4.1-0.8,5.2-2.4c1.1-1.6,1.7-3.9,1.7-6.9
				s-0.6-5.4-1.7-7c-1.1-1.6-2.9-2.4-5.2-2.4c-2.4,0-4.1,0.8-5.3,2.4c-1.1,1.6-1.7,3.9-1.7,6.9s0.6,5.3,1.7,6.9
				C457,61.8,458.8,62.6,461.2,62.6z"/>
		</g>
		<g>
			<path class="st0" d="M225,102.5c0,2.9-0.5,5.6-1.5,8c-1,2.4-2.3,4.5-4.1,6.3c-1.8,1.8-3.9,3.1-6.4,4.1s-5.2,1.5-8.2,1.5h-15.2
				V82.6h15.2c3,0,5.8,0.5,8.2,1.5c2.5,1,4.6,2.3,6.4,4.1s3.1,3.8,4.1,6.3C224.5,96.9,225,99.6,225,102.5z M217.4,102.5
				c0-2.2-0.3-4.1-0.9-5.9s-1.4-3.2-2.5-4.4c-1.1-1.2-2.4-2.1-4-2.8c-1.5-0.6-3.3-1-5.2-1h-7.7v28h7.7c1.9,0,3.7-0.3,5.2-1
				c1.5-0.6,2.9-1.6,4-2.8c1.1-1.2,1.9-2.7,2.5-4.4C217.1,106.7,217.4,104.7,217.4,102.5z"/>
		</g>
		<g>
			<path class="st0" d="M235.8,109.1c0.1,1.4,0.4,2.7,0.8,3.8c0.4,1.1,0.9,1.9,1.6,2.6s1.4,1.2,2.4,1.5c0.9,0.3,1.9,0.5,3,0.5
				c1.1,0,2-0.1,2.8-0.4c0.8-0.3,1.5-0.5,2.1-0.9c0.6-0.3,1.1-0.6,1.6-0.9c0.4-0.3,0.9-0.4,1.3-0.4c0.6,0,1,0.2,1.3,0.6l2,2.5
				c-0.8,0.9-1.6,1.6-2.5,2.2c-0.9,0.6-1.9,1.1-2.9,1.4s-2.1,0.6-3.1,0.8s-2.1,0.2-3.1,0.2c-2,0-3.8-0.3-5.5-1
				c-1.7-0.7-3.2-1.6-4.4-2.9c-1.2-1.3-2.2-2.9-2.9-4.7c-0.7-1.9-1.1-4.1-1.1-6.5c0-1.9,0.3-3.7,0.9-5.4s1.5-3.2,2.7-4.4
				c1.2-1.3,2.6-2.2,4.3-3c1.7-0.7,3.6-1.1,5.7-1.1c1.8,0,3.4,0.3,4.9,0.9c1.5,0.6,2.8,1.4,3.9,2.5c1.1,1.1,1.9,2.4,2.5,4
				s0.9,3.4,0.9,5.4c0,1-0.1,1.7-0.3,2.1s-0.6,0.5-1.3,0.5H235.8z M248.8,105c0-0.9-0.1-1.7-0.4-2.5c-0.2-0.8-0.6-1.5-1.1-2
				s-1.1-1-1.9-1.4c-0.8-0.3-1.6-0.5-2.7-0.5c-2,0-3.5,0.6-4.6,1.7c-1.1,1.1-1.8,2.7-2.2,4.8H248.8z"/>
		</g>
		<g>
			<path class="st0" d="M280.7,100.1c-0.2,0.3-0.4,0.5-0.6,0.6c-0.2,0.1-0.5,0.2-0.8,0.2c-0.3,0-0.7-0.1-1-0.3s-0.7-0.4-1.2-0.7
				c-0.5-0.3-1-0.5-1.6-0.7c-0.6-0.2-1.4-0.3-2.4-0.3c-1.2,0-2.2,0.2-3.1,0.6c-0.9,0.4-1.6,1-2.2,1.9c-0.6,0.8-1,1.8-1.3,2.9
				c-0.3,1.1-0.4,2.4-0.4,3.9c0,1.5,0.2,2.8,0.5,4c0.3,1.2,0.8,2.2,1.4,3c0.6,0.8,1.3,1.4,2.2,1.8c0.9,0.4,1.8,0.6,2.9,0.6
				c1.1,0,2-0.1,2.6-0.4s1.2-0.6,1.7-0.9c0.5-0.3,0.9-0.6,1.2-0.9c0.3-0.3,0.7-0.4,1.1-0.4c0.5,0,1,0.2,1.2,0.6l2,2.5
				c-0.8,0.9-1.6,1.6-2.4,2.2c-0.9,0.6-1.8,1.1-2.7,1.4s-1.9,0.6-2.9,0.8s-2,0.2-3,0.2c-1.7,0-3.4-0.3-4.9-1s-2.9-1.6-4-2.8
				c-1.2-1.2-2.1-2.8-2.7-4.6c-0.7-1.8-1-3.9-1-6.2c0-2.1,0.3-4,0.9-5.8c0.6-1.8,1.5-3.3,2.6-4.6c1.2-1.3,2.6-2.3,4.3-3
				s3.7-1.1,5.9-1.1c2.1,0,4,0.3,5.5,1c1.6,0.7,3,1.7,4.3,2.9L280.7,100.1z"/>
		</g>
		<g>
			<path class="st0" d="M294,99.1c0.9-1.7,1.9-3,3.1-4c1.2-1,2.6-1.4,4.3-1.4c1.3,0,2.3,0.3,3.1,0.9l-0.4,5.1
				c-0.1,0.3-0.2,0.6-0.4,0.7c-0.2,0.1-0.4,0.2-0.7,0.2c-0.3,0-0.7,0-1.2-0.1s-1.1-0.1-1.6-0.1c-0.8,0-1.4,0.1-2,0.3
				s-1.1,0.5-1.6,0.9c-0.5,0.4-0.9,0.9-1.2,1.5c-0.4,0.6-0.7,1.3-1,2v17.4h-6.8V94.2h4c0.7,0,1.2,0.1,1.5,0.4
				c0.3,0.2,0.5,0.7,0.5,1.3L294,99.1z"/>
		</g>
		<g>
			<path class="st0" d="M313.1,109.1c0.1,1.4,0.4,2.7,0.8,3.8c0.4,1.1,0.9,1.9,1.6,2.6s1.4,1.2,2.4,1.5c0.9,0.3,1.9,0.5,3,0.5
				c1.1,0,2-0.1,2.8-0.4c0.8-0.3,1.5-0.5,2.1-0.9c0.6-0.3,1.1-0.6,1.6-0.9c0.4-0.3,0.9-0.4,1.3-0.4c0.6,0,1,0.2,1.3,0.6l2,2.5
				c-0.8,0.9-1.6,1.6-2.5,2.2c-0.9,0.6-1.9,1.1-2.9,1.4s-2.1,0.6-3.1,0.8s-2.1,0.2-3.1,0.2c-2,0-3.8-0.3-5.5-1
				c-1.7-0.7-3.2-1.6-4.4-2.9c-1.2-1.3-2.2-2.9-2.9-4.7c-0.7-1.9-1.1-4.1-1.1-6.5c0-1.9,0.3-3.7,0.9-5.4s1.5-3.2,2.7-4.4
				c1.2-1.3,2.6-2.2,4.3-3c1.7-0.7,3.6-1.1,5.7-1.1c1.8,0,3.4,0.3,4.9,0.9c1.5,0.6,2.8,1.4,3.9,2.5c1.1,1.1,1.9,2.4,2.5,4
				s0.9,3.4,0.9,5.4c0,1-0.1,1.7-0.3,2.1s-0.6,0.5-1.3,0.5H313.1z M326,105c0-0.9-0.1-1.7-0.4-2.5c-0.2-0.8-0.6-1.5-1.1-2
				s-1.1-1-1.9-1.4c-0.8-0.3-1.6-0.5-2.7-0.5c-2,0-3.5,0.6-4.6,1.7c-1.1,1.1-1.8,2.7-2.2,4.8H326z"/>
		</g>
		<g>
			<path class="st0" d="M337.1,98.1c3.2-3,7.1-4.5,11.7-4.5c1.6,0,3.1,0.3,4.4,0.8c1.3,0.5,2.4,1.3,3.3,2.3c0.9,1,1.6,2.1,2,3.5
				c0.5,1.3,0.7,2.8,0.7,4.4v17.8h-3.1c-0.6,0-1.1-0.1-1.5-0.3s-0.6-0.6-0.8-1.2l-0.6-2c-0.7,0.6-1.4,1.2-2.1,1.7
				c-0.7,0.5-1.4,0.9-2.1,1.2s-1.5,0.6-2.4,0.8c-0.8,0.2-1.8,0.3-2.8,0.3c-1.2,0-2.3-0.2-3.3-0.5c-1-0.3-1.9-0.8-2.6-1.4
				c-0.7-0.6-1.3-1.4-1.7-2.4c-0.4-1-0.6-2.1-0.6-3.3c0-0.7,0.1-1.4,0.4-2.1s0.6-1.4,1.2-2c0.5-0.6,1.2-1.2,2.1-1.8
				c0.9-0.6,1.9-1.1,3.2-1.5s2.7-0.8,4.4-1c1.7-0.3,3.6-0.4,5.7-0.5v-1.7c0-1.9-0.4-3.3-1.2-4.2s-2-1.4-3.5-1.4
				c-1.1,0-2,0.1-2.7,0.4c-0.7,0.3-1.4,0.5-1.9,0.9c-0.5,0.3-1,0.6-1.5,0.9c-0.4,0.3-0.9,0.4-1.5,0.4c-0.5,0-0.9-0.1-1.2-0.4
				c-0.3-0.2-0.6-0.5-0.8-0.9L337.1,98.1z M352.7,110.4c-2,0.1-3.6,0.3-5,0.5c-1.3,0.2-2.4,0.6-3.2,0.9c-0.8,0.4-1.4,0.8-1.7,1.3
				c-0.3,0.5-0.5,1.1-0.5,1.7c0,1.2,0.4,2,1.1,2.6c0.7,0.5,1.6,0.8,2.8,0.8c1.4,0,2.6-0.3,3.6-0.8c1-0.5,2-1.3,3-2.3V110.4z"/>
		</g>
		<g>
			<path class="st0" d="M383.4,99.7c-0.2,0.3-0.4,0.5-0.6,0.6c-0.2,0.1-0.5,0.2-0.8,0.2c-0.3,0-0.7-0.1-1.1-0.3
				c-0.4-0.2-0.8-0.4-1.3-0.6c-0.5-0.2-1.1-0.4-1.7-0.6c-0.6-0.2-1.4-0.3-2.2-0.3c-1.3,0-2.4,0.3-3.1,0.9s-1.1,1.3-1.1,2.2
				c0,0.6,0.2,1.1,0.6,1.5c0.4,0.4,0.9,0.8,1.6,1.1c0.7,0.3,1.4,0.6,2.2,0.8c0.8,0.2,1.7,0.5,2.5,0.8s1.7,0.6,2.5,1s1.6,0.9,2.2,1.4
				c0.7,0.6,1.2,1.3,1.6,2.1c0.4,0.8,0.6,1.8,0.6,2.9c0,1.4-0.2,2.6-0.7,3.8s-1.2,2.1-2.2,3c-1,0.8-2.1,1.5-3.5,2
				c-1.4,0.5-3,0.7-4.9,0.7c-1,0-1.9-0.1-2.8-0.3c-0.9-0.2-1.8-0.4-2.7-0.7s-1.6-0.7-2.4-1.1c-0.7-0.4-1.4-0.9-1.9-1.4l1.6-2.6
				c0.2-0.3,0.4-0.5,0.7-0.7c0.3-0.2,0.6-0.2,1-0.2s0.8,0.1,1.2,0.4s0.8,0.5,1.3,0.8c0.5,0.3,1.1,0.5,1.7,0.8
				c0.7,0.2,1.5,0.4,2.5,0.4c0.8,0,1.5-0.1,2.1-0.3c0.6-0.2,1.1-0.4,1.4-0.8s0.7-0.7,0.8-1.1c0.2-0.4,0.3-0.8,0.3-1.3
				c0-0.7-0.2-1.2-0.6-1.6c-0.4-0.4-0.9-0.8-1.6-1.1c-0.7-0.3-1.4-0.6-2.2-0.8c-0.8-0.2-1.7-0.5-2.6-0.8c-0.9-0.3-1.7-0.6-2.6-1
				s-1.6-0.9-2.2-1.5c-0.7-0.6-1.2-1.3-1.6-2.2s-0.6-1.9-0.6-3.2c0-1.2,0.2-2.3,0.7-3.3c0.5-1,1.1-2,2-2.7c0.9-0.8,2-1.4,3.3-1.9
				c1.3-0.5,2.9-0.7,4.6-0.7c1.9,0,3.7,0.3,5.3,1c1.6,0.6,2.9,1.5,4,2.5L383.4,99.7z"/>
		</g>
		<g>
			<path class="st0" d="M396.2,109.1c0.1,1.4,0.4,2.7,0.8,3.8c0.4,1.1,0.9,1.9,1.6,2.6s1.4,1.2,2.4,1.5c0.9,0.3,1.9,0.5,3,0.5
				c1.1,0,2-0.1,2.8-0.4c0.8-0.3,1.5-0.5,2.1-0.9c0.6-0.3,1.1-0.6,1.6-0.9c0.4-0.3,0.9-0.4,1.3-0.4c0.6,0,1,0.2,1.3,0.6l2,2.5
				c-0.8,0.9-1.6,1.6-2.5,2.2c-0.9,0.6-1.9,1.1-2.9,1.4s-2.1,0.6-3.1,0.8s-2.1,0.2-3.1,0.2c-2,0-3.8-0.3-5.5-1
				c-1.7-0.7-3.2-1.6-4.4-2.9c-1.2-1.3-2.2-2.9-2.9-4.7c-0.7-1.9-1.1-4.1-1.1-6.5c0-1.9,0.3-3.7,0.9-5.4s1.5-3.2,2.7-4.4
				c1.2-1.3,2.6-2.2,4.3-3c1.7-0.7,3.6-1.1,5.7-1.1c1.8,0,3.4,0.3,4.9,0.9c1.5,0.6,2.8,1.4,3.9,2.5c1.1,1.1,1.9,2.4,2.5,4
				s0.9,3.4,0.9,5.4c0,1-0.1,1.7-0.3,2.1s-0.6,0.5-1.3,0.5H396.2z M409.1,105c0-0.9-0.1-1.7-0.4-2.5c-0.2-0.8-0.6-1.5-1.1-2
				s-1.1-1-1.9-1.4c-0.8-0.3-1.6-0.5-2.7-0.5c-2,0-3.5,0.6-4.6,1.7c-1.1,1.1-1.8,2.7-2.2,4.8H409.1z"/>
		</g>
		<g>
			<path class="st0" d="M471.2,102.5c0,2.9-0.5,5.6-1.5,8c-1,2.4-2.3,4.5-4.1,6.3c-1.8,1.8-3.9,3.1-6.4,4.1s-5.2,1.5-8.2,1.5h-15.2
				V82.6H451c3,0,5.8,0.5,8.2,1.5c2.5,1,4.6,2.3,6.4,4.1s3.1,3.8,4.1,6.3C470.7,96.9,471.2,99.6,471.2,102.5z M463.6,102.5
				c0-2.2-0.3-4.1-0.9-5.9s-1.4-3.2-2.5-4.4c-1.1-1.2-2.4-2.1-4-2.8c-1.5-0.6-3.3-1-5.2-1h-7.7v28h7.7c1.9,0,3.7-0.3,5.2-1
				c1.5-0.6,2.9-1.6,4-2.8c1.1-1.2,1.9-2.7,2.5-4.4C463.3,106.7,463.6,104.7,463.6,102.5z"/>
		</g>
		<g>
			<path class="st0" d="M484.7,86c0,0.6-0.1,1.1-0.4,1.7c-0.2,0.5-0.6,1-0.9,1.3c-0.4,0.4-0.9,0.7-1.4,0.9c-0.5,0.2-1.1,0.3-1.7,0.3
				c-0.6,0-1.1-0.1-1.7-0.3s-1-0.5-1.4-0.9c-0.4-0.4-0.7-0.8-0.9-1.3c-0.2-0.5-0.3-1.1-0.3-1.7c0-0.6,0.1-1.2,0.3-1.7
				c0.2-0.5,0.5-1,0.9-1.4c0.4-0.4,0.8-0.7,1.4-0.9s1.1-0.3,1.7-0.3c0.6,0,1.2,0.1,1.7,0.3c0.5,0.2,1,0.5,1.4,0.9s0.7,0.8,0.9,1.4
				C484.6,84.8,484.7,85.4,484.7,86z M483.7,94.2v28.2h-6.8V94.2H483.7z"/>
		</g>
		<g>
			<path class="st0" d="M508.4,99.7c-0.2,0.3-0.4,0.5-0.6,0.6c-0.2,0.1-0.5,0.2-0.8,0.2c-0.3,0-0.7-0.1-1.1-0.3
				c-0.4-0.2-0.8-0.4-1.3-0.6c-0.5-0.2-1.1-0.4-1.7-0.6c-0.6-0.2-1.4-0.3-2.2-0.3c-1.3,0-2.4,0.3-3.1,0.9s-1.1,1.3-1.1,2.2
				c0,0.6,0.2,1.1,0.6,1.5c0.4,0.4,0.9,0.8,1.6,1.1c0.7,0.3,1.4,0.6,2.2,0.8c0.8,0.2,1.7,0.5,2.5,0.8s1.7,0.6,2.5,1s1.6,0.9,2.2,1.4
				c0.7,0.6,1.2,1.3,1.6,2.1c0.4,0.8,0.6,1.8,0.6,2.9c0,1.4-0.2,2.6-0.7,3.8s-1.2,2.1-2.2,3c-1,0.8-2.1,1.5-3.5,2
				c-1.4,0.5-3,0.7-4.9,0.7c-1,0-1.9-0.1-2.8-0.3c-0.9-0.2-1.8-0.4-2.7-0.7s-1.6-0.7-2.4-1.1c-0.7-0.4-1.4-0.9-1.9-1.4l1.6-2.6
				c0.2-0.3,0.4-0.5,0.7-0.7c0.3-0.2,0.6-0.2,1-0.2s0.8,0.1,1.2,0.4s0.8,0.5,1.3,0.8c0.5,0.3,1.1,0.5,1.7,0.8
				c0.7,0.2,1.5,0.4,2.5,0.4c0.8,0,1.5-0.1,2.1-0.3c0.6-0.2,1.1-0.4,1.4-0.8s0.7-0.7,0.8-1.1c0.2-0.4,0.3-0.8,0.3-1.3
				c0-0.7-0.2-1.2-0.6-1.6c-0.4-0.4-0.9-0.8-1.6-1.1c-0.7-0.3-1.4-0.6-2.2-0.8c-0.8-0.2-1.7-0.5-2.6-0.8c-0.9-0.3-1.7-0.6-2.6-1
				s-1.6-0.9-2.2-1.5c-0.7-0.6-1.2-1.3-1.6-2.2s-0.6-1.9-0.6-3.2c0-1.2,0.2-2.3,0.7-3.3c0.5-1,1.1-2,2-2.7c0.9-0.8,2-1.4,3.3-1.9
				c1.3-0.5,2.9-0.7,4.6-0.7c1.9,0,3.7,0.3,5.3,1c1.6,0.6,2.9,1.5,4,2.5L508.4,99.7z"/>
		</g>
		<g>
			<path class="st0" d="M522.4,98c1.2-1.3,2.5-2.4,3.9-3.2s3.2-1.2,5.2-1.2c1.5,0,2.9,0.3,4.2,1c1.3,0.6,2.4,1.6,3.3,2.8
				c0.9,1.2,1.6,2.7,2.1,4.5c0.5,1.8,0.8,3.8,0.8,6.1c0,2.1-0.3,4.1-0.9,5.9c-0.6,1.8-1.4,3.4-2.4,4.7c-1.1,1.3-2.3,2.4-3.8,3.1
				s-3.2,1.1-5,1.1c-1.6,0-2.9-0.2-4-0.7s-2.1-1.2-3-2v11.6h-6.8V94.2h4.2c0.9,0,1.5,0.4,1.7,1.2L522.4,98z M522.7,115.1
				c0.8,0.9,1.6,1.6,2.5,2c0.9,0.4,1.9,0.6,3,0.6c1,0,2-0.2,2.8-0.6s1.5-1,2.1-1.8c0.6-0.8,1-1.8,1.3-3c0.3-1.2,0.5-2.6,0.5-4.2
				c0-1.7-0.1-3-0.4-4.2c-0.3-1.1-0.6-2.1-1.1-2.8s-1.1-1.2-1.8-1.6S530,99,529.1,99c-1.4,0-2.6,0.3-3.6,0.9c-1,0.6-1.9,1.4-2.8,2.5
				V115.1z"/>
		</g>
		<g>
			<path class="st0" d="M547.1,98.1c3.2-3,7.1-4.5,11.7-4.5c1.6,0,3.1,0.3,4.4,0.8c1.3,0.5,2.4,1.3,3.3,2.3c0.9,1,1.6,2.1,2,3.5
				c0.5,1.3,0.7,2.8,0.7,4.4v17.8h-3.1c-0.6,0-1.1-0.1-1.5-0.3s-0.6-0.6-0.8-1.2l-0.6-2c-0.7,0.6-1.4,1.2-2.1,1.7
				c-0.7,0.5-1.4,0.9-2.1,1.2s-1.5,0.6-2.4,0.8c-0.8,0.2-1.8,0.3-2.8,0.3c-1.2,0-2.3-0.2-3.3-0.5c-1-0.3-1.9-0.8-2.6-1.4
				c-0.7-0.6-1.3-1.4-1.7-2.4c-0.4-1-0.6-2.1-0.6-3.3c0-0.7,0.1-1.4,0.4-2.1s0.6-1.4,1.2-2c0.5-0.6,1.2-1.2,2.1-1.8
				c0.9-0.6,1.9-1.1,3.2-1.5s2.7-0.8,4.4-1c1.7-0.3,3.6-0.4,5.7-0.5v-1.7c0-1.9-0.4-3.3-1.2-4.2s-2-1.4-3.5-1.4
				c-1.1,0-2,0.1-2.7,0.4c-0.7,0.3-1.4,0.5-1.9,0.9c-0.5,0.3-1,0.6-1.5,0.9c-0.4,0.3-0.9,0.4-1.5,0.4c-0.5,0-0.9-0.1-1.2-0.4
				c-0.3-0.2-0.6-0.5-0.8-0.9L547.1,98.1z M562.6,110.4c-2,0.1-3.6,0.3-5,0.5c-1.3,0.2-2.4,0.6-3.2,0.9c-0.8,0.4-1.4,0.8-1.7,1.3
				c-0.3,0.5-0.5,1.1-0.5,1.7c0,1.2,0.4,2,1.1,2.6c0.7,0.5,1.6,0.8,2.8,0.8c1.4,0,2.6-0.3,3.6-0.8c1-0.5,2-1.3,3-2.3V110.4z"/>
		</g>
		<g>
			<path class="st0" d="M582.6,99.1c0.9-1.7,1.9-3,3.1-4c1.2-1,2.6-1.4,4.3-1.4c1.3,0,2.3,0.3,3.1,0.9l-0.4,5.1
				c-0.1,0.3-0.2,0.6-0.4,0.7c-0.2,0.1-0.4,0.2-0.7,0.2c-0.3,0-0.7,0-1.2-0.1s-1.1-0.1-1.6-0.1c-0.8,0-1.4,0.1-2,0.3
				s-1.1,0.5-1.6,0.9c-0.5,0.4-0.9,0.9-1.2,1.5c-0.4,0.6-0.7,1.3-1,2v17.4h-6.8V94.2h4c0.7,0,1.2,0.1,1.5,0.4
				c0.3,0.2,0.5,0.7,0.5,1.3L582.6,99.1z"/>
		</g>
		<g>
			<path class="st0" d="M605.2,86c0,0.6-0.1,1.1-0.4,1.7c-0.2,0.5-0.6,1-0.9,1.3c-0.4,0.4-0.9,0.7-1.4,0.9c-0.5,0.2-1.1,0.3-1.7,0.3
				c-0.6,0-1.1-0.1-1.7-0.3s-1-0.5-1.4-0.9c-0.4-0.4-0.7-0.8-0.9-1.3c-0.2-0.5-0.3-1.1-0.3-1.7c0-0.6,0.1-1.2,0.3-1.7
				c0.2-0.5,0.5-1,0.9-1.4c0.4-0.4,0.8-0.7,1.4-0.9s1.1-0.3,1.7-0.3c0.6,0,1.2,0.1,1.7,0.3c0.5,0.2,1,0.5,1.4,0.9s0.7,0.8,0.9,1.4
				C605.1,84.8,605.2,85.4,605.2,86z M604.3,94.2v28.2h-6.8V94.2H604.3z"/>
		</g>
		<g>
			<path class="st0" d="M640.2,122.4h-6.8V99.3h-13.1v15.3c0,0.9,0.2,1.6,0.6,2.1c0.4,0.5,1,0.7,1.8,0.7c0.4,0,0.8-0.1,1.1-0.2
				c0.3-0.1,0.5-0.2,0.7-0.3s0.4-0.2,0.6-0.3c0.2-0.1,0.3-0.2,0.5-0.2c0.2,0,0.4,0.1,0.5,0.2c0.1,0.1,0.3,0.3,0.4,0.5l2,3.3
				c-1,0.8-2.1,1.4-3.4,1.9s-2.6,0.6-4,0.6c-2.5,0-4.3-0.7-5.7-2.1c-1.3-1.4-2-3.3-2-5.7V99.3h-2.9c-0.4,0-0.7-0.1-0.9-0.4
				c-0.3-0.2-0.4-0.6-0.4-1.1v-2.7l4.5-0.8l1.4-7.7c0.1-0.4,0.3-0.7,0.5-0.9c0.3-0.2,0.6-0.3,1-0.3h3.5v8.9h19.9V122.4z M641.4,85.8
				c0,0.6-0.1,1.1-0.4,1.7s-0.6,1-0.9,1.4s-0.9,0.7-1.4,0.9c-0.5,0.2-1.1,0.3-1.7,0.3c-0.6,0-1.1-0.1-1.6-0.3
				c-0.5-0.2-1-0.5-1.3-0.9s-0.7-0.8-0.9-1.4s-0.3-1.1-0.3-1.7c0-0.6,0.1-1.2,0.3-1.7c0.2-0.5,0.5-1,0.9-1.4
				c0.4-0.4,0.8-0.7,1.3-0.9c0.5-0.2,1.1-0.3,1.6-0.3c0.6,0,1.2,0.1,1.7,0.3c0.5,0.2,1,0.5,1.4,0.9c0.4,0.4,0.7,0.9,0.9,1.4
				C641.3,84.7,641.4,85.2,641.4,85.8z"/>
		</g>
		<g>
			<path class="st0" d="M652.9,109.1c0.1,1.4,0.4,2.7,0.8,3.8c0.4,1.1,0.9,1.9,1.6,2.6s1.4,1.2,2.4,1.5c0.9,0.3,1.9,0.5,3,0.5
				c1.1,0,2-0.1,2.8-0.4c0.8-0.3,1.5-0.5,2.1-0.9c0.6-0.3,1.1-0.6,1.6-0.9c0.4-0.3,0.9-0.4,1.3-0.4c0.6,0,1,0.2,1.3,0.6l2,2.5
				c-0.8,0.9-1.6,1.6-2.5,2.2c-0.9,0.6-1.9,1.1-2.9,1.4s-2.1,0.6-3.1,0.8s-2.1,0.2-3.1,0.2c-2,0-3.8-0.3-5.5-1
				c-1.7-0.7-3.2-1.6-4.4-2.9c-1.2-1.3-2.2-2.9-2.9-4.7c-0.7-1.9-1.1-4.1-1.1-6.5c0-1.9,0.3-3.7,0.9-5.4s1.5-3.2,2.7-4.4
				c1.2-1.3,2.6-2.2,4.3-3c1.7-0.7,3.6-1.1,5.7-1.1c1.8,0,3.4,0.3,4.9,0.9c1.5,0.6,2.8,1.4,3.9,2.5c1.1,1.1,1.9,2.4,2.5,4
				s0.9,3.4,0.9,5.4c0,1-0.1,1.7-0.3,2.1s-0.6,0.5-1.3,0.5H652.9z M665.9,105c0-0.9-0.1-1.7-0.4-2.5c-0.2-0.8-0.6-1.5-1.1-2
				s-1.1-1-1.9-1.4c-0.8-0.3-1.6-0.5-2.7-0.5c-2,0-3.5,0.6-4.6,1.7c-1.1,1.1-1.8,2.7-2.2,4.8H665.9z"/>
		</g>
		<g>
			<path class="st0" d="M694.9,99.7c-0.2,0.3-0.4,0.5-0.6,0.6c-0.2,0.1-0.5,0.2-0.8,0.2c-0.3,0-0.7-0.1-1.1-0.3
				c-0.4-0.2-0.8-0.4-1.3-0.6c-0.5-0.2-1.1-0.4-1.7-0.6c-0.6-0.2-1.4-0.3-2.2-0.3c-1.3,0-2.4,0.3-3.1,0.9s-1.1,1.3-1.1,2.2
				c0,0.6,0.2,1.1,0.6,1.5c0.4,0.4,0.9,0.8,1.6,1.1c0.7,0.3,1.4,0.6,2.2,0.8c0.8,0.2,1.7,0.5,2.5,0.8s1.7,0.6,2.5,1s1.6,0.9,2.2,1.4
				c0.7,0.6,1.2,1.3,1.6,2.1c0.4,0.8,0.6,1.8,0.6,2.9c0,1.4-0.2,2.6-0.7,3.8s-1.2,2.1-2.2,3c-1,0.8-2.1,1.5-3.5,2
				c-1.4,0.5-3,0.7-4.9,0.7c-1,0-1.9-0.1-2.8-0.3c-0.9-0.2-1.8-0.4-2.7-0.7s-1.6-0.7-2.4-1.1c-0.7-0.4-1.4-0.9-1.9-1.4l1.6-2.6
				c0.2-0.3,0.4-0.5,0.7-0.7c0.3-0.2,0.6-0.2,1-0.2s0.8,0.1,1.2,0.4s0.8,0.5,1.3,0.8c0.5,0.3,1.1,0.5,1.7,0.8
				c0.7,0.2,1.5,0.4,2.5,0.4c0.8,0,1.5-0.1,2.1-0.3c0.6-0.2,1.1-0.4,1.4-0.8s0.7-0.7,0.8-1.1c0.2-0.4,0.3-0.8,0.3-1.3
				c0-0.7-0.2-1.2-0.6-1.6c-0.4-0.4-0.9-0.8-1.6-1.1c-0.7-0.3-1.4-0.6-2.2-0.8c-0.8-0.2-1.7-0.5-2.6-0.8c-0.9-0.3-1.7-0.6-2.6-1
				s-1.6-0.9-2.2-1.5c-0.7-0.6-1.2-1.3-1.6-2.2s-0.6-1.9-0.6-3.2c0-1.2,0.2-2.3,0.7-3.3c0.5-1,1.1-2,2-2.7c0.9-0.8,2-1.4,3.3-1.9
				c1.3-0.5,2.9-0.7,4.6-0.7c1.9,0,3.7,0.3,5.3,1c1.6,0.6,2.9,1.5,4,2.5L694.9,99.7z"/>
		</g>
	</g>
</g>
</svg>
