<?xml version="1.0" encoding="utf-8"?>
<!-- Generator: Adobe Illustrator 27.2.0, SVG Export Plug-In . SVG Version: 6.00 Build 0)  -->
<svg version="1.1" id="Layer_1" xmlns="http://www.w3.org/2000/svg" xmlns:xlink="http://www.w3.org/1999/xlink" x="0px" y="0px"
	 viewBox="0 0 742.4 158.4" style="enable-background:new 0 0 742.4 158.4;" xml:space="preserve">
<style type="text/css">
	.st0{fill:#89AC33;}
</style>
<g>
	<g>
		<g>
			<path class="st0" d="M232.6,59.9v39.8H226V74c0-1,0.1-2.1,0.2-3.3l-12,22.6c-0.6,1.1-1.4,1.6-2.6,1.6h-1c-1.2,0-2-0.5-2.6-1.6
				l-12.2-22.7c0.1,0.6,0.1,1.2,0.1,1.8c0,0.6,0.1,1.1,0.1,1.6v25.7h-6.5V59.9h5.6c0.3,0,0.6,0,0.9,0s0.5,0.1,0.6,0.1
				c0.2,0.1,0.4,0.2,0.5,0.4s0.3,0.4,0.5,0.7l11.9,22.1c0.3,0.6,0.6,1.2,0.9,1.8s0.5,1.3,0.8,1.9c0.3-0.7,0.5-1.3,0.8-2
				c0.3-0.6,0.6-1.2,0.9-1.8l11.7-22c0.1-0.3,0.3-0.5,0.5-0.7c0.2-0.2,0.3-0.3,0.5-0.4s0.4-0.1,0.6-0.1s0.5,0,0.9,0H232.6z"/>
		</g>
		<g>
			<path class="st0" d="M248.5,63.2c0,0.6-0.1,1.1-0.4,1.7c-0.2,0.5-0.6,1-0.9,1.3c-0.4,0.4-0.9,0.7-1.4,0.9s-1.1,0.3-1.7,0.3
				c-0.6,0-1.1-0.1-1.7-0.3c-0.5-0.2-1-0.5-1.4-0.9c-0.4-0.4-0.7-0.8-0.9-1.3c-0.2-0.5-0.3-1.1-0.3-1.7c0-0.6,0.1-1.2,0.3-1.7
				c0.2-0.5,0.5-1,0.9-1.4s0.8-0.7,1.4-0.9c0.5-0.2,1.1-0.3,1.7-0.3c0.6,0,1.2,0.1,1.7,0.3s1,0.5,1.4,0.9s0.7,0.8,0.9,1.4
				C248.4,62.1,248.5,62.6,248.5,63.2z M247.5,71.5v28.2h-6.8V71.5H247.5z"/>
		</g>
		<g>
			<path class="st0" d="M280.2,99.7h-6.5c-0.5,0-0.9-0.1-1.2-0.4s-0.6-0.5-0.8-0.9l-6-9.8c-0.1,0.3-0.2,0.6-0.3,0.9
				c-0.1,0.3-0.3,0.5-0.4,0.8l-5.3,8.2c-0.2,0.3-0.4,0.6-0.7,0.9s-0.7,0.4-1.1,0.4h-6.1l9.7-14.5l-9.3-13.7h6.5
				c0.5,0,0.9,0.1,1.1,0.2c0.2,0.1,0.4,0.4,0.6,0.7l5.9,9.4c0.2-0.6,0.5-1.2,0.9-1.8l4.8-7.4c0.4-0.7,0.9-1,1.6-1h6.2l-9.3,13.4
				L280.2,99.7z"/>
		</g>
		<g>
			<path class="st0" d="M288.2,86.4c0.1,1.4,0.4,2.7,0.8,3.8c0.4,1.1,0.9,1.9,1.6,2.6s1.4,1.2,2.4,1.5s1.9,0.5,3,0.5
				c1.1,0,2-0.1,2.8-0.4s1.5-0.5,2.1-0.9s1.1-0.6,1.6-0.9c0.4-0.3,0.9-0.4,1.3-0.4c0.6,0,1,0.2,1.3,0.6l2,2.5
				c-0.8,0.9-1.6,1.6-2.5,2.2c-0.9,0.6-1.9,1.1-2.9,1.4s-2.1,0.6-3.1,0.8s-2.1,0.2-3.1,0.2c-2,0-3.8-0.3-5.5-1s-3.2-1.6-4.4-2.9
				s-2.2-2.9-2.9-4.7c-0.7-1.9-1.1-4.1-1.1-6.5c0-1.9,0.3-3.7,0.9-5.4s1.5-3.2,2.7-4.4s2.6-2.2,4.3-3c1.7-0.7,3.6-1.1,5.7-1.1
				c1.8,0,3.4,0.3,4.9,0.9c1.5,0.6,2.8,1.4,3.9,2.5c1.1,1.1,1.9,2.4,2.5,4c0.6,1.6,0.9,3.4,0.9,5.4c0,1-0.1,1.7-0.3,2.1
				c-0.2,0.4-0.6,0.5-1.3,0.5H288.2z M301.2,82.3c0-0.9-0.1-1.7-0.4-2.5s-0.6-1.5-1.1-2c-0.5-0.6-1.1-1-1.9-1.4
				c-0.8-0.3-1.6-0.5-2.7-0.5c-2,0-3.5,0.6-4.6,1.7c-1.1,1.1-1.8,2.7-2.2,4.8H301.2z"/>
		</g>
		<g>
			<path class="st0" d="M337.4,58.8v40.9h-4.2c-0.9,0-1.5-0.4-1.7-1.2l-0.6-2.7c-1.1,1.3-2.4,2.4-3.9,3.2s-3.2,1.2-5.2,1.2
				c-1.5,0-3-0.3-4.2-1s-2.4-1.6-3.3-2.8c-0.9-1.2-1.6-2.7-2.1-4.5c-0.5-1.8-0.8-3.8-0.8-6.2c0-2.1,0.3-4,0.9-5.8
				c0.6-1.8,1.4-3.4,2.4-4.7c1.1-1.3,2.3-2.4,3.8-3.1c1.5-0.7,3.2-1.1,5-1.1c1.6,0,2.9,0.2,4,0.7c1.1,0.5,2.1,1.2,3,2V58.8H337.4z
				 M330.7,78.7c-0.8-0.9-1.6-1.6-2.5-2c-0.9-0.4-1.9-0.6-2.9-0.6c-1,0-2,0.2-2.8,0.6c-0.8,0.4-1.5,1-2.1,1.7c-0.6,0.8-1,1.8-1.3,3
				c-0.3,1.2-0.5,2.6-0.5,4.2c0,1.7,0.1,3,0.4,4.2s0.6,2.1,1.1,2.8c0.5,0.7,1.1,1.2,1.8,1.6c0.7,0.3,1.5,0.5,2.4,0.5
				c1.4,0,2.6-0.3,3.6-0.9s1.9-1.4,2.8-2.5V78.7z"/>
		</g>
		<g>
			<path class="st0" d="M367.1,65.8v11H381v5.7h-13.9v11.2h17.7v5.9h-25.1V59.9h25.1v5.9H367.1z"/>
		</g>
		<g>
			<path class="st0" d="M415.3,71.5l-11.2,28.2h-6.2l-11.2-28.2h5.6c0.5,0,0.9,0.1,1.3,0.4c0.3,0.2,0.6,0.5,0.7,0.9l5.4,15.1
				c0.3,0.9,0.6,1.7,0.8,2.6c0.2,0.8,0.4,1.7,0.6,2.5c0.2-0.8,0.4-1.7,0.6-2.5c0.2-0.8,0.5-1.7,0.8-2.6l5.6-15.1
				c0.1-0.4,0.4-0.7,0.7-0.9c0.3-0.2,0.7-0.4,1.2-0.4H415.3z"/>
		</g>
		<g>
			<path class="st0" d="M427.4,63.2c0,0.6-0.1,1.1-0.4,1.7c-0.2,0.5-0.6,1-0.9,1.3c-0.4,0.4-0.9,0.7-1.4,0.9
				c-0.5,0.2-1.1,0.3-1.7,0.3c-0.6,0-1.1-0.1-1.7-0.3c-0.5-0.2-1-0.5-1.4-0.9c-0.4-0.4-0.7-0.8-0.9-1.3c-0.2-0.5-0.3-1.1-0.3-1.7
				c0-0.6,0.1-1.2,0.3-1.7c0.2-0.5,0.5-1,0.9-1.4c0.4-0.4,0.8-0.7,1.4-0.9c0.5-0.2,1.1-0.3,1.7-0.3c0.6,0,1.2,0.1,1.7,0.3
				c0.5,0.2,1,0.5,1.4,0.9s0.7,0.8,0.9,1.4C427.3,62.1,427.4,62.6,427.4,63.2z M426.5,71.5v28.2h-6.8V71.5H426.5z"/>
		</g>
		<g>
			<path class="st0" d="M458.4,58.8v40.9h-4.2c-0.9,0-1.5-0.4-1.7-1.2l-0.6-2.7c-1.1,1.3-2.4,2.4-3.9,3.2s-3.2,1.2-5.2,1.2
				c-1.5,0-3-0.3-4.2-1s-2.4-1.6-3.3-2.8c-0.9-1.2-1.6-2.7-2.1-4.5c-0.5-1.8-0.8-3.8-0.8-6.2c0-2.1,0.3-4,0.9-5.8
				c0.6-1.8,1.4-3.4,2.4-4.7c1.1-1.3,2.3-2.4,3.8-3.1c1.5-0.7,3.2-1.1,5-1.1c1.6,0,2.9,0.2,4,0.7c1.1,0.5,2.1,1.2,3,2V58.8H458.4z
				 M451.7,78.7c-0.8-0.9-1.6-1.6-2.5-2c-0.9-0.4-1.9-0.6-2.9-0.6c-1,0-2,0.2-2.8,0.6c-0.8,0.4-1.5,1-2.1,1.7c-0.6,0.8-1,1.8-1.3,3
				c-0.3,1.2-0.5,2.6-0.5,4.2c0,1.7,0.1,3,0.4,4.2s0.6,2.1,1.1,2.8c0.5,0.7,1.1,1.2,1.8,1.6c0.7,0.3,1.5,0.5,2.4,0.5
				c1.4,0,2.6-0.3,3.6-0.9s1.9-1.4,2.8-2.5V78.7z"/>
		</g>
		<g>
			<path class="st0" d="M470.9,86.4c0.1,1.4,0.4,2.7,0.8,3.8c0.4,1.1,0.9,1.9,1.6,2.6s1.4,1.2,2.4,1.5s1.9,0.5,3,0.5
				c1.1,0,2-0.1,2.8-0.4s1.5-0.5,2.1-0.9s1.1-0.6,1.6-0.9c0.4-0.3,0.9-0.4,1.3-0.4c0.6,0,1,0.2,1.3,0.6l2,2.5
				c-0.8,0.9-1.6,1.6-2.5,2.2c-0.9,0.6-1.9,1.1-2.9,1.4s-2.1,0.6-3.1,0.8s-2.1,0.2-3.1,0.2c-2,0-3.8-0.3-5.5-1s-3.2-1.6-4.4-2.9
				s-2.2-2.9-2.9-4.7c-0.7-1.9-1.1-4.1-1.1-6.5c0-1.9,0.3-3.7,0.9-5.4s1.5-3.2,2.7-4.4s2.6-2.2,4.3-3c1.7-0.7,3.6-1.1,5.7-1.1
				c1.8,0,3.4,0.3,4.9,0.9c1.5,0.6,2.8,1.4,3.9,2.5c1.1,1.1,1.9,2.4,2.5,4c0.6,1.6,0.9,3.4,0.9,5.4c0,1-0.1,1.7-0.3,2.1
				c-0.2,0.4-0.6,0.5-1.3,0.5H470.9z M483.9,82.3c0-0.9-0.1-1.7-0.4-2.5s-0.6-1.5-1.1-2c-0.5-0.6-1.1-1-1.9-1.4
				c-0.8-0.3-1.6-0.5-2.7-0.5c-2,0-3.5,0.6-4.6,1.7c-1.1,1.1-1.8,2.7-2.2,4.8H483.9z"/>
		</g>
		<g>
			<path class="st0" d="M502,74.9c0.6-0.6,1.2-1.1,1.8-1.6s1.3-0.9,2-1.2c0.7-0.3,1.5-0.6,2.3-0.8s1.7-0.3,2.6-0.3
				c1.5,0,2.9,0.3,4.1,0.8c1.2,0.5,2.2,1.3,3,2.2c0.8,0.9,1.4,2.1,1.8,3.4c0.4,1.3,0.6,2.8,0.6,4.3v18h-6.8v-18c0-1.7-0.4-3.1-1.2-4
				c-0.8-0.9-2-1.4-3.6-1.4c-1.2,0-2.3,0.3-3.3,0.8c-1,0.5-2,1.3-2.9,2.2v20.4h-6.8V71.5h4.2c0.9,0,1.5,0.4,1.7,1.2L502,74.9z"/>
		</g>
		<g>
			<path class="st0" d="M547.4,77.4c-0.2,0.3-0.4,0.5-0.6,0.6c-0.2,0.1-0.5,0.2-0.8,0.2c-0.3,0-0.7-0.1-1-0.3s-0.7-0.4-1.2-0.7
				c-0.5-0.3-1-0.5-1.6-0.7c-0.6-0.2-1.4-0.3-2.4-0.3c-1.2,0-2.2,0.2-3.1,0.6s-1.6,1-2.2,1.9c-0.6,0.8-1,1.8-1.3,2.9
				c-0.3,1.1-0.4,2.4-0.4,3.9c0,1.5,0.2,2.8,0.5,4c0.3,1.2,0.8,2.2,1.4,3c0.6,0.8,1.3,1.4,2.2,1.8c0.9,0.4,1.8,0.6,2.9,0.6
				c1.1,0,2-0.1,2.6-0.4c0.7-0.3,1.2-0.6,1.7-0.9c0.5-0.3,0.9-0.6,1.2-0.9c0.3-0.3,0.7-0.4,1.1-0.4c0.6,0,1,0.2,1.2,0.6l2,2.5
				c-0.8,0.9-1.6,1.6-2.4,2.2c-0.9,0.6-1.8,1.1-2.7,1.4c-0.9,0.4-1.9,0.6-2.9,0.8c-1,0.1-2,0.2-3,0.2c-1.7,0-3.4-0.3-4.9-1
				c-1.5-0.7-2.9-1.6-4-2.8c-1.2-1.2-2.1-2.8-2.7-4.6s-1-3.9-1-6.2c0-2.1,0.3-4,0.9-5.8c0.6-1.8,1.5-3.3,2.6-4.6
				c1.2-1.3,2.6-2.3,4.3-3s3.7-1.1,5.9-1.1c2.1,0,4,0.3,5.5,1c1.6,0.7,3,1.7,4.3,2.9L547.4,77.4z"/>
		</g>
		<g>
			<path class="st0" d="M559,86.4c0.1,1.4,0.4,2.7,0.8,3.8c0.4,1.1,0.9,1.9,1.6,2.6s1.4,1.2,2.3,1.5c0.9,0.3,1.9,0.5,3,0.5
				s2-0.1,2.8-0.4c0.8-0.3,1.5-0.5,2.1-0.9c0.6-0.3,1.1-0.6,1.6-0.9s0.9-0.4,1.3-0.4c0.6,0,1,0.2,1.3,0.6l2,2.5
				c-0.8,0.9-1.6,1.6-2.5,2.2c-0.9,0.6-1.9,1.1-2.9,1.4s-2.1,0.6-3.1,0.8s-2.1,0.2-3.1,0.2c-2,0-3.8-0.3-5.5-1
				c-1.7-0.7-3.2-1.6-4.4-2.9c-1.2-1.3-2.2-2.9-2.9-4.7c-0.7-1.9-1.1-4.1-1.1-6.5c0-1.9,0.3-3.7,0.9-5.4s1.5-3.2,2.7-4.4
				c1.2-1.3,2.6-2.2,4.3-3s3.6-1.1,5.7-1.1c1.8,0,3.4,0.3,4.9,0.9c1.5,0.6,2.8,1.4,3.9,2.5s1.9,2.4,2.5,4c0.6,1.6,0.9,3.4,0.9,5.4
				c0,1-0.1,1.7-0.3,2.1c-0.2,0.4-0.6,0.5-1.3,0.5H559z M571.9,82.3c0-0.9-0.1-1.7-0.4-2.5c-0.2-0.8-0.6-1.5-1.1-2
				c-0.5-0.6-1.1-1-1.9-1.4c-0.8-0.3-1.6-0.5-2.7-0.5c-2,0-3.5,0.6-4.6,1.7c-1.1,1.1-1.8,2.7-2.2,4.8H571.9z"/>
		</g>
	</g>
	<path class="st0" d="M734.3-0.1H158.5v0h-8.3H8.1h-8.3v8.3v142.1v8.3h8.3H150v0h8.3h576h8.3v-8.3V8.2v-8.3H734.3z M20.5,41h35.6
		l11.6,15.5L55.3,73.3L46.2,61H20.5V41z M117.1,128.2v-9.8H89.1l-11.9-15.9l12.5-16.7l9.4,12.6h18.1v-9.8l23,19.8L117.1,128.2z
		 M117.1,70.4v-9.8H99.1L56.2,118H20.5V98h25.6l42.9-57.4h28.1v-9.8l23,19.8L117.1,70.4z M734.3,150.2H158.5v0V8.2h575.8V150.2z"/>
</g>
</svg>
