<?xml version="1.0" encoding="utf-8"?>
<!-- Generator: Adobe Illustrator 27.2.0, SVG Export Plug-In . SVG Version: 6.00 Build 0)  -->
<svg version="1.1" id="Layer_1" xmlns="http://www.w3.org/2000/svg" xmlns:xlink="http://www.w3.org/1999/xlink" x="0px" y="0px"
	 viewBox="0 0 742.4 158.4" style="enable-background:new 0 0 742.4 158.4;" xml:space="preserve">
<style type="text/css">
	.st0{fill:#969696;}
</style>
<g>
	<g>
		<g>
			<path class="st0" d="M196.9,33.7v11h13.9v5.7h-13.9v11.2h17.7v5.9h-25.1V27.8h25.1v5.9H196.9z"/>
		</g>
		<g>
			<path class="st0" d="M245,39.4l-11.2,28.2h-6.2l-11.2-28.2h5.6c0.5,0,0.9,0.1,1.3,0.4c0.3,0.2,0.6,0.5,0.7,0.9l5.4,15.1
				c0.3,0.9,0.5,1.7,0.8,2.6c0.2,0.8,0.4,1.7,0.6,2.5c0.2-0.8,0.4-1.7,0.6-2.5c0.2-0.8,0.5-1.7,0.8-2.6l5.6-15.1
				c0.1-0.4,0.4-0.7,0.7-0.9c0.3-0.2,0.7-0.4,1.2-0.4H245z"/>
		</g>
		<g>
			<path class="st0" d="M257.1,31.2c0,0.6-0.1,1.1-0.4,1.7c-0.2,0.5-0.6,1-0.9,1.3c-0.4,0.4-0.9,0.7-1.4,0.9
				c-0.5,0.2-1.1,0.3-1.7,0.3c-0.6,0-1.1-0.1-1.7-0.3s-1-0.5-1.4-0.9c-0.4-0.4-0.7-0.8-0.9-1.3c-0.2-0.5-0.3-1.1-0.3-1.7
				c0-0.6,0.1-1.2,0.3-1.7c0.2-0.5,0.5-1,0.9-1.4c0.4-0.4,0.8-0.7,1.4-0.9s1.1-0.3,1.7-0.3c0.6,0,1.2,0.1,1.7,0.3
				c0.5,0.2,1,0.5,1.4,0.9c0.4,0.4,0.7,0.8,0.9,1.4C257,30,257.1,30.5,257.1,31.2z M256.2,39.4v28.2h-6.8V39.4H256.2z"/>
		</g>
		<g>
			<path class="st0" d="M288.2,26.7v40.9H284c-0.9,0-1.5-0.4-1.7-1.2l-0.6-2.7c-1.1,1.3-2.4,2.4-3.9,3.2c-1.5,0.8-3.2,1.2-5.2,1.2
				c-1.5,0-3-0.3-4.2-1s-2.4-1.6-3.3-2.8c-0.9-1.2-1.6-2.7-2.1-4.5c-0.5-1.8-0.8-3.8-0.8-6.2c0-2.1,0.3-4,0.9-5.8
				c0.6-1.8,1.4-3.4,2.4-4.7c1.1-1.3,2.3-2.4,3.8-3.1c1.5-0.7,3.2-1.1,5-1.1c1.6,0,2.9,0.2,4,0.7s2.1,1.2,3,2V26.7H288.2z
				 M281.4,46.6c-0.8-0.9-1.6-1.6-2.5-2S277,44,276,44c-1,0-2,0.2-2.8,0.6s-1.5,1-2.1,1.7c-0.6,0.8-1,1.8-1.3,3
				c-0.3,1.2-0.5,2.6-0.5,4.2c0,1.7,0.1,3,0.4,4.2s0.6,2.1,1.1,2.8c0.5,0.7,1.1,1.2,1.8,1.6c0.7,0.3,1.5,0.5,2.4,0.5
				c1.4,0,2.6-0.3,3.6-0.9s1.9-1.4,2.8-2.5V46.6z"/>
		</g>
		<g>
			<path class="st0" d="M300.7,54.3c0.1,1.4,0.4,2.7,0.8,3.8c0.4,1.1,0.9,1.9,1.6,2.6s1.4,1.2,2.4,1.5c0.9,0.3,1.9,0.5,3,0.5
				c1.1,0,2-0.1,2.8-0.4c0.8-0.3,1.5-0.5,2.1-0.9c0.6-0.3,1.1-0.6,1.6-0.9c0.4-0.3,0.9-0.4,1.3-0.4c0.6,0,1,0.2,1.3,0.6l2,2.5
				c-0.8,0.9-1.6,1.6-2.5,2.2c-0.9,0.6-1.9,1.1-2.9,1.4s-2.1,0.6-3.1,0.8s-2.1,0.2-3.1,0.2c-2,0-3.8-0.3-5.5-1
				c-1.7-0.7-3.2-1.6-4.4-2.9c-1.2-1.3-2.2-2.9-2.9-4.7c-0.7-1.9-1.1-4.1-1.1-6.5c0-1.9,0.3-3.7,0.9-5.4s1.5-3.2,2.7-4.4
				c1.2-1.3,2.6-2.2,4.3-3c1.7-0.7,3.6-1.1,5.7-1.1c1.8,0,3.4,0.3,4.9,0.9c1.5,0.6,2.8,1.4,3.9,2.5c1.1,1.1,1.9,2.4,2.5,4
				s0.9,3.4,0.9,5.4c0,1-0.1,1.7-0.3,2.1s-0.6,0.5-1.3,0.5H300.7z M313.6,50.2c0-0.9-0.1-1.7-0.4-2.5c-0.2-0.8-0.6-1.5-1.1-2
				s-1.1-1-1.9-1.4c-0.8-0.3-1.6-0.5-2.7-0.5c-2,0-3.5,0.6-4.6,1.7c-1.1,1.1-1.8,2.7-2.2,4.8H313.6z"/>
		</g>
		<g>
			<path class="st0" d="M331.7,42.8c0.6-0.6,1.2-1.1,1.8-1.6s1.3-0.9,2-1.2c0.7-0.3,1.5-0.6,2.3-0.8s1.7-0.3,2.6-0.3
				c1.5,0,2.9,0.3,4.1,0.8c1.2,0.5,2.2,1.3,3,2.2c0.8,0.9,1.4,2.1,1.8,3.4c0.4,1.3,0.6,2.8,0.6,4.3v18h-6.8v-18c0-1.7-0.4-3.1-1.2-4
				c-0.8-0.9-2-1.4-3.6-1.4c-1.2,0-2.3,0.3-3.3,0.8c-1,0.5-2,1.3-2.9,2.2v20.4h-6.8V39.4h4.2c0.9,0,1.5,0.4,1.7,1.2L331.7,42.8z"/>
		</g>
		<g>
			<path class="st0" d="M377.2,45.3c-0.2,0.3-0.4,0.5-0.6,0.6c-0.2,0.1-0.5,0.2-0.8,0.2c-0.3,0-0.7-0.1-1-0.3s-0.7-0.4-1.2-0.7
				c-0.5-0.3-1-0.5-1.6-0.7c-0.6-0.2-1.4-0.3-2.4-0.3c-1.2,0-2.2,0.2-3.1,0.6c-0.9,0.4-1.6,1-2.2,1.9c-0.6,0.8-1,1.8-1.3,2.9
				c-0.3,1.1-0.4,2.4-0.4,3.9c0,1.5,0.2,2.8,0.5,4c0.3,1.2,0.8,2.2,1.4,3c0.6,0.8,1.3,1.4,2.2,1.8c0.9,0.4,1.8,0.6,2.9,0.6
				c1.1,0,2-0.1,2.6-0.4s1.2-0.6,1.7-0.9c0.5-0.3,0.9-0.6,1.2-0.9c0.3-0.3,0.7-0.4,1.1-0.4c0.5,0,1,0.2,1.2,0.6l2,2.5
				c-0.8,0.9-1.6,1.6-2.4,2.2c-0.9,0.6-1.8,1.1-2.7,1.4s-1.9,0.6-2.9,0.8s-2,0.2-3,0.2c-1.7,0-3.4-0.3-4.9-1s-2.9-1.6-4-2.8
				c-1.2-1.2-2.1-2.8-2.7-4.6c-0.7-1.8-1-3.9-1-6.2c0-2.1,0.3-4,0.9-5.8c0.6-1.8,1.5-3.3,2.6-4.6c1.2-1.3,2.6-2.3,4.3-3
				s3.7-1.1,5.9-1.1c2.1,0,4,0.3,5.5,1c1.6,0.7,3,1.7,4.3,2.9L377.2,45.3z"/>
		</g>
		<g>
			<path class="st0" d="M388.7,54.3c0.1,1.4,0.4,2.7,0.8,3.8c0.4,1.1,0.9,1.9,1.6,2.6s1.4,1.2,2.4,1.5c0.9,0.3,1.9,0.5,3,0.5
				c1.1,0,2-0.1,2.8-0.4c0.8-0.3,1.5-0.5,2.1-0.9c0.6-0.3,1.1-0.6,1.6-0.9c0.4-0.3,0.9-0.4,1.3-0.4c0.6,0,1,0.2,1.3,0.6l2,2.5
				c-0.8,0.9-1.6,1.6-2.5,2.2c-0.9,0.6-1.9,1.1-2.9,1.4s-2.1,0.6-3.1,0.8s-2.1,0.2-3.1,0.2c-2,0-3.8-0.3-5.5-1
				c-1.7-0.7-3.2-1.6-4.4-2.9c-1.2-1.3-2.2-2.9-2.9-4.7c-0.7-1.9-1.1-4.1-1.1-6.5c0-1.9,0.3-3.7,0.9-5.4s1.5-3.2,2.7-4.4
				c1.2-1.3,2.6-2.2,4.3-3c1.7-0.7,3.6-1.1,5.7-1.1c1.8,0,3.4,0.3,4.9,0.9c1.5,0.6,2.8,1.4,3.9,2.5c1.1,1.1,1.9,2.4,2.5,4
				s0.9,3.4,0.9,5.4c0,1-0.1,1.7-0.3,2.1s-0.6,0.5-1.3,0.5H388.7z M401.7,50.2c0-0.9-0.1-1.7-0.4-2.5c-0.2-0.8-0.6-1.5-1.1-2
				s-1.1-1-1.9-1.4c-0.8-0.3-1.6-0.5-2.7-0.5c-2,0-3.5,0.6-4.6,1.7c-1.1,1.1-1.8,2.7-2.2,4.8H401.7z"/>
		</g>
		<g>
			<path class="st0" d="M439.8,38.9c2.1,0,4,0.3,5.7,1c1.7,0.7,3.2,1.6,4.4,2.9c1.2,1.2,2.2,2.8,2.8,4.6c0.7,1.8,1,3.8,1,6
				c0,2.2-0.3,4.3-1,6c-0.7,1.8-1.6,3.3-2.8,4.6c-1.2,1.3-2.7,2.2-4.4,2.9c-1.7,0.7-3.6,1-5.7,1c-2.1,0-4-0.3-5.7-1
				c-1.7-0.7-3.2-1.6-4.4-2.9c-1.2-1.3-2.2-2.8-2.8-4.6c-0.7-1.8-1-3.8-1-6c0-2.2,0.3-4.2,1-6c0.7-1.8,1.6-3.3,2.8-4.6
				c1.2-1.2,2.7-2.2,4.4-2.9C435.8,39.3,437.7,38.9,439.8,38.9z M439.8,62.8c2.3,0,4.1-0.8,5.2-2.4c1.1-1.6,1.7-3.9,1.7-6.9
				s-0.6-5.4-1.7-7c-1.1-1.6-2.9-2.4-5.2-2.4c-2.4,0-4.1,0.8-5.3,2.4c-1.1,1.6-1.7,3.9-1.7,6.9s0.6,5.3,1.7,6.9
				C435.7,62,437.4,62.8,439.8,62.8z"/>
		</g>
		<g>
			<path class="st0" d="M460.8,67.6V44.5l-2.4-0.4c-0.5-0.1-1-0.3-1.3-0.6c-0.3-0.3-0.5-0.6-0.5-1.1v-2.8h4.2v-2.1
				c0-1.6,0.2-3.1,0.7-4.3c0.5-1.3,1.2-2.4,2.1-3.3c0.9-0.9,2-1.6,3.3-2.1c1.3-0.5,2.8-0.7,4.4-0.7c1.3,0,2.5,0.2,3.6,0.5l-0.1,3.4
				c0,0.3-0.1,0.5-0.2,0.6c-0.1,0.2-0.3,0.3-0.5,0.4c-0.2,0.1-0.5,0.1-0.7,0.2c-0.3,0-0.6,0-0.9,0c-0.8,0-1.5,0.1-2.2,0.3
				c-0.6,0.2-1.2,0.5-1.6,0.9c-0.4,0.4-0.8,1-1,1.7c-0.2,0.7-0.3,1.6-0.3,2.6v1.9h7.3v4.8h-7.1v23.1H460.8z"/>
		</g>
		<g>
			<path class="st0" d="M196.9,122.6h-7.4V82.8h7.4V122.6z"/>
		</g>
		<g>
			<path class="st0" d="M211.2,97.8c0.6-0.6,1.2-1.1,1.8-1.6s1.3-0.9,2-1.2c0.7-0.3,1.5-0.6,2.3-0.8s1.7-0.3,2.6-0.3
				c1.5,0,2.9,0.3,4.1,0.8c1.2,0.5,2.2,1.3,3,2.2c0.8,0.9,1.4,2.1,1.8,3.4c0.4,1.3,0.6,2.8,0.6,4.3v18h-6.8v-18c0-1.7-0.4-3.1-1.2-4
				c-0.8-0.9-2-1.4-3.6-1.4c-1.2,0-2.3,0.3-3.3,0.8c-1,0.5-2,1.3-2.9,2.2v20.4h-6.8V94.4h4.2c0.9,0,1.5,0.4,1.7,1.2L211.2,97.8z"/>
		</g>
		<g>
			<path class="st0" d="M241.6,109.3c0.1,1.4,0.4,2.7,0.8,3.8c0.4,1.1,0.9,1.9,1.6,2.6s1.4,1.2,2.4,1.5c0.9,0.3,1.9,0.5,3,0.5
				c1.1,0,2-0.1,2.8-0.4c0.8-0.3,1.5-0.5,2.1-0.9c0.6-0.3,1.1-0.6,1.6-0.9c0.4-0.3,0.9-0.4,1.3-0.4c0.6,0,1,0.2,1.3,0.6l2,2.5
				c-0.8,0.9-1.6,1.6-2.5,2.2c-0.9,0.6-1.9,1.1-2.9,1.4s-2.1,0.6-3.1,0.8s-2.1,0.2-3.1,0.2c-2,0-3.8-0.3-5.5-1
				c-1.7-0.7-3.2-1.6-4.4-2.9c-1.2-1.3-2.2-2.9-2.9-4.7c-0.7-1.9-1.1-4.1-1.1-6.5c0-1.9,0.3-3.7,0.9-5.4s1.5-3.2,2.7-4.4
				c1.2-1.3,2.6-2.2,4.3-3c1.7-0.7,3.6-1.1,5.7-1.1c1.8,0,3.4,0.3,4.9,0.9c1.5,0.6,2.8,1.4,3.9,2.5c1.1,1.1,1.9,2.4,2.5,4
				s0.9,3.4,0.9,5.4c0,1-0.1,1.7-0.3,2.1s-0.6,0.5-1.3,0.5H241.6z M254.6,105.2c0-0.9-0.1-1.7-0.4-2.5c-0.2-0.8-0.6-1.5-1.1-2
				s-1.1-1-1.9-1.4c-0.8-0.3-1.6-0.5-2.7-0.5c-2,0-3.5,0.6-4.6,1.7c-1.1,1.1-1.8,2.7-2.2,4.8H254.6z"/>
		</g>
		<g>
			<path class="st0" d="M267.9,122.6V99.5l-2.4-0.4c-0.5-0.1-1-0.3-1.3-0.6c-0.3-0.3-0.5-0.6-0.5-1.1v-2.8h4.2v-2.1
				c0-1.6,0.2-3.1,0.7-4.3s1.2-2.4,2.1-3.3c0.9-0.9,2-1.6,3.3-2.1c1.3-0.5,2.8-0.7,4.4-0.7c1.3,0,2.5,0.2,3.6,0.5l-0.1,3.4
				c0,0.3-0.1,0.5-0.2,0.6c-0.1,0.2-0.3,0.3-0.5,0.4c-0.2,0.1-0.5,0.1-0.7,0.2c-0.3,0-0.6,0-0.9,0c-0.8,0-1.5,0.1-2.2,0.3
				c-0.6,0.2-1.2,0.5-1.6,0.9c-0.4,0.4-0.8,1-1,1.7c-0.2,0.7-0.3,1.6-0.3,2.6v1.9h7.3v4.8h-7.1v23.1H267.9z"/>
		</g>
		<g>
			<path class="st0" d="M288.1,122.6V99.5l-2.4-0.4c-0.5-0.1-1-0.3-1.3-0.6c-0.3-0.3-0.5-0.6-0.5-1.1v-2.8h4.2v-2.1
				c0-1.6,0.2-3.1,0.7-4.3s1.2-2.4,2.1-3.3c0.9-0.9,2-1.6,3.3-2.1c1.3-0.5,2.8-0.7,4.4-0.7c1.3,0,2.5,0.2,3.6,0.5l-0.1,3.4
				c0,0.3-0.1,0.5-0.2,0.6c-0.1,0.2-0.3,0.3-0.5,0.4c-0.2,0.1-0.5,0.1-0.7,0.2c-0.3,0-0.6,0-0.9,0c-0.8,0-1.5,0.1-2.2,0.3
				c-0.6,0.2-1.2,0.5-1.6,0.9c-0.4,0.4-0.8,1-1,1.7c-0.2,0.7-0.3,1.6-0.3,2.6v1.9h7.3v4.8h-7.1v23.1H288.1z"/>
		</g>
		<g>
			<path class="st0" d="M310.9,109.3c0.1,1.4,0.4,2.7,0.8,3.8c0.4,1.1,0.9,1.9,1.6,2.6s1.4,1.2,2.4,1.5c0.9,0.3,1.9,0.5,3,0.5
				c1.1,0,2-0.1,2.8-0.4c0.8-0.3,1.5-0.5,2.1-0.9c0.6-0.3,1.1-0.6,1.6-0.9c0.4-0.3,0.9-0.4,1.3-0.4c0.6,0,1,0.2,1.3,0.6l2,2.5
				c-0.8,0.9-1.6,1.6-2.5,2.2c-0.9,0.6-1.9,1.1-2.9,1.4s-2.1,0.6-3.1,0.8S319,123,318,123c-2,0-3.8-0.3-5.5-1
				c-1.7-0.7-3.2-1.6-4.4-2.9c-1.2-1.3-2.2-2.9-2.9-4.7c-0.7-1.9-1.1-4.1-1.1-6.5c0-1.9,0.3-3.7,0.9-5.4s1.5-3.2,2.7-4.4
				c1.2-1.3,2.6-2.2,4.3-3c1.7-0.7,3.6-1.1,5.7-1.1c1.8,0,3.4,0.3,4.9,0.9c1.5,0.6,2.8,1.4,3.9,2.5c1.1,1.1,1.9,2.4,2.5,4
				s0.9,3.4,0.9,5.4c0,1-0.1,1.7-0.3,2.1s-0.6,0.5-1.3,0.5H310.9z M323.9,105.2c0-0.9-0.1-1.7-0.4-2.5c-0.2-0.8-0.6-1.5-1.1-2
				s-1.1-1-1.9-1.4c-0.8-0.3-1.6-0.5-2.7-0.5c-2,0-3.5,0.6-4.6,1.7c-1.1,1.1-1.8,2.7-2.2,4.8H323.9z"/>
		</g>
		<g>
			<path class="st0" d="M355.8,100.3c-0.2,0.3-0.4,0.5-0.6,0.6c-0.2,0.1-0.5,0.2-0.8,0.2c-0.3,0-0.7-0.1-1-0.3s-0.7-0.4-1.2-0.7
				c-0.5-0.3-1-0.5-1.6-0.7c-0.6-0.2-1.4-0.3-2.4-0.3c-1.2,0-2.2,0.2-3.1,0.6c-0.9,0.4-1.6,1-2.2,1.9c-0.6,0.8-1,1.8-1.3,2.9
				c-0.3,1.1-0.4,2.4-0.4,3.9c0,1.5,0.2,2.8,0.5,4c0.3,1.2,0.8,2.2,1.4,3c0.6,0.8,1.3,1.4,2.2,1.8c0.9,0.4,1.8,0.6,2.9,0.6
				c1.1,0,2-0.1,2.6-0.4s1.2-0.6,1.7-0.9c0.5-0.3,0.9-0.6,1.2-0.9c0.3-0.3,0.7-0.4,1.1-0.4c0.5,0,1,0.2,1.2,0.6l2,2.5
				c-0.8,0.9-1.6,1.6-2.4,2.2c-0.9,0.6-1.8,1.1-2.7,1.4s-1.9,0.6-2.9,0.8s-2,0.2-3,0.2c-1.7,0-3.4-0.3-4.9-1s-2.9-1.6-4-2.8
				c-1.2-1.2-2.1-2.8-2.7-4.6c-0.7-1.8-1-3.9-1-6.2c0-2.1,0.3-4,0.9-5.8c0.6-1.8,1.5-3.3,2.6-4.6c1.2-1.3,2.6-2.3,4.3-3
				s3.7-1.1,5.9-1.1c2.1,0,4,0.3,5.5,1c1.6,0.7,3,1.7,4.3,2.9L355.8,100.3z"/>
		</g>
		<g>
			<path class="st0" d="M372.1,123c-2.5,0-4.3-0.7-5.7-2.1c-1.3-1.4-2-3.3-2-5.7V99.5h-2.9c-0.4,0-0.7-0.1-0.9-0.4
				c-0.3-0.2-0.4-0.6-0.4-1.1v-2.7l4.5-0.7l1.4-7.7c0.1-0.4,0.3-0.7,0.5-0.9c0.3-0.2,0.6-0.3,1-0.3h3.5v8.9h7.5v4.8h-7.5v15.3
				c0,0.9,0.2,1.6,0.6,2.1c0.4,0.5,1,0.7,1.8,0.7c0.4,0,0.8-0.1,1.1-0.2c0.3-0.1,0.5-0.2,0.7-0.3s0.4-0.2,0.6-0.3
				c0.2-0.1,0.3-0.2,0.5-0.2c0.2,0,0.4,0.1,0.5,0.2c0.1,0.1,0.3,0.3,0.4,0.5l2,3.3c-1,0.8-2.1,1.4-3.4,1.9S373.4,123,372.1,123z"/>
		</g>
		<g>
			<path class="st0" d="M391.6,86.2c0,0.6-0.1,1.1-0.4,1.7c-0.2,0.5-0.6,1-0.9,1.3c-0.4,0.4-0.9,0.7-1.4,0.9
				c-0.5,0.2-1.1,0.3-1.7,0.3c-0.6,0-1.1-0.1-1.7-0.3s-1-0.5-1.4-0.9c-0.4-0.4-0.7-0.8-0.9-1.3c-0.2-0.5-0.3-1.1-0.3-1.7
				c0-0.6,0.1-1.2,0.3-1.7c0.2-0.5,0.5-1,0.9-1.4c0.4-0.4,0.8-0.7,1.4-0.9s1.1-0.3,1.7-0.3c0.6,0,1.2,0.1,1.7,0.3
				c0.5,0.2,1,0.5,1.4,0.9s0.7,0.8,0.9,1.4C391.5,85,391.6,85.5,391.6,86.2z M390.7,94.4v28.2h-6.8V94.4H390.7z"/>
		</g>
		<g>
			<path class="st0" d="M423.6,94.4l-11.2,28.2h-6.2l-11.2-28.2h5.6c0.5,0,0.9,0.1,1.3,0.4c0.3,0.2,0.6,0.5,0.7,0.9l5.4,15.1
				c0.3,0.9,0.5,1.7,0.8,2.6c0.2,0.8,0.4,1.7,0.6,2.5c0.2-0.8,0.4-1.7,0.6-2.5c0.2-0.8,0.5-1.7,0.8-2.6l5.6-15.1
				c0.1-0.4,0.4-0.7,0.7-0.9c0.3-0.2,0.7-0.4,1.2-0.4H423.6z"/>
		</g>
		<g>
			<path class="st0" d="M432.1,109.3c0.1,1.4,0.4,2.7,0.8,3.8c0.4,1.1,0.9,1.9,1.6,2.6s1.4,1.2,2.4,1.5c0.9,0.3,1.9,0.5,3,0.5
				c1.1,0,2-0.1,2.8-0.4c0.8-0.3,1.5-0.5,2.1-0.9c0.6-0.3,1.1-0.6,1.6-0.9c0.4-0.3,0.9-0.4,1.3-0.4c0.6,0,1,0.2,1.3,0.6l2,2.5
				c-0.8,0.9-1.6,1.6-2.5,2.2c-0.9,0.6-1.9,1.1-2.9,1.4s-2.1,0.6-3.1,0.8s-2.1,0.2-3.1,0.2c-2,0-3.8-0.3-5.5-1
				c-1.7-0.7-3.2-1.6-4.4-2.9c-1.2-1.3-2.2-2.9-2.9-4.7c-0.7-1.9-1.1-4.1-1.1-6.5c0-1.9,0.3-3.7,0.9-5.4s1.5-3.2,2.7-4.4
				c1.2-1.3,2.6-2.2,4.3-3c1.7-0.7,3.6-1.1,5.7-1.1c1.8,0,3.4,0.3,4.9,0.9c1.5,0.6,2.8,1.4,3.9,2.5c1.1,1.1,1.9,2.4,2.5,4
				s0.9,3.4,0.9,5.4c0,1-0.1,1.7-0.3,2.1s-0.6,0.5-1.3,0.5H432.1z M445.1,105.2c0-0.9-0.1-1.7-0.4-2.5c-0.2-0.8-0.6-1.5-1.1-2
				s-1.1-1-1.9-1.4c-0.8-0.3-1.6-0.5-2.7-0.5c-2,0-3.5,0.6-4.6,1.7c-1.1,1.1-1.8,2.7-2.2,4.8H445.1z"/>
		</g>
		<g>
			<path class="st0" d="M463.2,97.8c0.6-0.6,1.2-1.1,1.8-1.6s1.3-0.9,2-1.2c0.7-0.3,1.5-0.6,2.3-0.8s1.7-0.3,2.6-0.3
				c1.5,0,2.9,0.3,4.1,0.8c1.2,0.5,2.2,1.3,3,2.2c0.8,0.9,1.4,2.1,1.8,3.4c0.4,1.3,0.6,2.8,0.6,4.3v18h-6.8v-18c0-1.7-0.4-3.1-1.2-4
				c-0.8-0.9-2-1.4-3.6-1.4c-1.2,0-2.3,0.3-3.3,0.8c-1,0.5-2,1.3-2.9,2.2v20.4h-6.8V94.4h4.2c0.9,0,1.5,0.4,1.7,1.2L463.2,97.8z"/>
		</g>
		<g>
			<path class="st0" d="M493.6,109.3c0.1,1.4,0.4,2.7,0.8,3.8c0.4,1.1,0.9,1.9,1.6,2.6s1.4,1.2,2.4,1.5c0.9,0.3,1.9,0.5,3,0.5
				c1.1,0,2-0.1,2.8-0.4c0.8-0.3,1.5-0.5,2.1-0.9c0.6-0.3,1.1-0.6,1.6-0.9c0.4-0.3,0.9-0.4,1.3-0.4c0.6,0,1,0.2,1.3,0.6l2,2.5
				c-0.8,0.9-1.6,1.6-2.5,2.2c-0.9,0.6-1.9,1.1-2.9,1.4s-2.1,0.6-3.1,0.8s-2.1,0.2-3.1,0.2c-2,0-3.8-0.3-5.5-1
				c-1.7-0.7-3.2-1.6-4.4-2.9c-1.2-1.3-2.2-2.9-2.9-4.7c-0.7-1.9-1.1-4.1-1.1-6.5c0-1.9,0.3-3.7,0.9-5.4s1.5-3.2,2.7-4.4
				c1.2-1.3,2.6-2.2,4.3-3c1.7-0.7,3.6-1.1,5.7-1.1c1.8,0,3.4,0.3,4.9,0.9c1.5,0.6,2.8,1.4,3.9,2.5c1.1,1.1,1.9,2.4,2.5,4
				c0.6,1.6,0.9,3.4,0.9,5.4c0,1-0.1,1.7-0.3,2.1s-0.6,0.5-1.3,0.5H493.6z M506.6,105.2c0-0.9-0.1-1.7-0.4-2.5
				c-0.2-0.8-0.6-1.5-1.1-2s-1.1-1-1.9-1.4c-0.8-0.3-1.6-0.5-2.7-0.5c-2,0-3.5,0.6-4.6,1.7c-1.1,1.1-1.8,2.7-2.2,4.8H506.6z"/>
		</g>
		<g>
			<path class="st0" d="M535.5,99.9c-0.2,0.3-0.4,0.5-0.6,0.6c-0.2,0.1-0.5,0.2-0.8,0.2c-0.3,0-0.7-0.1-1.1-0.3
				c-0.4-0.2-0.8-0.4-1.3-0.6c-0.5-0.2-1.1-0.4-1.7-0.6c-0.6-0.2-1.4-0.3-2.2-0.3c-1.3,0-2.4,0.3-3.1,0.9s-1.1,1.3-1.1,2.2
				c0,0.6,0.2,1.1,0.6,1.5c0.4,0.4,0.9,0.8,1.6,1.1c0.7,0.3,1.4,0.6,2.2,0.8c0.8,0.2,1.7,0.5,2.5,0.8s1.7,0.6,2.5,1s1.6,0.9,2.2,1.4
				c0.7,0.6,1.2,1.3,1.6,2.1c0.4,0.8,0.6,1.8,0.6,2.9c0,1.4-0.2,2.6-0.7,3.8s-1.2,2.1-2.2,3c-1,0.8-2.1,1.5-3.5,2
				c-1.4,0.5-3,0.7-4.9,0.7c-1,0-1.9-0.1-2.8-0.3c-0.9-0.2-1.8-0.4-2.7-0.7s-1.6-0.7-2.4-1.1c-0.7-0.4-1.4-0.9-1.9-1.4l1.6-2.6
				c0.2-0.3,0.4-0.5,0.7-0.7c0.3-0.2,0.6-0.2,1-0.2s0.8,0.1,1.2,0.4s0.8,0.5,1.3,0.8c0.5,0.3,1.1,0.5,1.7,0.8
				c0.7,0.2,1.5,0.4,2.5,0.4c0.8,0,1.5-0.1,2.1-0.3c0.6-0.2,1.1-0.4,1.4-0.8s0.7-0.7,0.8-1.1c0.2-0.4,0.3-0.8,0.3-1.3
				c0-0.7-0.2-1.2-0.6-1.6c-0.4-0.4-0.9-0.8-1.6-1.1c-0.7-0.3-1.4-0.6-2.2-0.8c-0.8-0.2-1.7-0.5-2.6-0.8c-0.9-0.3-1.7-0.6-2.6-1
				s-1.6-0.9-2.2-1.5c-0.7-0.6-1.2-1.3-1.6-2.2s-0.6-1.9-0.6-3.2c0-1.2,0.2-2.3,0.7-3.3c0.5-1,1.1-2,2-2.7c0.9-0.8,2-1.4,3.3-1.9
				c1.3-0.5,2.9-0.7,4.6-0.7c1.9,0,3.7,0.3,5.3,1c1.6,0.6,2.9,1.5,4,2.5L535.5,99.9z"/>
		</g>
		<g>
			<path class="st0" d="M560.2,99.9c-0.2,0.3-0.4,0.5-0.6,0.6c-0.2,0.1-0.5,0.2-0.8,0.2c-0.3,0-0.7-0.1-1.1-0.3
				c-0.4-0.2-0.8-0.4-1.3-0.6c-0.5-0.2-1.1-0.4-1.7-0.6c-0.6-0.2-1.4-0.3-2.2-0.3c-1.3,0-2.4,0.3-3.1,0.9s-1.1,1.3-1.1,2.2
				c0,0.6,0.2,1.1,0.6,1.5c0.4,0.4,0.9,0.8,1.6,1.1c0.7,0.3,1.4,0.6,2.2,0.8c0.8,0.2,1.7,0.5,2.5,0.8s1.7,0.6,2.5,1s1.6,0.9,2.2,1.4
				c0.7,0.6,1.2,1.3,1.6,2.1c0.4,0.8,0.6,1.8,0.6,2.9c0,1.4-0.2,2.6-0.7,3.8s-1.2,2.1-2.2,3c-1,0.8-2.1,1.5-3.5,2
				c-1.4,0.5-3,0.7-4.9,0.7c-1,0-1.9-0.1-2.8-0.3c-0.9-0.2-1.8-0.4-2.7-0.7s-1.6-0.7-2.4-1.1c-0.7-0.4-1.4-0.9-1.9-1.4l1.6-2.6
				c0.2-0.3,0.4-0.5,0.7-0.7c0.3-0.2,0.6-0.2,1-0.2s0.8,0.1,1.2,0.4s0.8,0.5,1.3,0.8c0.5,0.3,1.1,0.5,1.7,0.8
				c0.7,0.2,1.5,0.4,2.5,0.4c0.8,0,1.5-0.1,2.1-0.3c0.6-0.2,1.1-0.4,1.4-0.8s0.7-0.7,0.8-1.1c0.2-0.4,0.3-0.8,0.3-1.3
				c0-0.7-0.2-1.2-0.6-1.6c-0.4-0.4-0.9-0.8-1.6-1.1c-0.7-0.3-1.4-0.6-2.2-0.8c-0.8-0.2-1.7-0.5-2.6-0.8c-0.9-0.3-1.7-0.6-2.6-1
				s-1.6-0.9-2.2-1.5c-0.7-0.6-1.2-1.3-1.6-2.2s-0.6-1.9-0.6-3.2c0-1.2,0.2-2.3,0.7-3.3c0.5-1,1.1-2,2-2.7c0.9-0.8,2-1.4,3.3-1.9
				c1.3-0.5,2.9-0.7,4.6-0.7c1.9,0,3.7,0.3,5.3,1c1.6,0.6,2.9,1.5,4,2.5L560.2,99.9z"/>
		</g>
	</g>
	<path class="st0" d="M734.3-0.2H158.5v0h-8.3H8.1h-8.3v8.3v142.1v8.3h8.3h141.8v0h8.3h576h8.3v-8.3V8.2v-8.3H734.3z M127.1,110
		L113,124.2L79.2,90.6l-33.8,33.5L31.3,110L65,76.5L31.3,43.1l14.1-14.2l33.8,33.5L113,28.9l14.1,14.2L93.4,76.5L127.1,110z
		 M734.3,150.2H158.5v0V8.2h575.7V150.2z"/>
</g>
</svg>
