<?xml version="1.0" encoding="utf-8"?>
<!-- Generator: Adobe Illustrator 27.2.0, SVG Export Plug-In . SVG Version: 6.00 Build 0)  -->
<svg version="1.1" id="Layer_1" xmlns="http://www.w3.org/2000/svg" xmlns:xlink="http://www.w3.org/1999/xlink" x="0px" y="0px"
	 viewBox="0 0 742.4 158.4" style="enable-background:new 0 0 742.4 158.4;" xml:space="preserve">
<style type="text/css">
	.st0{fill:#2F5014;}
</style>
<g>
	<g>
		<g>
			<path class="st0" d="M196.9,65.8v11h13.9v5.7h-13.9v11.2h17.7v5.9h-25.1V59.9h25.1v5.9H196.9z"/>
		</g>
		<g>
			<path class="st0" d="M245.7,99.7h-6.5c-0.5,0-0.9-0.1-1.2-0.4s-0.6-0.5-0.8-0.9l-6-9.8c-0.1,0.3-0.2,0.6-0.3,0.9
				c-0.1,0.3-0.3,0.5-0.4,0.8l-5.3,8.2c-0.2,0.3-0.4,0.6-0.7,0.9s-0.7,0.4-1.1,0.4h-6.1l9.7-14.5l-9.3-13.7h6.5
				c0.5,0,0.9,0.1,1.1,0.2c0.2,0.1,0.4,0.4,0.6,0.7l5.9,9.4c0.2-0.6,0.5-1.2,0.9-1.8l4.8-7.4c0.4-0.7,0.9-1,1.6-1h6.2l-9.3,13.4
				L245.7,99.7z"/>
		</g>
		<g>
			<path class="st0" d="M256.2,75.3c1.2-1.3,2.5-2.4,3.9-3.2s3.2-1.2,5.2-1.2c1.5,0,2.9,0.3,4.2,1c1.3,0.6,2.4,1.6,3.3,2.8
				c0.9,1.2,1.6,2.7,2.1,4.5c0.5,1.8,0.8,3.8,0.8,6.1c0,2.1-0.3,4.1-0.9,5.9s-1.4,3.4-2.4,4.7s-2.3,2.4-3.8,3.1s-3.2,1.1-5,1.1
				c-1.6,0-2.9-0.2-4-0.7c-1.1-0.5-2.1-1.2-3-2v11.6h-6.8V71.5h4.2c0.9,0,1.5,0.4,1.7,1.2L256.2,75.3z M256.6,92.4
				c0.8,0.9,1.6,1.6,2.5,2s1.9,0.6,3,0.6c1,0,2-0.2,2.8-0.6c0.8-0.4,1.5-1,2.1-1.8s1-1.8,1.3-3c0.3-1.2,0.5-2.6,0.5-4.2
				c0-1.7-0.1-3-0.4-4.2c-0.3-1.1-0.6-2.1-1.1-2.8c-0.5-0.7-1.1-1.2-1.8-1.6c-0.7-0.3-1.5-0.5-2.4-0.5c-1.4,0-2.6,0.3-3.6,0.9
				s-1.9,1.4-2.8,2.5V92.4z"/>
		</g>
		<g>
			<path class="st0" d="M286.8,86.4c0.1,1.4,0.4,2.7,0.8,3.8c0.4,1.1,0.9,1.9,1.6,2.6s1.4,1.2,2.3,1.5c0.9,0.3,1.9,0.5,3,0.5
				s2-0.1,2.8-0.4c0.8-0.3,1.5-0.5,2.1-0.9c0.6-0.3,1.1-0.6,1.6-0.9s0.9-0.4,1.3-0.4c0.6,0,1,0.2,1.3,0.6l2,2.5
				c-0.8,0.9-1.6,1.6-2.5,2.2c-0.9,0.6-1.9,1.1-2.9,1.4s-2.1,0.6-3.1,0.8s-2.1,0.2-3.1,0.2c-2,0-3.8-0.3-5.5-1
				c-1.7-0.7-3.2-1.6-4.4-2.9c-1.2-1.3-2.2-2.9-2.9-4.7c-0.7-1.9-1.1-4.1-1.1-6.5c0-1.9,0.3-3.7,0.9-5.4s1.5-3.2,2.7-4.4
				c1.2-1.3,2.6-2.2,4.3-3s3.6-1.1,5.7-1.1c1.8,0,3.4,0.3,4.9,0.9c1.5,0.6,2.8,1.4,3.9,2.5s1.9,2.4,2.5,4c0.6,1.6,0.9,3.4,0.9,5.4
				c0,1-0.1,1.7-0.3,2.1c-0.2,0.4-0.6,0.5-1.3,0.5H286.8z M299.8,82.3c0-0.9-0.1-1.7-0.4-2.5c-0.2-0.8-0.6-1.5-1.1-2
				c-0.5-0.6-1.1-1-1.9-1.4c-0.8-0.3-1.6-0.5-2.7-0.5c-2,0-3.5,0.6-4.6,1.7c-1.1,1.1-1.8,2.7-2.2,4.8H299.8z"/>
		</g>
		<g>
			<path class="st0" d="M317.9,76.4c0.9-1.7,1.9-3,3.1-4c1.2-1,2.6-1.4,4.3-1.4c1.3,0,2.3,0.3,3.1,0.9l-0.4,5.1
				c-0.1,0.3-0.2,0.6-0.4,0.7c-0.2,0.1-0.4,0.2-0.7,0.2c-0.3,0-0.7,0-1.2-0.1s-1.1-0.1-1.6-0.1c-0.8,0-1.4,0.1-2,0.3
				c-0.6,0.2-1.1,0.5-1.6,0.9c-0.5,0.4-0.9,0.9-1.2,1.5c-0.4,0.6-0.7,1.3-1,2v17.4h-6.8V71.5h4c0.7,0,1.2,0.1,1.5,0.4
				c0.3,0.2,0.5,0.7,0.6,1.3L317.9,76.4z"/>
		</g>
		<g>
			<path class="st0" d="M342,100.1c-2.5,0-4.3-0.7-5.7-2.1c-1.3-1.4-2-3.3-2-5.7V76.5h-2.9c-0.4,0-0.7-0.1-0.9-0.4
				c-0.3-0.2-0.4-0.6-0.4-1.1v-2.7l4.5-0.7l1.4-7.7c0.1-0.4,0.3-0.7,0.5-0.9c0.3-0.2,0.6-0.3,1-0.3h3.5v8.9h7.5v4.8h-7.5v15.3
				c0,0.9,0.2,1.6,0.6,2.1c0.4,0.5,1,0.7,1.8,0.7c0.4,0,0.8-0.1,1.1-0.2c0.3-0.1,0.5-0.2,0.7-0.3s0.4-0.2,0.6-0.3
				c0.2-0.1,0.3-0.2,0.5-0.2c0.2,0,0.4,0.1,0.5,0.2c0.1,0.1,0.3,0.3,0.4,0.5l2,3.3c-1,0.8-2.1,1.4-3.4,1.9S343.4,100.1,342,100.1z"
				/>
		</g>
		<g>
			<path class="st0" d="M406.5,79.8c0,2.9-0.5,5.6-1.4,8.1c-1,2.5-2.3,4.6-4.1,6.4s-3.9,3.2-6.4,4.2s-5.2,1.5-8.2,1.5
				c-3,0-5.7-0.5-8.2-1.5s-4.6-2.4-6.4-4.2s-3.1-4-4.1-6.4c-1-2.5-1.5-5.2-1.5-8.1s0.5-5.6,1.5-8.1c1-2.5,2.3-4.6,4.1-6.4
				c1.8-1.8,3.9-3.2,6.4-4.2s5.2-1.5,8.2-1.5c2,0,3.9,0.2,5.7,0.7c1.8,0.5,3.4,1.1,4.9,2c1.5,0.9,2.8,1.9,4,3.1
				c1.2,1.2,2.2,2.6,3,4.1c0.8,1.5,1.5,3.1,1.9,4.9C406.3,76,406.5,77.8,406.5,79.8z M398.9,79.8c0-2.2-0.3-4.1-0.9-5.9
				c-0.6-1.7-1.4-3.2-2.5-4.4c-1.1-1.2-2.4-2.1-3.9-2.8c-1.5-0.6-3.3-1-5.2-1s-3.7,0.3-5.2,1c-1.6,0.6-2.9,1.6-4,2.8
				c-1.1,1.2-1.9,2.7-2.5,4.4c-0.6,1.7-0.9,3.7-0.9,5.9c0,2.2,0.3,4.1,0.9,5.9c0.6,1.7,1.4,3.2,2.5,4.4c1.1,1.2,2.4,2.1,4,2.8
				c1.5,0.6,3.3,1,5.2,1s3.7-0.3,5.2-1c1.5-0.6,2.9-1.6,3.9-2.8c1.1-1.2,1.9-2.7,2.5-4.4C398.6,83.9,398.9,82,398.9,79.8z"/>
		</g>
		<g>
			<path class="st0" d="M418.5,75.3c1.2-1.3,2.5-2.4,3.9-3.2s3.2-1.2,5.2-1.2c1.5,0,2.9,0.3,4.2,1c1.3,0.6,2.4,1.6,3.3,2.8
				c0.9,1.2,1.6,2.7,2.1,4.5c0.5,1.8,0.8,3.8,0.8,6.1c0,2.1-0.3,4.1-0.9,5.9c-0.6,1.8-1.4,3.4-2.4,4.7c-1.1,1.3-2.3,2.4-3.8,3.1
				s-3.2,1.1-5,1.1c-1.6,0-2.9-0.2-4-0.7c-1.1-0.5-2.1-1.2-3-2v11.6H412V71.5h4.2c0.9,0,1.5,0.4,1.7,1.2L418.5,75.3z M418.8,92.4
				c0.8,0.9,1.6,1.6,2.5,2c0.9,0.4,1.9,0.6,3,0.6c1,0,2-0.2,2.8-0.6c0.8-0.4,1.5-1,2.1-1.8c0.6-0.8,1-1.8,1.3-3
				c0.3-1.2,0.5-2.6,0.5-4.2c0-1.7-0.1-3-0.4-4.2c-0.3-1.1-0.6-2.1-1.1-2.8c-0.5-0.7-1.1-1.2-1.8-1.6c-0.7-0.3-1.5-0.5-2.4-0.5
				c-1.4,0-2.6,0.3-3.6,0.9c-1,0.6-1.9,1.4-2.8,2.5V92.4z"/>
		</g>
		<g>
			<path class="st0" d="M451.8,63.2c0,0.6-0.1,1.1-0.4,1.7c-0.2,0.5-0.6,1-0.9,1.3c-0.4,0.4-0.9,0.7-1.4,0.9s-1.1,0.3-1.7,0.3
				c-0.6,0-1.1-0.1-1.7-0.3c-0.5-0.2-1-0.5-1.4-0.9c-0.4-0.4-0.7-0.8-0.9-1.3c-0.2-0.5-0.3-1.1-0.3-1.7c0-0.6,0.1-1.2,0.3-1.7
				c0.2-0.5,0.5-1,0.9-1.4s0.8-0.7,1.4-0.9c0.5-0.2,1.1-0.3,1.7-0.3c0.6,0,1.2,0.1,1.7,0.3s1,0.5,1.4,0.9s0.7,0.8,0.9,1.4
				C451.7,62.1,451.8,62.6,451.8,63.2z M450.9,71.5v28.2H444V71.5H450.9z"/>
		</g>
		<g>
			<path class="st0" d="M464.7,74.9c0.6-0.6,1.2-1.1,1.8-1.6s1.3-0.9,2-1.2c0.7-0.3,1.5-0.6,2.3-0.8s1.7-0.3,2.6-0.3
				c1.5,0,2.9,0.3,4.1,0.8s2.2,1.3,3,2.2s1.4,2.1,1.8,3.4c0.4,1.3,0.6,2.8,0.6,4.3v18h-6.8v-18c0-1.7-0.4-3.1-1.2-4
				c-0.8-0.9-2-1.4-3.6-1.4c-1.2,0-2.3,0.3-3.3,0.8c-1,0.5-2,1.3-2.9,2.2v20.4h-6.8V71.5h4.2c0.9,0,1.5,0.4,1.7,1.2L464.7,74.9z"/>
		</g>
		<g>
			<path class="st0" d="M497.9,63.2c0,0.6-0.1,1.1-0.4,1.7c-0.2,0.5-0.6,1-0.9,1.3c-0.4,0.4-0.9,0.7-1.4,0.9
				c-0.5,0.2-1.1,0.3-1.7,0.3c-0.6,0-1.1-0.1-1.7-0.3c-0.5-0.2-1-0.5-1.4-0.9c-0.4-0.4-0.7-0.8-0.9-1.3c-0.2-0.5-0.3-1.1-0.3-1.7
				c0-0.6,0.1-1.2,0.3-1.7c0.2-0.5,0.5-1,0.9-1.4c0.4-0.4,0.8-0.7,1.4-0.9c0.5-0.2,1.1-0.3,1.7-0.3c0.6,0,1.2,0.1,1.7,0.3
				c0.5,0.2,1,0.5,1.4,0.9s0.7,0.8,0.9,1.4C497.8,62.1,497.9,62.6,497.9,63.2z M496.9,71.5v28.2h-6.8V71.5H496.9z"/>
		</g>
		<g>
			<path class="st0" d="M516.9,71c2.1,0,4,0.3,5.7,1c1.7,0.7,3.2,1.6,4.4,2.9c1.2,1.2,2.2,2.8,2.8,4.6s1,3.8,1,6c0,2.2-0.3,4.3-1,6
				s-1.6,3.3-2.8,4.6c-1.2,1.3-2.7,2.2-4.4,2.9c-1.7,0.7-3.6,1-5.7,1c-2.1,0-4-0.3-5.7-1c-1.7-0.7-3.2-1.6-4.4-2.9
				c-1.2-1.3-2.2-2.8-2.8-4.6c-0.7-1.8-1-3.8-1-6c0-2.2,0.3-4.2,1-6c0.7-1.8,1.6-3.3,2.8-4.6c1.2-1.2,2.7-2.2,4.4-2.9
				C512.9,71.4,514.8,71,516.9,71z M516.9,94.9c2.3,0,4.1-0.8,5.2-2.4c1.1-1.6,1.7-3.9,1.7-6.9s-0.6-5.4-1.7-7
				c-1.1-1.6-2.9-2.4-5.2-2.4c-2.4,0-4.1,0.8-5.3,2.4c-1.1,1.6-1.7,3.9-1.7,6.9s0.6,5.3,1.7,6.9C512.8,94.1,514.5,94.9,516.9,94.9z"
				/>
		</g>
		<g>
			<path class="st0" d="M542.9,74.9c0.6-0.6,1.2-1.1,1.8-1.6s1.3-0.9,2-1.2c0.7-0.3,1.5-0.6,2.3-0.8s1.7-0.3,2.6-0.3
				c1.5,0,2.9,0.3,4.1,0.8s2.2,1.3,3,2.2s1.4,2.1,1.8,3.4c0.4,1.3,0.6,2.8,0.6,4.3v18h-6.8v-18c0-1.7-0.4-3.1-1.2-4
				c-0.8-0.9-2-1.4-3.6-1.4c-1.2,0-2.3,0.3-3.3,0.8c-1,0.5-2,1.3-2.9,2.2v20.4h-6.8V71.5h4.2c0.9,0,1.5,0.4,1.7,1.2L542.9,74.9z"/>
		</g>
	</g>
	<path class="st0" d="M734.3,0H158.4v0h-8.1H8.1H0v8.1v142.1v8.1h8.1h142.1h8.1v0h575.9h8.1v-8.1V8.2V0H734.3z M73.3,123.2
		L29.7,83.4l13.5-14.8l26.5,24.2l43.2-63.2L129.4,41L73.3,123.2z M734.3,150.2H158.4v0V8.2h575.9V150.2z"/>
</g>
</svg>
