<?xml version="1.0" encoding="utf-8"?>
<!-- Generator: Adobe Illustrator 27.2.0, SVG Export Plug-In . SVG Version: 6.00 Build 0)  -->
<svg version="1.1" id="Layer_1" xmlns="http://www.w3.org/2000/svg" xmlns:xlink="http://www.w3.org/1999/xlink" x="0px" y="0px"
	 viewBox="0 0 742.4 158.4" style="enable-background:new 0 0 742.4 158.4;" xml:space="preserve">
<style type="text/css">
	.st0{fill:#2F5014;}
</style>
<g>
	<g>
		<g>
			<path class="st0" d="M210.6,35.1c-0.2,0.4-0.5,0.7-0.7,0.8c-0.2,0.2-0.6,0.3-0.9,0.3c-0.4,0-0.8-0.1-1.3-0.4
				c-0.4-0.3-1-0.6-1.6-0.9c-0.6-0.3-1.4-0.7-2.2-0.9s-1.8-0.4-3-0.4c-1,0-1.9,0.1-2.7,0.4c-0.8,0.2-1.4,0.6-1.9,1
				c-0.5,0.4-0.9,1-1.2,1.6c-0.3,0.6-0.4,1.3-0.4,2c0,0.9,0.3,1.7,0.8,2.3c0.5,0.6,1.2,1.2,2.1,1.6c0.9,0.4,1.8,0.8,2.9,1.2
				c1.1,0.3,2.2,0.7,3.4,1.1c1.2,0.4,2.3,0.9,3.4,1.4c1.1,0.5,2.1,1.2,2.9,2s1.6,1.8,2.1,2.9s0.8,2.6,0.8,4.2c0,1.8-0.3,3.5-0.9,5
				c-0.6,1.6-1.5,2.9-2.7,4.1c-1.2,1.2-2.6,2.1-4.3,2.8s-3.7,1-5.9,1c-1.3,0-2.5-0.1-3.7-0.4c-1.2-0.2-2.4-0.6-3.5-1.1
				c-1.1-0.5-2.2-1-3.2-1.6c-1-0.6-1.9-1.4-2.6-2.1l2.2-3.5c0.2-0.3,0.4-0.5,0.7-0.6s0.6-0.3,0.9-0.3c0.5,0,1,0.2,1.5,0.6
				c0.5,0.4,1.2,0.8,1.9,1.3s1.6,0.9,2.6,1.3c1,0.4,2.2,0.6,3.5,0.6c2.1,0,3.7-0.5,4.9-1.5c1.2-1,1.7-2.4,1.7-4.3
				c0-1-0.3-1.9-0.8-2.6s-1.2-1.2-2.1-1.7c-0.9-0.4-1.8-0.8-2.9-1.1c-1.1-0.3-2.2-0.7-3.4-1c-1.1-0.4-2.3-0.8-3.4-1.3
				c-1.1-0.5-2.1-1.2-2.9-2c-0.9-0.8-1.6-1.9-2.1-3.1c-0.5-1.2-0.8-2.8-0.8-4.6c0-1.4,0.3-2.9,0.9-4.2c0.6-1.4,1.4-2.6,2.5-3.7
				c1.1-1.1,2.5-1.9,4.1-2.6c1.6-0.6,3.5-1,5.6-1c2.3,0,4.5,0.4,6.5,1.1c2,0.7,3.7,1.8,5.1,3.1L210.6,35.1z"/>
		</g>
		<g>
			<path class="st0" d="M239.2,45.3c-0.2,0.3-0.4,0.5-0.6,0.6c-0.2,0.1-0.5,0.2-0.8,0.2c-0.3,0-0.7-0.1-1-0.3s-0.7-0.4-1.2-0.7
				c-0.5-0.3-1-0.5-1.6-0.7c-0.6-0.2-1.4-0.3-2.4-0.3c-1.2,0-2.2,0.2-3.1,0.6c-0.9,0.4-1.6,1-2.2,1.9c-0.6,0.8-1,1.8-1.3,2.9
				c-0.3,1.1-0.4,2.4-0.4,3.9c0,1.5,0.2,2.8,0.5,4c0.3,1.2,0.8,2.2,1.4,3c0.6,0.8,1.3,1.4,2.2,1.8c0.9,0.4,1.8,0.6,2.9,0.6
				c1.1,0,2-0.1,2.6-0.4s1.2-0.6,1.7-0.9c0.5-0.3,0.9-0.6,1.2-0.9c0.3-0.3,0.7-0.4,1.1-0.4c0.5,0,1,0.2,1.2,0.6l2,2.5
				c-0.8,0.9-1.6,1.6-2.4,2.2c-0.9,0.6-1.8,1.1-2.7,1.4s-1.9,0.6-2.9,0.8c-1,0.1-2,0.2-3,0.2c-1.7,0-3.4-0.3-4.9-1s-2.9-1.6-4-2.8
				c-1.2-1.2-2.1-2.8-2.7-4.6c-0.7-1.8-1-3.9-1-6.2c0-2.1,0.3-4,0.9-5.8c0.6-1.8,1.5-3.3,2.6-4.6c1.2-1.3,2.6-2.3,4.3-3
				s3.7-1.1,5.9-1.1c2.1,0,4,0.3,5.5,1c1.6,0.7,3,1.7,4.3,2.9L239.2,45.3z"/>
		</g>
		<g>
			<path class="st0" d="M254,31.2c0,0.6-0.1,1.1-0.4,1.7c-0.2,0.5-0.6,1-0.9,1.3c-0.4,0.4-0.9,0.7-1.4,0.9c-0.5,0.2-1.1,0.3-1.7,0.3
				c-0.6,0-1.1-0.1-1.7-0.3s-1-0.5-1.4-0.9c-0.4-0.4-0.7-0.8-0.9-1.3c-0.2-0.5-0.3-1.1-0.3-1.7c0-0.6,0.1-1.2,0.3-1.7
				c0.2-0.5,0.5-1,0.9-1.4c0.4-0.4,0.8-0.7,1.4-0.9s1.1-0.3,1.7-0.3c0.6,0,1.2,0.1,1.7,0.3c0.5,0.2,1,0.5,1.4,0.9
				c0.4,0.4,0.7,0.8,0.9,1.4C253.9,30,254,30.5,254,31.2z M253.1,39.4v28.2h-6.8V39.4H253.1z"/>
		</g>
		<g>
			<path class="st0" d="M265.8,54.3c0.1,1.4,0.4,2.7,0.8,3.8c0.4,1.1,0.9,1.9,1.6,2.6c0.7,0.7,1.4,1.2,2.4,1.5
				c0.9,0.3,1.9,0.5,3,0.5c1.1,0,2-0.1,2.8-0.4c0.8-0.3,1.5-0.5,2.1-0.9c0.6-0.3,1.1-0.6,1.6-0.9c0.4-0.3,0.9-0.4,1.3-0.4
				c0.6,0,1,0.2,1.3,0.6l2,2.5c-0.8,0.9-1.6,1.6-2.5,2.2c-0.9,0.6-1.9,1.1-2.9,1.4s-2.1,0.6-3.1,0.8c-1.1,0.1-2.1,0.2-3.1,0.2
				c-2,0-3.8-0.3-5.5-1c-1.7-0.7-3.2-1.6-4.4-2.9c-1.2-1.3-2.2-2.9-2.9-4.7c-0.7-1.9-1.1-4.1-1.1-6.5c0-1.9,0.3-3.7,0.9-5.4
				c0.6-1.7,1.5-3.2,2.7-4.4c1.2-1.3,2.6-2.2,4.3-3c1.7-0.7,3.6-1.1,5.7-1.1c1.8,0,3.4,0.3,4.9,0.9c1.5,0.6,2.8,1.4,3.9,2.5
				c1.1,1.1,1.9,2.4,2.5,4c0.6,1.6,0.9,3.4,0.9,5.4c0,1-0.1,1.7-0.3,2.1s-0.6,0.5-1.3,0.5H265.8z M278.8,50.2c0-0.9-0.1-1.7-0.4-2.5
				c-0.2-0.8-0.6-1.5-1.1-2s-1.1-1-1.9-1.4c-0.8-0.3-1.6-0.5-2.7-0.5c-2,0-3.5,0.6-4.6,1.7c-1.1,1.1-1.8,2.7-2.2,4.8H278.8z"/>
		</g>
		<g>
			<path class="st0" d="M296.9,42.8c0.6-0.6,1.2-1.1,1.8-1.6c0.6-0.5,1.3-0.9,2-1.2c0.7-0.3,1.5-0.6,2.3-0.8
				c0.8-0.2,1.7-0.3,2.6-0.3c1.5,0,2.9,0.3,4.1,0.8c1.2,0.5,2.2,1.3,3,2.2c0.8,0.9,1.4,2.1,1.8,3.4c0.4,1.3,0.6,2.8,0.6,4.3v18h-6.8
				v-18c0-1.7-0.4-3.1-1.2-4c-0.8-0.9-2-1.4-3.6-1.4c-1.2,0-2.3,0.3-3.3,0.8c-1,0.5-2,1.3-2.9,2.2v20.4h-6.8V39.4h4.2
				c0.9,0,1.5,0.4,1.7,1.2L296.9,42.8z"/>
		</g>
		<g>
			<path class="st0" d="M331.1,68c-2.5,0-4.3-0.7-5.7-2.1c-1.3-1.4-2-3.3-2-5.7V44.5h-2.9c-0.4,0-0.7-0.1-0.9-0.4
				c-0.3-0.2-0.4-0.6-0.4-1.1v-2.7l4.5-0.7l1.4-7.7c0.1-0.4,0.3-0.7,0.5-0.9c0.3-0.2,0.6-0.3,1-0.3h3.5v8.9h7.5v4.8h-7.5v15.3
				c0,0.9,0.2,1.6,0.6,2.1c0.4,0.5,1,0.7,1.8,0.7c0.4,0,0.8-0.1,1.1-0.2c0.3-0.1,0.5-0.2,0.7-0.3s0.4-0.2,0.6-0.3
				c0.2-0.1,0.3-0.2,0.5-0.2c0.2,0,0.4,0.1,0.5,0.2c0.1,0.1,0.3,0.3,0.4,0.5l2,3.3c-1,0.8-2.1,1.4-3.4,1.9
				C333.8,67.8,332.5,68,331.1,68z"/>
		</g>
		<g>
			<path class="st0" d="M350.7,31.2c0,0.6-0.1,1.1-0.4,1.7c-0.2,0.5-0.6,1-0.9,1.3c-0.4,0.4-0.9,0.7-1.4,0.9
				c-0.5,0.2-1.1,0.3-1.7,0.3c-0.6,0-1.1-0.1-1.7-0.3s-1-0.5-1.4-0.9c-0.4-0.4-0.7-0.8-0.9-1.3c-0.2-0.5-0.3-1.1-0.3-1.7
				c0-0.6,0.1-1.2,0.3-1.7c0.2-0.5,0.5-1,0.9-1.4c0.4-0.4,0.8-0.7,1.4-0.9s1.1-0.3,1.7-0.3c0.6,0,1.2,0.1,1.7,0.3
				c0.5,0.2,1,0.5,1.4,0.9c0.4,0.4,0.7,0.8,0.9,1.4C350.6,30,350.7,30.5,350.7,31.2z M349.7,39.4v28.2h-6.8V39.4H349.7z"/>
		</g>
		<g>
			<path class="st0" d="M359.2,67.6V44.5l-2.4-0.4c-0.5-0.1-1-0.3-1.3-0.6c-0.3-0.3-0.5-0.6-0.5-1.1v-2.8h4.2v-2.1
				c0-1.6,0.2-3.1,0.7-4.3c0.5-1.3,1.2-2.4,2.1-3.3c0.9-0.9,2-1.6,3.3-2.1c1.3-0.5,2.8-0.7,4.4-0.7c1.3,0,2.5,0.2,3.6,0.5l-0.1,3.4
				c0,0.3-0.1,0.5-0.2,0.6c-0.1,0.2-0.3,0.3-0.5,0.4c-0.2,0.1-0.5,0.1-0.7,0.2c-0.3,0-0.6,0-0.9,0c-0.8,0-1.5,0.1-2.2,0.3
				c-0.6,0.2-1.2,0.5-1.6,0.9c-0.4,0.4-0.8,1-1,1.7c-0.2,0.7-0.3,1.6-0.3,2.6v1.9h7.3v4.8H366v23.1H359.2z"/>
		</g>
		<g>
			<path class="st0" d="M385.5,31.2c0,0.6-0.1,1.1-0.4,1.7c-0.2,0.5-0.6,1-0.9,1.3c-0.4,0.4-0.9,0.7-1.4,0.9
				c-0.5,0.2-1.1,0.3-1.7,0.3c-0.6,0-1.1-0.1-1.7-0.3s-1-0.5-1.4-0.9c-0.4-0.4-0.7-0.8-0.9-1.3c-0.2-0.5-0.3-1.1-0.3-1.7
				c0-0.6,0.1-1.2,0.3-1.7c0.2-0.5,0.5-1,0.9-1.4c0.4-0.4,0.8-0.7,1.4-0.9s1.1-0.3,1.7-0.3c0.6,0,1.2,0.1,1.7,0.3
				c0.5,0.2,1,0.5,1.4,0.9c0.4,0.4,0.7,0.8,0.9,1.4C385.3,30,385.5,30.5,385.5,31.2z M384.5,39.4v28.2h-6.8V39.4H384.5z"/>
		</g>
		<g>
			<path class="st0" d="M412.2,45.3c-0.2,0.3-0.4,0.5-0.6,0.6c-0.2,0.1-0.5,0.2-0.8,0.2c-0.3,0-0.7-0.1-1-0.3s-0.7-0.4-1.2-0.7
				c-0.5-0.3-1-0.5-1.6-0.7c-0.6-0.2-1.4-0.3-2.4-0.3c-1.2,0-2.2,0.2-3.1,0.6c-0.9,0.4-1.6,1-2.2,1.9c-0.6,0.8-1,1.8-1.3,2.9
				c-0.3,1.1-0.4,2.4-0.4,3.9c0,1.5,0.2,2.8,0.5,4c0.3,1.2,0.8,2.2,1.4,3c0.6,0.8,1.3,1.4,2.2,1.8c0.9,0.4,1.8,0.6,2.9,0.6
				c1.1,0,2-0.1,2.6-0.4s1.2-0.6,1.7-0.9c0.5-0.3,0.9-0.6,1.2-0.9c0.3-0.3,0.7-0.4,1.1-0.4c0.5,0,1,0.2,1.2,0.6l2,2.5
				c-0.8,0.9-1.6,1.6-2.4,2.2c-0.9,0.6-1.8,1.1-2.7,1.4s-1.9,0.6-2.9,0.8c-1,0.1-2,0.2-3,0.2c-1.7,0-3.4-0.3-4.9-1s-2.9-1.6-4-2.8
				c-1.2-1.2-2.1-2.8-2.7-4.6c-0.7-1.8-1-3.9-1-6.2c0-2.1,0.3-4,0.9-5.8c0.6-1.8,1.5-3.3,2.6-4.6c1.2-1.3,2.6-2.3,4.3-3
				s3.7-1.1,5.9-1.1c2.1,0,4,0.3,5.5,1c1.6,0.7,3,1.7,4.3,2.9L412.2,45.3z"/>
		</g>
		<g>
			<path class="st0" d="M418.4,43.3c3.2-3,7.1-4.5,11.7-4.5c1.6,0,3.1,0.3,4.4,0.8c1.3,0.5,2.4,1.3,3.3,2.3c0.9,1,1.6,2.1,2,3.5
				c0.5,1.3,0.7,2.8,0.7,4.4v17.8h-3.1c-0.6,0-1.1-0.1-1.5-0.3s-0.6-0.6-0.8-1.2l-0.6-2c-0.7,0.6-1.4,1.2-2.1,1.7
				c-0.7,0.5-1.4,0.9-2.1,1.2s-1.5,0.6-2.4,0.8c-0.8,0.2-1.8,0.3-2.8,0.3c-1.2,0-2.3-0.2-3.3-0.5c-1-0.3-1.9-0.8-2.6-1.4
				c-0.7-0.6-1.3-1.4-1.7-2.4c-0.4-1-0.6-2.1-0.6-3.3c0-0.7,0.1-1.4,0.4-2.1c0.2-0.7,0.6-1.4,1.2-2c0.5-0.6,1.2-1.2,2.1-1.8
				c0.9-0.6,1.9-1.1,3.2-1.5s2.7-0.8,4.4-1c1.7-0.3,3.6-0.4,5.7-0.5v-1.7c0-1.9-0.4-3.3-1.2-4.2s-2-1.4-3.5-1.4
				c-1.1,0-2,0.1-2.7,0.4c-0.7,0.3-1.4,0.5-1.9,0.9c-0.5,0.3-1,0.6-1.5,0.9c-0.4,0.3-0.9,0.4-1.5,0.4c-0.5,0-0.9-0.1-1.2-0.4
				c-0.3-0.2-0.6-0.5-0.8-0.9L418.4,43.3z M434,55.5c-2,0.1-3.6,0.3-5,0.5c-1.3,0.2-2.4,0.6-3.2,0.9c-0.8,0.4-1.4,0.8-1.7,1.3
				c-0.3,0.5-0.5,1.1-0.5,1.7c0,1.2,0.4,2,1.1,2.6c0.7,0.5,1.6,0.8,2.8,0.8c1.4,0,2.6-0.3,3.6-0.8c1-0.5,2-1.3,3-2.3V55.5z"/>
		</g>
		<g>
			<path class="st0" d="M454.4,26.7v40.9h-6.8V26.7H454.4z"/>
		</g>
		<g>
			<path class="st0" d="M468.6,26.7v40.9h-6.8V26.7H468.6z"/>
		</g>
		<g>
			<path class="st0" d="M501.6,39.4l-15.4,36c-0.2,0.5-0.5,0.8-0.8,1.1c-0.3,0.2-0.8,0.4-1.5,0.4h-5.1l5.3-11.3l-11.4-26.1h6
				c0.5,0,0.9,0.1,1.3,0.4s0.5,0.5,0.7,0.9l6,14.6c0.2,0.5,0.4,1,0.5,1.5s0.3,1,0.4,1.5c0.2-0.5,0.3-1,0.5-1.5s0.3-1,0.5-1.5
				l5.7-14.6c0.1-0.4,0.4-0.7,0.7-0.9s0.7-0.4,1.1-0.4H501.6z"/>
		</g>
		<g>
			<path class="st0" d="M210.6,90.1c-0.2,0.4-0.5,0.7-0.7,0.8c-0.2,0.2-0.6,0.3-0.9,0.3c-0.4,0-0.8-0.1-1.3-0.4
				c-0.4-0.3-1-0.6-1.6-0.9c-0.6-0.3-1.4-0.7-2.2-0.9s-1.8-0.4-3-0.4c-1,0-1.9,0.1-2.7,0.4c-0.8,0.2-1.4,0.6-1.9,1
				c-0.5,0.4-0.9,1-1.2,1.6c-0.3,0.6-0.4,1.3-0.4,2c0,0.9,0.3,1.7,0.8,2.3c0.5,0.6,1.2,1.2,2.1,1.6c0.9,0.4,1.8,0.8,2.9,1.2
				c1.1,0.3,2.2,0.7,3.4,1.1c1.2,0.4,2.3,0.9,3.4,1.4c1.1,0.5,2.1,1.2,2.9,2s1.6,1.8,2.1,2.9c0.5,1.2,0.8,2.6,0.8,4.2
				c0,1.8-0.3,3.5-0.9,5s-1.5,2.9-2.7,4.1c-1.2,1.2-2.6,2.1-4.3,2.8s-3.7,1-5.9,1c-1.3,0-2.5-0.1-3.7-0.4c-1.2-0.2-2.4-0.6-3.5-1.1
				c-1.1-0.5-2.2-1-3.2-1.6c-1-0.6-1.9-1.4-2.6-2.1l2.2-3.5c0.2-0.3,0.4-0.5,0.7-0.6s0.6-0.3,0.9-0.3c0.5,0,1,0.2,1.5,0.6
				c0.5,0.4,1.2,0.8,1.9,1.3s1.6,0.9,2.6,1.3c1,0.4,2.2,0.6,3.5,0.6c2.1,0,3.7-0.5,4.9-1.5c1.2-1,1.7-2.4,1.7-4.3
				c0-1-0.3-1.9-0.8-2.6s-1.2-1.2-2.1-1.7c-0.9-0.4-1.8-0.8-2.9-1.1c-1.1-0.3-2.2-0.7-3.4-1c-1.1-0.4-2.3-0.8-3.4-1.3
				c-1.1-0.5-2.1-1.2-2.9-2c-0.9-0.8-1.6-1.9-2.1-3.1s-0.8-2.8-0.8-4.6c0-1.4,0.3-2.9,0.9-4.2c0.6-1.4,1.4-2.6,2.5-3.7
				c1.1-1.1,2.5-1.9,4.1-2.6c1.6-0.6,3.5-1,5.6-1c2.3,0,4.5,0.4,6.5,1.1c2,0.7,3.7,1.8,5.1,3.1L210.6,90.1z"/>
		</g>
		<g>
			<path class="st0" d="M242.9,94.4v28.2h-4.2c-0.9,0-1.5-0.4-1.7-1.2l-0.5-2.3c-1.2,1.2-2.4,2.1-3.8,2.8c-1.4,0.7-3,1.1-4.9,1.1
				c-1.5,0-2.9-0.3-4.1-0.8c-1.2-0.5-2.2-1.3-3-2.2s-1.4-2.1-1.8-3.4c-0.4-1.3-0.6-2.8-0.6-4.3V94.4h6.8v17.9c0,1.7,0.4,3.1,1.2,4
				c0.8,0.9,2,1.4,3.6,1.4c1.2,0,2.3-0.3,3.3-0.8c1-0.5,2-1.2,2.9-2.2V94.4H242.9z"/>
		</g>
		<g>
			<path class="st0" d="M256.6,98.2c1.2-1.3,2.5-2.4,3.9-3.2c1.5-0.8,3.2-1.2,5.2-1.2c1.5,0,2.9,0.3,4.2,1c1.3,0.6,2.4,1.6,3.3,2.8
				c0.9,1.2,1.6,2.7,2.1,4.5c0.5,1.8,0.8,3.8,0.8,6.1c0,2.1-0.3,4.1-0.9,5.9c-0.6,1.8-1.4,3.4-2.4,4.7c-1.1,1.3-2.3,2.4-3.8,3.1
				s-3.2,1.1-5,1.1c-1.6,0-2.9-0.2-4-0.7s-2.1-1.2-3-2v11.6h-6.8V94.4h4.2c0.9,0,1.5,0.4,1.7,1.2L256.6,98.2z M257,115.3
				c0.8,0.9,1.6,1.6,2.5,2c0.9,0.4,1.9,0.6,3,0.6c1,0,2-0.2,2.8-0.6s1.5-1,2.1-1.8c0.6-0.8,1-1.8,1.3-3c0.3-1.2,0.5-2.6,0.5-4.2
				c0-1.7-0.1-3-0.4-4.2c-0.3-1.1-0.6-2.1-1.1-2.8c-0.5-0.7-1.1-1.2-1.8-1.6s-1.5-0.5-2.4-0.5c-1.4,0-2.6,0.3-3.6,0.9
				c-1,0.6-1.9,1.4-2.8,2.5V115.3z"/>
		</g>
		<g>
			<path class="st0" d="M288.4,98.2c1.2-1.3,2.5-2.4,3.9-3.2c1.5-0.8,3.2-1.2,5.2-1.2c1.5,0,2.9,0.3,4.2,1c1.3,0.6,2.4,1.6,3.3,2.8
				c0.9,1.2,1.6,2.7,2.1,4.5c0.5,1.8,0.8,3.8,0.8,6.1c0,2.1-0.3,4.1-0.9,5.9c-0.6,1.8-1.4,3.4-2.4,4.7c-1.1,1.3-2.3,2.4-3.8,3.1
				s-3.2,1.1-5,1.1c-1.6,0-2.9-0.2-4-0.7s-2.1-1.2-3-2v11.6h-6.8V94.4h4.2c0.9,0,1.5,0.4,1.7,1.2L288.4,98.2z M288.7,115.3
				c0.8,0.9,1.6,1.6,2.5,2c0.9,0.4,1.9,0.6,3,0.6c1,0,2-0.2,2.8-0.6s1.5-1,2.1-1.8c0.6-0.8,1-1.8,1.3-3c0.3-1.2,0.5-2.6,0.5-4.2
				c0-1.7-0.1-3-0.4-4.2c-0.3-1.1-0.6-2.1-1.1-2.8c-0.5-0.7-1.1-1.2-1.8-1.6s-1.5-0.5-2.4-0.5c-1.4,0-2.6,0.3-3.6,0.9
				c-1,0.6-1.9,1.4-2.8,2.5V115.3z"/>
		</g>
		<g>
			<path class="st0" d="M326.2,93.9c2.1,0,4,0.3,5.7,1c1.7,0.7,3.2,1.6,4.4,2.9c1.2,1.2,2.2,2.8,2.8,4.6c0.7,1.8,1,3.8,1,6
				c0,2.2-0.3,4.3-1,6c-0.7,1.8-1.6,3.3-2.8,4.6c-1.2,1.3-2.7,2.2-4.4,2.9c-1.7,0.7-3.6,1-5.7,1c-2.1,0-4-0.3-5.7-1
				c-1.7-0.7-3.2-1.6-4.4-2.9c-1.2-1.3-2.2-2.8-2.8-4.6c-0.7-1.8-1-3.8-1-6c0-2.2,0.3-4.2,1-6c0.7-1.8,1.6-3.3,2.8-4.6
				c1.2-1.2,2.7-2.2,4.4-2.9C322.2,94.3,324.1,93.9,326.2,93.9z M326.2,117.8c2.3,0,4.1-0.8,5.2-2.4c1.1-1.6,1.7-3.9,1.7-6.9
				c0-3-0.6-5.4-1.7-7c-1.1-1.6-2.9-2.4-5.2-2.4c-2.4,0-4.1,0.8-5.3,2.4c-1.1,1.6-1.7,3.9-1.7,6.9c0,3,0.6,5.3,1.7,6.9
				C322.1,117,323.8,117.8,326.2,117.8z"/>
		</g>
		<g>
			<path class="st0" d="M352.3,99.3c0.9-1.7,1.9-3,3.1-4c1.2-1,2.6-1.4,4.3-1.4c1.3,0,2.3,0.3,3.1,0.9l-0.4,5.1
				c-0.1,0.3-0.2,0.6-0.4,0.7c-0.2,0.1-0.4,0.2-0.7,0.2c-0.3,0-0.7,0-1.2-0.1s-1.1-0.1-1.6-0.1c-0.8,0-1.4,0.1-2,0.3
				s-1.1,0.5-1.6,0.9c-0.5,0.4-0.9,0.9-1.2,1.5c-0.4,0.6-0.7,1.3-1,2v17.4h-6.8V94.4h4c0.7,0,1.2,0.1,1.5,0.4
				c0.3,0.2,0.5,0.7,0.5,1.3L352.3,99.3z"/>
		</g>
		<g>
			<path class="st0" d="M376.4,123c-2.5,0-4.3-0.7-5.7-2.1c-1.3-1.4-2-3.3-2-5.7V99.5h-2.9c-0.4,0-0.7-0.1-0.9-0.4
				c-0.3-0.2-0.4-0.6-0.4-1.1v-2.7l4.5-0.7l1.4-7.7c0.1-0.4,0.3-0.7,0.5-0.9c0.3-0.2,0.6-0.3,1-0.3h3.5v8.9h7.5v4.8h-7.5v15.3
				c0,0.9,0.2,1.6,0.6,2.1c0.4,0.5,1,0.7,1.8,0.7c0.4,0,0.8-0.1,1.1-0.2c0.3-0.1,0.5-0.2,0.7-0.3s0.4-0.2,0.6-0.3
				c0.2-0.1,0.3-0.2,0.5-0.2c0.2,0,0.4,0.1,0.5,0.2c0.1,0.1,0.3,0.3,0.4,0.5l2,3.3c-1,0.8-2.1,1.4-3.4,1.9S377.7,123,376.4,123z"/>
		</g>
		<g>
			<path class="st0" d="M393,109.3c0.1,1.4,0.4,2.7,0.8,3.8c0.4,1.1,0.9,1.9,1.6,2.6s1.4,1.2,2.4,1.5c0.9,0.3,1.9,0.5,3,0.5
				c1.1,0,2-0.1,2.8-0.4c0.8-0.3,1.5-0.5,2.1-0.9c0.6-0.3,1.1-0.6,1.6-0.9c0.4-0.3,0.9-0.4,1.3-0.4c0.6,0,1,0.2,1.3,0.6l2,2.5
				c-0.8,0.9-1.6,1.6-2.5,2.2c-0.9,0.6-1.9,1.1-2.9,1.4s-2.1,0.6-3.1,0.8s-2.1,0.2-3.1,0.2c-2,0-3.8-0.3-5.5-1
				c-1.7-0.7-3.2-1.6-4.4-2.9c-1.2-1.3-2.2-2.9-2.9-4.7c-0.7-1.9-1.1-4.1-1.1-6.5c0-1.9,0.3-3.7,0.9-5.4c0.6-1.7,1.5-3.2,2.7-4.4
				c1.2-1.3,2.6-2.2,4.3-3c1.7-0.7,3.6-1.1,5.7-1.1c1.8,0,3.4,0.3,4.9,0.9c1.5,0.6,2.8,1.4,3.9,2.5c1.1,1.1,1.9,2.4,2.5,4
				c0.6,1.6,0.9,3.4,0.9,5.4c0,1-0.1,1.7-0.3,2.1s-0.6,0.5-1.3,0.5H393z M405.9,105.2c0-0.9-0.1-1.7-0.4-2.5c-0.2-0.8-0.6-1.5-1.1-2
				s-1.1-1-1.9-1.4c-0.8-0.3-1.6-0.5-2.7-0.5c-2,0-3.5,0.6-4.6,1.7c-1.1,1.1-1.8,2.7-2.2,4.8H405.9z"/>
		</g>
		<g>
			<path class="st0" d="M442.2,81.7v40.9H438c-0.9,0-1.5-0.4-1.7-1.2l-0.6-2.7c-1.1,1.3-2.4,2.4-3.9,3.2c-1.5,0.8-3.2,1.2-5.2,1.2
				c-1.5,0-3-0.3-4.2-1s-2.4-1.6-3.3-2.8c-0.9-1.2-1.6-2.7-2.1-4.5c-0.5-1.8-0.8-3.8-0.8-6.2c0-2.1,0.3-4,0.9-5.8
				c0.6-1.8,1.4-3.4,2.4-4.7c1.1-1.3,2.3-2.4,3.8-3.1c1.5-0.7,3.2-1.1,5-1.1c1.6,0,2.9,0.2,4,0.7s2.1,1.2,3,2V81.7H442.2z
				 M435.4,101.6c-0.8-0.9-1.6-1.6-2.5-2S431,99,429.9,99c-1,0-2,0.2-2.8,0.6s-1.5,1-2.1,1.7c-0.6,0.8-1,1.8-1.3,3
				c-0.3,1.2-0.5,2.6-0.5,4.2c0,1.7,0.1,3,0.4,4.2c0.3,1.1,0.6,2.1,1.1,2.8c0.5,0.7,1.1,1.2,1.8,1.6c0.7,0.3,1.5,0.5,2.4,0.5
				c1.4,0,2.6-0.3,3.6-0.9s1.9-1.4,2.8-2.5V101.6z"/>
		</g>
	</g>
	<path class="st0" d="M734.3,0H158.4v0h-8.1H8.1H0v8.1v142.1v8.1h8.1h142.1h8.1v0h575.9h8.1v-8.1V8.2V0H734.3z M109.4,125.8
		l-30.3-15.9l-30.3,15.9l5.8-33.7L30.2,68.2l33.8-4.9l15.1-30.7l15.1,30.7l33.8,4.9l-24.5,23.9L109.4,125.8z M734.3,150.2H158.4v0
		V8.2h575.9V150.2z"/>
</g>
</svg>
