<?xml version="1.0" encoding="utf-8"?>
<!-- Generator: Adobe Illustrator 27.2.0, SVG Export Plug-In . SVG Version: 6.00 Build 0)  -->
<svg version="1.1" id="Layer_1" xmlns="http://www.w3.org/2000/svg" xmlns:xlink="http://www.w3.org/1999/xlink" x="0px" y="0px"
	 viewBox="0 0 742.4 158.4" style="enable-background:new 0 0 742.4 158.4;" xml:space="preserve">
<style type="text/css">
	.st0{fill:#2F5014;}
</style>
<g>
	<g>
		<g>
			<path class="st0" d="M210.6,67.1c-0.2,0.4-0.5,0.7-0.7,0.8c-0.2,0.2-0.6,0.3-0.9,0.3c-0.4,0-0.8-0.1-1.3-0.4s-1-0.6-1.6-0.9
				c-0.6-0.3-1.4-0.7-2.2-0.9s-1.8-0.4-3-0.4c-1,0-1.9,0.1-2.7,0.4c-0.8,0.2-1.4,0.6-1.9,1c-0.5,0.4-0.9,1-1.2,1.6
				c-0.3,0.6-0.4,1.3-0.4,2c0,0.9,0.3,1.7,0.8,2.3c0.5,0.6,1.2,1.2,2.1,1.6c0.9,0.4,1.8,0.8,2.9,1.2c1.1,0.3,2.2,0.7,3.4,1.1
				c1.2,0.4,2.3,0.9,3.4,1.4c1.1,0.5,2.1,1.2,2.9,2s1.6,1.8,2.1,2.9s0.8,2.6,0.8,4.2c0,1.8-0.3,3.5-0.9,5s-1.5,2.9-2.7,4.1
				s-2.6,2.1-4.3,2.8s-3.7,1-5.9,1c-1.3,0-2.5-0.1-3.7-0.4c-1.2-0.2-2.4-0.6-3.5-1.1c-1.1-0.5-2.2-1-3.2-1.6c-1-0.6-1.9-1.4-2.6-2.1
				l2.2-3.5c0.2-0.3,0.4-0.5,0.7-0.6s0.6-0.3,0.9-0.3c0.5,0,1,0.2,1.5,0.6c0.5,0.4,1.2,0.8,1.9,1.3s1.6,0.9,2.6,1.3
				c1,0.4,2.2,0.6,3.5,0.6c2.1,0,3.7-0.5,4.9-1.5c1.2-1,1.7-2.4,1.7-4.3c0-1-0.3-1.9-0.8-2.6s-1.2-1.2-2.1-1.7
				c-0.9-0.4-1.8-0.8-2.9-1.1c-1.1-0.3-2.2-0.7-3.4-1c-1.1-0.4-2.3-0.8-3.4-1.3c-1.1-0.5-2.1-1.2-2.9-2c-0.9-0.8-1.6-1.9-2.1-3.1
				s-0.8-2.8-0.8-4.6c0-1.4,0.3-2.9,0.9-4.2c0.6-1.4,1.4-2.6,2.5-3.7c1.1-1.1,2.5-1.9,4.1-2.6s3.5-1,5.6-1c2.3,0,4.5,0.4,6.5,1.1
				c2,0.7,3.7,1.8,5.1,3.1L210.6,67.1z"/>
		</g>
		<g>
			<path class="st0" d="M231.5,71c2.1,0,4,0.3,5.7,1c1.7,0.7,3.2,1.6,4.4,2.9c1.2,1.2,2.2,2.8,2.8,4.6c0.7,1.8,1,3.8,1,6
				c0,2.2-0.3,4.3-1,6c-0.7,1.8-1.6,3.3-2.8,4.6c-1.2,1.3-2.7,2.2-4.4,2.9c-1.7,0.7-3.6,1-5.7,1c-2.1,0-4-0.3-5.7-1
				c-1.7-0.7-3.2-1.6-4.4-2.9c-1.2-1.3-2.2-2.8-2.8-4.6c-0.7-1.8-1-3.8-1-6c0-2.2,0.3-4.2,1-6c0.7-1.8,1.6-3.3,2.8-4.6
				c1.2-1.2,2.7-2.2,4.4-2.9C227.5,71.4,229.4,71,231.5,71z M231.5,94.9c2.3,0,4.1-0.8,5.2-2.4c1.1-1.6,1.7-3.9,1.7-6.9
				s-0.6-5.4-1.7-7c-1.1-1.6-2.9-2.4-5.2-2.4c-2.4,0-4.1,0.8-5.3,2.4c-1.1,1.6-1.7,3.9-1.7,6.9s0.6,5.3,1.7,6.9
				C227.3,94.1,229.1,94.9,231.5,94.9z"/>
		</g>
		<g>
			<path class="st0" d="M251.1,99.7V71.5h4.2c0.9,0,1.5,0.4,1.7,1.2l0.4,2.1c0.5-0.5,1-1.1,1.6-1.5c0.5-0.5,1.1-0.9,1.7-1.2
				c0.6-0.3,1.3-0.6,2-0.8c0.7-0.2,1.5-0.3,2.3-0.3c1.8,0,3.2,0.5,4.4,1.4c1.1,1,2,2.2,2.6,3.8c0.4-0.9,1-1.7,1.7-2.4
				c0.7-0.7,1.4-1.2,2.2-1.6c0.8-0.4,1.6-0.7,2.5-0.9c0.9-0.2,1.8-0.3,2.7-0.3c1.6,0,2.9,0.2,4.2,0.7c1.2,0.5,2.2,1.2,3.1,2.1
				c0.8,0.9,1.5,2,1.9,3.4s0.6,2.8,0.6,4.5v18H284v-18c0-1.8-0.4-3.1-1.2-4.1c-0.8-0.9-1.9-1.4-3.5-1.4c-0.7,0-1.3,0.1-1.9,0.4
				s-1.1,0.6-1.6,1s-0.8,1-1.1,1.7c-0.3,0.7-0.4,1.5-0.4,2.3v18h-6.8v-18c0-1.9-0.4-3.3-1.1-4.1c-0.8-0.9-1.9-1.3-3.3-1.3
				c-1,0-1.9,0.2-2.8,0.7c-0.9,0.5-1.6,1.2-2.4,2v20.7H251.1z"/>
		</g>
		<g>
			<path class="st0" d="M303,86.4c0.1,1.4,0.4,2.7,0.8,3.8c0.4,1.1,0.9,1.9,1.6,2.6s1.4,1.2,2.4,1.5c0.9,0.3,1.9,0.5,3,0.5
				c1.1,0,2-0.1,2.8-0.4c0.8-0.3,1.5-0.5,2.1-0.9c0.6-0.3,1.1-0.6,1.6-0.9c0.4-0.3,0.9-0.4,1.3-0.4c0.6,0,1,0.2,1.3,0.6l2,2.5
				c-0.8,0.9-1.6,1.6-2.5,2.2c-0.9,0.6-1.9,1.1-2.9,1.4s-2.1,0.6-3.1,0.8s-2.1,0.2-3.1,0.2c-2,0-3.8-0.3-5.5-1
				c-1.7-0.7-3.2-1.6-4.4-2.9c-1.2-1.3-2.2-2.9-2.9-4.7c-0.7-1.9-1.1-4.1-1.1-6.5c0-1.9,0.3-3.7,0.9-5.4s1.5-3.2,2.7-4.4
				c1.2-1.3,2.6-2.2,4.3-3c1.7-0.7,3.6-1.1,5.7-1.1c1.8,0,3.4,0.3,4.9,0.9c1.5,0.6,2.8,1.4,3.9,2.5c1.1,1.1,1.9,2.4,2.5,4
				s0.9,3.4,0.9,5.4c0,1-0.1,1.7-0.3,2.1s-0.6,0.5-1.3,0.5H303z M315.9,82.3c0-0.9-0.1-1.7-0.4-2.5c-0.2-0.8-0.6-1.5-1.1-2
				s-1.1-1-1.9-1.4c-0.8-0.3-1.6-0.5-2.7-0.5c-2,0-3.5,0.6-4.6,1.7c-1.1,1.1-1.8,2.7-2.2,4.8H315.9z"/>
		</g>
		<g>
			<path class="st0" d="M350.1,65.8v11H364v5.7h-13.9v11.2h17.7v5.9h-25.1V59.9h25.1v5.9H350.1z"/>
		</g>
		<g>
			<path class="st0" d="M398.2,71.5l-11.2,28.2h-6.2l-11.2-28.2h5.6c0.5,0,0.9,0.1,1.3,0.4c0.3,0.2,0.6,0.5,0.7,0.9l5.4,15.1
				c0.3,0.9,0.6,1.7,0.8,2.6c0.2,0.8,0.4,1.7,0.6,2.5c0.2-0.8,0.4-1.7,0.6-2.5c0.2-0.8,0.5-1.7,0.8-2.6l5.6-15.1
				c0.1-0.4,0.4-0.7,0.7-0.9c0.3-0.2,0.7-0.4,1.2-0.4H398.2z"/>
		</g>
		<g>
			<path class="st0" d="M410.4,63.2c0,0.6-0.1,1.1-0.4,1.7c-0.2,0.5-0.6,1-0.9,1.3c-0.4,0.4-0.9,0.7-1.4,0.9s-1.1,0.3-1.7,0.3
				c-0.6,0-1.1-0.1-1.7-0.3c-0.5-0.2-1-0.5-1.4-0.9c-0.4-0.4-0.7-0.8-0.9-1.3c-0.2-0.5-0.3-1.1-0.3-1.7c0-0.6,0.1-1.2,0.3-1.7
				c0.2-0.5,0.5-1,0.9-1.4s0.8-0.7,1.4-0.9c0.5-0.2,1.1-0.3,1.7-0.3c0.6,0,1.2,0.1,1.7,0.3s1,0.5,1.4,0.9s0.7,0.8,0.9,1.4
				C410.3,62.1,410.4,62.6,410.4,63.2z M409.4,71.5v28.2h-6.8V71.5H409.4z"/>
		</g>
		<g>
			<path class="st0" d="M441.4,58.8v40.9h-4.2c-0.9,0-1.5-0.4-1.7-1.2l-0.6-2.7c-1.1,1.3-2.4,2.4-3.9,3.2s-3.2,1.2-5.2,1.2
				c-1.5,0-3-0.3-4.2-1s-2.4-1.6-3.3-2.8c-0.9-1.2-1.6-2.7-2.1-4.5c-0.5-1.8-0.8-3.8-0.8-6.2c0-2.1,0.3-4,0.9-5.8
				c0.6-1.8,1.4-3.4,2.4-4.7c1.1-1.3,2.3-2.4,3.8-3.1c1.5-0.7,3.2-1.1,5-1.1c1.6,0,2.9,0.2,4,0.7c1.1,0.5,2.1,1.2,3,2V58.8H441.4z
				 M434.6,78.7c-0.8-0.9-1.6-1.6-2.5-2c-0.9-0.4-1.9-0.6-2.9-0.6c-1,0-2,0.2-2.8,0.6c-0.8,0.4-1.5,1-2.1,1.7c-0.6,0.8-1,1.8-1.3,3
				c-0.3,1.2-0.5,2.6-0.5,4.2c0,1.7,0.1,3,0.4,4.2s0.6,2.1,1.1,2.8c0.5,0.7,1.1,1.2,1.8,1.6c0.7,0.3,1.5,0.5,2.4,0.5
				c1.4,0,2.6-0.3,3.6-0.9s1.9-1.4,2.8-2.5V78.7z"/>
		</g>
		<g>
			<path class="st0" d="M453.9,86.4c0.1,1.4,0.4,2.7,0.8,3.8c0.4,1.1,0.9,1.9,1.6,2.6s1.4,1.2,2.4,1.5s1.9,0.5,3,0.5
				c1.1,0,2-0.1,2.8-0.4s1.5-0.5,2.1-0.9s1.1-0.6,1.6-0.9c0.4-0.3,0.9-0.4,1.3-0.4c0.6,0,1,0.2,1.3,0.6l2,2.5
				c-0.8,0.9-1.6,1.6-2.5,2.2c-0.9,0.6-1.9,1.1-2.9,1.4s-2.1,0.6-3.1,0.8s-2.1,0.2-3.1,0.2c-2,0-3.8-0.3-5.5-1s-3.2-1.6-4.4-2.9
				s-2.2-2.9-2.9-4.7c-0.7-1.9-1.1-4.1-1.1-6.5c0-1.9,0.3-3.7,0.9-5.4s1.5-3.2,2.7-4.4s2.6-2.2,4.3-3c1.7-0.7,3.6-1.1,5.7-1.1
				c1.8,0,3.4,0.3,4.9,0.9c1.5,0.6,2.8,1.4,3.9,2.5c1.1,1.1,1.9,2.4,2.5,4c0.6,1.6,0.9,3.4,0.9,5.4c0,1-0.1,1.7-0.3,2.1
				c-0.2,0.4-0.6,0.5-1.3,0.5H453.9z M466.9,82.3c0-0.9-0.1-1.7-0.4-2.5s-0.6-1.5-1.1-2c-0.5-0.6-1.1-1-1.9-1.4
				c-0.8-0.3-1.6-0.5-2.7-0.5c-2,0-3.5,0.6-4.6,1.7c-1.1,1.1-1.8,2.7-2.2,4.8H466.9z"/>
		</g>
		<g>
			<path class="st0" d="M485,74.9c0.6-0.6,1.2-1.1,1.8-1.6s1.3-0.9,2-1.2c0.7-0.3,1.5-0.6,2.3-0.8s1.7-0.3,2.6-0.3
				c1.5,0,2.9,0.3,4.1,0.8c1.2,0.5,2.2,1.3,3,2.2c0.8,0.9,1.4,2.1,1.8,3.4c0.4,1.3,0.6,2.8,0.6,4.3v18h-6.8v-18c0-1.7-0.4-3.1-1.2-4
				c-0.8-0.9-2-1.4-3.6-1.4c-1.2,0-2.3,0.3-3.3,0.8c-1,0.5-2,1.3-2.9,2.2v20.4h-6.8V71.5h4.2c0.9,0,1.5,0.4,1.7,1.2L485,74.9z"/>
		</g>
		<g>
			<path class="st0" d="M530.4,77.4c-0.2,0.3-0.4,0.5-0.6,0.6c-0.2,0.1-0.5,0.2-0.8,0.2c-0.3,0-0.7-0.1-1-0.3s-0.7-0.4-1.2-0.7
				c-0.5-0.3-1-0.5-1.6-0.7c-0.6-0.2-1.4-0.3-2.4-0.3c-1.2,0-2.2,0.2-3.1,0.6s-1.6,1-2.2,1.9c-0.6,0.8-1,1.8-1.3,2.9
				c-0.3,1.1-0.4,2.4-0.4,3.9c0,1.5,0.2,2.8,0.5,4c0.3,1.2,0.8,2.2,1.4,3c0.6,0.8,1.3,1.4,2.2,1.8c0.9,0.4,1.8,0.6,2.9,0.6
				c1.1,0,2-0.1,2.6-0.4c0.7-0.3,1.2-0.6,1.7-0.9c0.5-0.3,0.9-0.6,1.2-0.9c0.3-0.3,0.7-0.4,1.1-0.4c0.6,0,1,0.2,1.2,0.6l2,2.5
				c-0.8,0.9-1.6,1.6-2.4,2.2c-0.9,0.6-1.8,1.1-2.7,1.4c-0.9,0.4-1.9,0.6-2.9,0.8c-1,0.1-2,0.2-3,0.2c-1.7,0-3.4-0.3-4.9-1
				c-1.5-0.7-2.9-1.6-4-2.8c-1.2-1.2-2.1-2.8-2.7-4.6s-1-3.9-1-6.2c0-2.1,0.3-4,0.9-5.8c0.6-1.8,1.5-3.3,2.6-4.6
				c1.2-1.3,2.6-2.3,4.3-3s3.7-1.1,5.9-1.1c2.1,0,4,0.3,5.5,1c1.6,0.7,3,1.7,4.3,2.9L530.4,77.4z"/>
		</g>
		<g>
			<path class="st0" d="M542,86.4c0.1,1.4,0.4,2.7,0.8,3.8c0.4,1.1,0.9,1.9,1.6,2.6s1.4,1.2,2.4,1.5s1.9,0.5,3,0.5
				c1.1,0,2-0.1,2.8-0.4s1.5-0.5,2.1-0.9s1.1-0.6,1.6-0.9c0.4-0.3,0.9-0.4,1.3-0.4c0.6,0,1,0.2,1.3,0.6l2,2.5
				c-0.8,0.9-1.6,1.6-2.5,2.2c-0.9,0.6-1.9,1.1-2.9,1.4s-2.1,0.6-3.1,0.8s-2.1,0.2-3.1,0.2c-2,0-3.8-0.3-5.5-1s-3.2-1.6-4.4-2.9
				s-2.2-2.9-2.9-4.7c-0.7-1.9-1.1-4.1-1.1-6.5c0-1.9,0.3-3.7,0.9-5.4s1.5-3.2,2.7-4.4s2.6-2.2,4.3-3c1.7-0.7,3.6-1.1,5.7-1.1
				c1.8,0,3.4,0.3,4.9,0.9c1.5,0.6,2.8,1.4,3.9,2.5c1.1,1.1,1.9,2.4,2.5,4c0.6,1.6,0.9,3.4,0.9,5.4c0,1-0.1,1.7-0.3,2.1
				c-0.2,0.4-0.6,0.5-1.3,0.5H542z M554.9,82.3c0-0.9-0.1-1.7-0.4-2.5s-0.6-1.5-1.1-2c-0.5-0.6-1.1-1-1.9-1.4
				c-0.8-0.3-1.6-0.5-2.7-0.5c-2,0-3.5,0.6-4.6,1.7c-1.1,1.1-1.8,2.7-2.2,4.8H554.9z"/>
		</g>
	</g>
	<path class="st0" d="M734.3,0H158.4v0h-8.1H8.1H0v8.1v142.1v8.1h8.1h142.1h8.1v0h575.9h8.1v-8.1V8.2V0H734.3z M11.3,83.4l13.5-14.8
		l26.1,23.8L89,30.1L106,40.6l-50.8,83.1L11.3,83.4z M145,86.3h-14.6v14.6h-14V86.3h-14.6v-14h14.6V57.7h14v14.6H145V86.3z
		 M734.3,150.2H158.4v0V8.2h575.9V150.2z"/>
</g>
</svg>
