<?xml version="1.0" encoding="utf-8"?>
<!-- Generator: Adobe Illustrator 27.2.0, SVG Export Plug-In . SVG Version: 6.00 Build 0)  -->
<svg version="1.1" id="Layer_1" xmlns="http://www.w3.org/2000/svg" xmlns:xlink="http://www.w3.org/1999/xlink" x="0px" y="0px"
	 viewBox="0 0 742.4 158.4" style="enable-background:new 0 0 742.4 158.4;" xml:space="preserve">
<style type="text/css">
	.st0{fill:#89AC33;}
</style>
<g>
	<g>
		<g>
			<path class="st0" d="M196.9,99.7h-7.4V59.9h7.4V99.7z"/>
		</g>
		<g>
			<path class="st0" d="M211.2,74.9c0.6-0.6,1.2-1.1,1.8-1.6s1.3-0.9,2-1.2c0.7-0.3,1.5-0.6,2.3-0.8s1.7-0.3,2.6-0.3
				c1.5,0,2.9,0.3,4.1,0.8c1.2,0.5,2.2,1.3,3,2.2c0.8,0.9,1.4,2.1,1.8,3.4c0.4,1.3,0.6,2.8,0.6,4.3v18h-6.8v-18c0-1.7-0.4-3.1-1.2-4
				c-0.8-0.9-2-1.4-3.6-1.4c-1.2,0-2.3,0.3-3.3,0.8c-1,0.5-2,1.3-2.9,2.2v20.4h-6.8V71.5h4.2c0.9,0,1.5,0.4,1.7,1.2L211.2,74.9z"/>
		</g>
		<g>
			<path class="st0" d="M253.6,77c-0.2,0.3-0.4,0.5-0.6,0.6c-0.2,0.1-0.5,0.2-0.8,0.2c-0.3,0-0.7-0.1-1.1-0.3
				c-0.4-0.2-0.8-0.4-1.3-0.6c-0.5-0.2-1.1-0.4-1.7-0.6s-1.4-0.3-2.2-0.3c-1.3,0-2.4,0.3-3.1,0.9c-0.8,0.6-1.1,1.3-1.1,2.2
				c0,0.6,0.2,1.1,0.6,1.5c0.4,0.4,0.9,0.8,1.6,1.1c0.7,0.3,1.4,0.6,2.2,0.8c0.8,0.2,1.7,0.5,2.5,0.8c0.9,0.3,1.7,0.6,2.5,1
				c0.8,0.4,1.6,0.9,2.2,1.4c0.7,0.6,1.2,1.3,1.6,2.1s0.6,1.8,0.6,2.9c0,1.4-0.2,2.6-0.7,3.8c-0.5,1.1-1.2,2.1-2.2,3
				c-1,0.8-2.1,1.5-3.5,2c-1.4,0.5-3,0.7-4.9,0.7c-1,0-1.9-0.1-2.8-0.3c-0.9-0.2-1.8-0.4-2.7-0.7c-0.9-0.3-1.6-0.7-2.4-1.1
				c-0.7-0.4-1.4-0.9-1.9-1.4l1.6-2.6c0.2-0.3,0.4-0.5,0.7-0.7c0.3-0.2,0.6-0.2,1-0.2s0.8,0.1,1.2,0.4c0.4,0.2,0.8,0.5,1.3,0.8
				c0.5,0.3,1.1,0.5,1.7,0.8c0.7,0.2,1.5,0.4,2.5,0.4c0.8,0,1.5-0.1,2.1-0.3s1.1-0.4,1.4-0.8c0.4-0.3,0.7-0.7,0.8-1.1
				c0.2-0.4,0.3-0.8,0.3-1.3c0-0.7-0.2-1.2-0.6-1.6c-0.4-0.4-0.9-0.8-1.6-1.1c-0.7-0.3-1.4-0.6-2.2-0.8c-0.8-0.2-1.7-0.5-2.6-0.8
				s-1.7-0.6-2.6-1s-1.6-0.9-2.2-1.5c-0.7-0.6-1.2-1.3-1.6-2.2s-0.6-1.9-0.6-3.2c0-1.2,0.2-2.3,0.7-3.3s1.1-2,2-2.7
				c0.9-0.8,2-1.4,3.3-1.9c1.3-0.5,2.9-0.7,4.6-0.7c1.9,0,3.7,0.3,5.3,1c1.6,0.6,2.9,1.5,4,2.5L253.6,77z"/>
		</g>
		<g>
			<path class="st0" d="M285.4,71.5v28.2h-4.2c-0.9,0-1.5-0.4-1.7-1.2l-0.5-2.3c-1.2,1.2-2.4,2.1-3.8,2.8c-1.4,0.7-3,1.1-4.9,1.1
				c-1.5,0-2.9-0.3-4.1-0.8s-2.2-1.3-3-2.2s-1.4-2.1-1.8-3.4c-0.4-1.3-0.6-2.8-0.6-4.3V71.5h6.8v17.9c0,1.7,0.4,3.1,1.2,4
				c0.8,0.9,2,1.4,3.6,1.4c1.2,0,2.3-0.3,3.3-0.8c1-0.5,2-1.2,2.9-2.2V71.5H285.4z"/>
		</g>
		<g>
			<path class="st0" d="M294.7,99.7V76.6l-2.4-0.4c-0.5-0.1-1-0.3-1.3-0.6c-0.3-0.3-0.5-0.6-0.5-1.1v-2.8h4.2v-2.1
				c0-1.6,0.2-3.1,0.7-4.3c0.5-1.3,1.2-2.4,2.1-3.3c0.9-0.9,2-1.6,3.3-2.1s2.8-0.7,4.4-0.7c1.3,0,2.5,0.2,3.6,0.5l-0.1,3.4
				c0,0.3-0.1,0.5-0.2,0.6c-0.1,0.2-0.3,0.3-0.5,0.4c-0.2,0.1-0.5,0.1-0.7,0.2s-0.6,0-0.9,0c-0.8,0-1.5,0.1-2.2,0.3
				c-0.6,0.2-1.2,0.5-1.6,0.9c-0.4,0.4-0.8,1-1,1.7c-0.2,0.7-0.3,1.6-0.3,2.6v1.9h7.3v4.8h-7.1v23.1H294.7z"/>
		</g>
		<g>
			<path class="st0" d="M314.9,99.7V76.6l-2.4-0.4c-0.5-0.1-1-0.3-1.3-0.6s-0.5-0.6-0.5-1.1v-2.8h4.2v-2.1c0-1.6,0.2-3.1,0.7-4.3
				c0.5-1.3,1.2-2.4,2.1-3.3s2-1.6,3.3-2.1c1.3-0.5,2.8-0.7,4.4-0.7c1.3,0,2.5,0.2,3.6,0.5l-0.1,3.4c0,0.3-0.1,0.5-0.2,0.6
				c-0.1,0.2-0.3,0.3-0.5,0.4c-0.2,0.1-0.5,0.1-0.7,0.2c-0.3,0-0.6,0-0.9,0c-0.8,0-1.5,0.1-2.2,0.3c-0.6,0.2-1.2,0.5-1.6,0.9
				c-0.4,0.4-0.8,1-1,1.7c-0.2,0.7-0.3,1.6-0.3,2.6v1.9h7.3v4.8h-7.1v23.1H314.9z"/>
		</g>
		<g>
			<path class="st0" d="M341.2,63.2c0,0.6-0.1,1.1-0.4,1.7c-0.2,0.5-0.6,1-0.9,1.3c-0.4,0.4-0.9,0.7-1.4,0.9s-1.1,0.3-1.7,0.3
				c-0.6,0-1.1-0.1-1.7-0.3c-0.5-0.2-1-0.5-1.4-0.9c-0.4-0.4-0.7-0.8-0.9-1.3c-0.2-0.5-0.3-1.1-0.3-1.7c0-0.6,0.1-1.2,0.3-1.7
				c0.2-0.5,0.5-1,0.9-1.4s0.8-0.7,1.4-0.9c0.5-0.2,1.1-0.3,1.7-0.3c0.6,0,1.2,0.1,1.7,0.3s1,0.5,1.4,0.9s0.7,0.8,0.9,1.4
				C341.1,62.1,341.2,62.6,341.2,63.2z M340.2,71.5v28.2h-6.8V71.5H340.2z"/>
		</g>
		<g>
			<path class="st0" d="M367.9,77.4c-0.2,0.3-0.4,0.5-0.6,0.6c-0.2,0.1-0.5,0.2-0.8,0.2c-0.3,0-0.7-0.1-1-0.3s-0.7-0.4-1.2-0.7
				c-0.5-0.3-1-0.5-1.6-0.7c-0.6-0.2-1.4-0.3-2.4-0.3c-1.2,0-2.2,0.2-3.1,0.6s-1.6,1-2.2,1.9c-0.6,0.8-1,1.8-1.3,2.9
				c-0.3,1.1-0.4,2.4-0.4,3.9c0,1.5,0.2,2.8,0.5,4c0.3,1.2,0.8,2.2,1.4,3c0.6,0.8,1.3,1.4,2.2,1.8c0.9,0.4,1.8,0.6,2.9,0.6
				c1.1,0,2-0.1,2.6-0.4c0.7-0.3,1.2-0.6,1.7-0.9c0.5-0.3,0.9-0.6,1.2-0.9c0.3-0.3,0.7-0.4,1.1-0.4c0.6,0,1,0.2,1.2,0.6l2,2.5
				c-0.8,0.9-1.6,1.6-2.4,2.2c-0.9,0.6-1.8,1.1-2.7,1.4c-0.9,0.4-1.9,0.6-2.9,0.8c-1,0.1-2,0.2-3,0.2c-1.7,0-3.4-0.3-4.9-1
				c-1.5-0.7-2.9-1.6-4-2.8c-1.2-1.2-2.1-2.8-2.7-4.6s-1-3.9-1-6.2c0-2.1,0.3-4,0.9-5.8c0.6-1.8,1.5-3.3,2.6-4.6
				c1.2-1.3,2.6-2.3,4.3-3s3.7-1.1,5.9-1.1c2.1,0,4,0.3,5.5,1c1.6,0.7,3,1.7,4.3,2.9L367.9,77.4z"/>
		</g>
		<g>
			<path class="st0" d="M382.8,63.2c0,0.6-0.1,1.1-0.4,1.7c-0.2,0.5-0.6,1-0.9,1.3c-0.4,0.4-0.9,0.7-1.4,0.9s-1.1,0.3-1.7,0.3
				c-0.6,0-1.1-0.1-1.7-0.3c-0.5-0.2-1-0.5-1.4-0.9c-0.4-0.4-0.7-0.8-0.9-1.3c-0.2-0.5-0.3-1.1-0.3-1.7c0-0.6,0.1-1.2,0.3-1.7
				c0.2-0.5,0.5-1,0.9-1.4s0.8-0.7,1.4-0.9c0.5-0.2,1.1-0.3,1.7-0.3c0.6,0,1.2,0.1,1.7,0.3s1,0.5,1.4,0.9s0.7,0.8,0.9,1.4
				C382.6,62.1,382.8,62.6,382.8,63.2z M381.8,71.5v28.2H375V71.5H381.8z"/>
		</g>
		<g>
			<path class="st0" d="M394.5,86.4c0.1,1.4,0.4,2.7,0.8,3.8c0.4,1.1,0.9,1.9,1.6,2.6s1.4,1.2,2.3,1.5c0.9,0.3,1.9,0.5,3,0.5
				s2-0.1,2.8-0.4c0.8-0.3,1.5-0.5,2.1-0.9c0.6-0.3,1.1-0.6,1.6-0.9s0.9-0.4,1.3-0.4c0.6,0,1,0.2,1.3,0.6l2,2.5
				c-0.8,0.9-1.6,1.6-2.5,2.2c-0.9,0.6-1.9,1.1-2.9,1.4s-2.1,0.6-3.1,0.8s-2.1,0.2-3.1,0.2c-2,0-3.8-0.3-5.5-1
				c-1.7-0.7-3.2-1.6-4.4-2.9c-1.2-1.3-2.2-2.9-2.9-4.7c-0.7-1.9-1.1-4.1-1.1-6.5c0-1.9,0.3-3.7,0.9-5.4s1.5-3.2,2.7-4.4
				c1.2-1.3,2.6-2.2,4.3-3s3.6-1.1,5.7-1.1c1.8,0,3.4,0.3,4.9,0.9c1.5,0.6,2.8,1.4,3.9,2.5s1.9,2.4,2.5,4c0.6,1.6,0.9,3.4,0.9,5.4
				c0,1-0.1,1.7-0.3,2.1c-0.2,0.4-0.6,0.5-1.3,0.5H394.5z M407.5,82.3c0-0.9-0.1-1.7-0.4-2.5c-0.2-0.8-0.6-1.5-1.1-2
				c-0.5-0.6-1.1-1-1.9-1.4c-0.8-0.3-1.6-0.5-2.7-0.5c-2,0-3.5,0.6-4.6,1.7c-1.1,1.1-1.8,2.7-2.2,4.8H407.5z"/>
		</g>
		<g>
			<path class="st0" d="M425.6,74.9c0.6-0.6,1.2-1.1,1.8-1.6s1.3-0.9,2-1.2c0.7-0.3,1.5-0.6,2.3-0.8s1.7-0.3,2.6-0.3
				c1.5,0,2.9,0.3,4.1,0.8s2.2,1.3,3,2.2s1.4,2.1,1.8,3.4c0.4,1.3,0.6,2.8,0.6,4.3v18H437v-18c0-1.7-0.4-3.1-1.2-4
				c-0.8-0.9-2-1.4-3.6-1.4c-1.2,0-2.3,0.3-3.3,0.8c-1,0.5-2,1.3-2.9,2.2v20.4h-6.8V71.5h4.2c0.9,0,1.5,0.4,1.7,1.2L425.6,74.9z"/>
		</g>
		<g>
			<path class="st0" d="M459.8,100.1c-2.5,0-4.3-0.7-5.7-2.1c-1.3-1.4-2-3.3-2-5.7V76.5h-2.9c-0.4,0-0.7-0.1-0.9-0.4
				c-0.3-0.2-0.4-0.6-0.4-1.1v-2.7l4.5-0.7L454,64c0.1-0.4,0.3-0.7,0.5-0.9c0.3-0.2,0.6-0.3,1-0.3h3.5v8.9h7.5v4.8H459v15.3
				c0,0.9,0.2,1.6,0.6,2.1c0.4,0.5,1,0.7,1.8,0.7c0.4,0,0.8-0.1,1.1-0.2s0.5-0.2,0.7-0.3s0.4-0.2,0.6-0.3c0.2-0.1,0.3-0.2,0.5-0.2
				c0.2,0,0.4,0.1,0.5,0.2c0.1,0.1,0.3,0.3,0.4,0.5l2,3.3c-1,0.8-2.1,1.4-3.4,1.9S461.2,100.1,459.8,100.1z"/>
		</g>
		<g>
			<path class="st0" d="M493.8,65.8v11h13.9v5.7h-13.9v11.2h17.7v5.9h-25.1V59.9h25.1v5.9H493.8z"/>
		</g>
		<g>
			<path class="st0" d="M542,71.5l-11.2,28.2h-6.2l-11.2-28.2h5.6c0.5,0,0.9,0.1,1.3,0.4c0.3,0.2,0.6,0.5,0.7,0.9l5.4,15.1
				c0.3,0.9,0.6,1.7,0.8,2.6c0.2,0.8,0.4,1.7,0.6,2.5c0.2-0.8,0.4-1.7,0.6-2.5c0.2-0.8,0.5-1.7,0.8-2.6l5.6-15.1
				c0.1-0.4,0.4-0.7,0.7-0.9c0.3-0.2,0.7-0.4,1.2-0.4H542z"/>
		</g>
		<g>
			<path class="st0" d="M554.1,63.2c0,0.6-0.1,1.1-0.4,1.7c-0.2,0.5-0.6,1-0.9,1.3c-0.4,0.4-0.9,0.7-1.4,0.9s-1.1,0.3-1.7,0.3
				c-0.6,0-1.1-0.1-1.7-0.3c-0.5-0.2-1-0.5-1.4-0.9c-0.4-0.4-0.7-0.8-0.9-1.3c-0.2-0.5-0.3-1.1-0.3-1.7c0-0.6,0.1-1.2,0.3-1.7
				c0.2-0.5,0.5-1,0.9-1.4s0.8-0.7,1.4-0.9c0.5-0.2,1.1-0.3,1.7-0.3c0.6,0,1.2,0.1,1.7,0.3s1,0.5,1.4,0.9s0.7,0.8,0.9,1.4
				C554,62.1,554.1,62.6,554.1,63.2z M553.2,71.5v28.2h-6.8V71.5H553.2z"/>
		</g>
		<g>
			<path class="st0" d="M585.2,58.8v40.9H581c-0.9,0-1.5-0.4-1.7-1.2l-0.6-2.7c-1.1,1.3-2.4,2.4-3.9,3.2c-1.5,0.8-3.2,1.2-5.2,1.2
				c-1.5,0-3-0.3-4.2-1s-2.4-1.6-3.3-2.8c-0.9-1.2-1.6-2.7-2.1-4.5c-0.5-1.8-0.8-3.8-0.8-6.2c0-2.1,0.3-4,0.9-5.8
				c0.6-1.8,1.4-3.4,2.4-4.7c1.1-1.3,2.3-2.4,3.8-3.1c1.5-0.7,3.2-1.1,5-1.1c1.6,0,2.9,0.2,4,0.7c1.1,0.5,2.1,1.2,3,2V58.8H585.2z
				 M578.4,78.7c-0.8-0.9-1.6-1.6-2.5-2c-0.9-0.4-1.9-0.6-2.9-0.6c-1,0-2,0.2-2.8,0.6c-0.8,0.4-1.5,1-2.1,1.7c-0.6,0.8-1,1.8-1.3,3
				c-0.3,1.2-0.5,2.6-0.5,4.2c0,1.7,0.1,3,0.4,4.2s0.6,2.1,1.1,2.8c0.5,0.7,1.1,1.2,1.8,1.6c0.7,0.3,1.5,0.5,2.4,0.5
				c1.4,0,2.6-0.3,3.6-0.9s1.9-1.4,2.8-2.5V78.7z"/>
		</g>
		<g>
			<path class="st0" d="M597.6,86.4c0.1,1.4,0.4,2.7,0.8,3.8c0.4,1.1,0.9,1.9,1.6,2.6s1.4,1.2,2.3,1.5c0.9,0.3,1.9,0.5,3,0.5
				s2-0.1,2.8-0.4c0.8-0.3,1.5-0.5,2.1-0.9c0.6-0.3,1.1-0.6,1.6-0.9s0.9-0.4,1.3-0.4c0.6,0,1,0.2,1.3,0.6l2,2.5
				c-0.8,0.9-1.6,1.6-2.5,2.2c-0.9,0.6-1.9,1.1-2.9,1.4s-2.1,0.6-3.1,0.8s-2.1,0.2-3.1,0.2c-2,0-3.8-0.3-5.5-1
				c-1.7-0.7-3.2-1.6-4.4-2.9c-1.2-1.3-2.2-2.9-2.9-4.7c-0.7-1.9-1.1-4.1-1.1-6.5c0-1.9,0.3-3.7,0.9-5.4s1.5-3.2,2.7-4.4
				c1.2-1.3,2.6-2.2,4.3-3s3.6-1.1,5.7-1.1c1.8,0,3.4,0.3,4.9,0.9c1.5,0.6,2.8,1.4,3.9,2.5s1.9,2.4,2.5,4c0.6,1.6,0.9,3.4,0.9,5.4
				c0,1-0.1,1.7-0.3,2.1c-0.2,0.4-0.6,0.5-1.3,0.5H597.6z M610.6,82.3c0-0.9-0.1-1.7-0.4-2.5c-0.2-0.8-0.6-1.5-1.1-2
				c-0.5-0.6-1.1-1-1.9-1.4c-0.8-0.3-1.6-0.5-2.7-0.5c-2,0-3.5,0.6-4.6,1.7c-1.1,1.1-1.8,2.7-2.2,4.8H610.6z"/>
		</g>
		<g>
			<path class="st0" d="M628.7,74.9c0.6-0.6,1.2-1.1,1.8-1.6s1.3-0.9,2-1.2c0.7-0.3,1.5-0.6,2.3-0.8s1.7-0.3,2.6-0.3
				c1.5,0,2.9,0.3,4.1,0.8c1.2,0.5,2.2,1.3,3,2.2c0.8,0.9,1.4,2.1,1.8,3.4c0.4,1.3,0.6,2.8,0.6,4.3v18h-6.8v-18c0-1.7-0.4-3.1-1.2-4
				c-0.8-0.9-2-1.4-3.6-1.4c-1.2,0-2.3,0.3-3.3,0.8c-1,0.5-2,1.3-2.9,2.2v20.4h-6.8V71.5h4.2c0.9,0,1.5,0.4,1.7,1.2L628.7,74.9z"/>
		</g>
		<g>
			<path class="st0" d="M674.1,77.4c-0.2,0.3-0.4,0.5-0.6,0.6c-0.2,0.1-0.5,0.2-0.8,0.2c-0.3,0-0.7-0.1-1-0.3s-0.7-0.4-1.2-0.7
				c-0.5-0.3-1-0.5-1.6-0.7c-0.6-0.2-1.4-0.3-2.4-0.3c-1.2,0-2.2,0.2-3.1,0.6s-1.6,1-2.2,1.9c-0.6,0.8-1,1.8-1.3,2.9
				c-0.3,1.1-0.4,2.4-0.4,3.9c0,1.5,0.2,2.8,0.5,4c0.3,1.2,0.8,2.2,1.4,3c0.6,0.8,1.3,1.4,2.2,1.8c0.9,0.4,1.8,0.6,2.9,0.6
				c1.1,0,2-0.1,2.6-0.4c0.7-0.3,1.2-0.6,1.7-0.9c0.5-0.3,0.9-0.6,1.2-0.9c0.3-0.3,0.7-0.4,1.1-0.4c0.6,0,1,0.2,1.2,0.6l2,2.5
				c-0.8,0.9-1.6,1.6-2.4,2.2c-0.9,0.6-1.8,1.1-2.7,1.4c-0.9,0.4-1.9,0.6-2.9,0.8c-1,0.1-2,0.2-3,0.2c-1.7,0-3.4-0.3-4.9-1
				c-1.5-0.7-2.9-1.6-4-2.8c-1.2-1.2-2.1-2.8-2.7-4.6s-1-3.9-1-6.2c0-2.1,0.3-4,0.9-5.8c0.6-1.8,1.5-3.3,2.6-4.6
				c1.2-1.3,2.6-2.3,4.3-3s3.7-1.1,5.9-1.1c2.1,0,4,0.3,5.5,1c1.6,0.7,3,1.7,4.3,2.9L674.1,77.4z"/>
		</g>
		<g>
			<path class="st0" d="M685.7,86.4c0.1,1.4,0.4,2.7,0.8,3.8c0.4,1.1,0.9,1.9,1.6,2.6s1.4,1.2,2.3,1.5c0.9,0.3,1.9,0.5,3,0.5
				s2-0.1,2.8-0.4c0.8-0.3,1.5-0.5,2.1-0.9c0.6-0.3,1.1-0.6,1.6-0.9s0.9-0.4,1.3-0.4c0.6,0,1,0.2,1.3,0.6l2,2.5
				c-0.8,0.9-1.6,1.6-2.5,2.2c-0.9,0.6-1.9,1.1-2.9,1.4s-2.1,0.6-3.1,0.8s-2.1,0.2-3.1,0.2c-2,0-3.8-0.3-5.5-1
				c-1.7-0.7-3.2-1.6-4.4-2.9c-1.2-1.3-2.2-2.9-2.9-4.7c-0.7-1.9-1.1-4.1-1.1-6.5c0-1.9,0.3-3.7,0.9-5.4s1.5-3.2,2.7-4.4
				c1.2-1.3,2.6-2.2,4.3-3s3.6-1.1,5.7-1.1c1.8,0,3.4,0.3,4.9,0.9c1.5,0.6,2.8,1.4,3.9,2.5s1.9,2.4,2.5,4c0.6,1.6,0.9,3.4,0.9,5.4
				c0,1-0.1,1.7-0.3,2.1c-0.2,0.4-0.6,0.5-1.3,0.5H685.7z M698.7,82.3c0-0.9-0.1-1.7-0.4-2.5c-0.2-0.8-0.6-1.5-1.1-2
				c-0.5-0.6-1.1-1-1.9-1.4c-0.8-0.3-1.6-0.5-2.7-0.5c-2,0-3.5,0.6-4.6,1.7c-1.1,1.1-1.8,2.7-2.2,4.8H698.7z"/>
		</g>
	</g>
	<path class="st0" d="M734.3-0.1H158.5v0h-8.3H8.1h-8.3v8.3v142.1v8.3h8.3H150v0h8.3h576h8.3v-8.3V8.2v-8.3H734.3z M84.9,133.5H64.8
		v-20.2h20.2V133.5z M84.8,84.9v11.9h-20V66.6h10c6,0,10.9-4.9,10.9-10.9s-4.9-10.9-10.9-10.9c-3.2,0-5.5,1.3-6.8,2.4L55.5,31.6
		c5.5-4.4,12.3-6.8,19.3-6.8c17,0,30.9,13.9,30.9,30.9C105.7,69.2,97,80.8,84.8,84.9z M734.3,150.2H158.5v0V8.2h575.8V150.2z"/>
</g>
</svg>
