<?xml version="1.0" encoding="utf-8"?>
<!-- Generator: Adobe Illustrator 27.2.0, SVG Export Plug-In . SVG Version: 6.00 Build 0)  -->
<svg version="1.1" id="Layer_1" xmlns="http://www.w3.org/2000/svg" xmlns:xlink="http://www.w3.org/1999/xlink" x="0px" y="0px"
	 viewBox="0 0 540.4 172.5" style="enable-background:new 0 0 540.4 172.5;" xml:space="preserve">
<style type="text/css">
	.st0{fill:#FFFFFF;}
	.st1{fill:#A2BB6C;}
	.st2{fill:#2F5014;}
	.st3{fill:#88AB33;}
	.st4{fill:#5C7D20;}
</style>
<g>
	<g>
		<path class="st0" d="M164.3,0.2l-13.5,0L43.5,0l0,0L22.6,0h0C10.2,0,0.2,10,0.2,22.4l0,5.3l-0.1,0.1v47.9l0,0L0,124.4l0.1,0.1v8.1
			L0,132.6l0,17.3c0,12.4,10,22.4,22.4,22.4l21,0l0.2,0.2h107.3l0,0l13.2,0c12.4,0,22.4-10,22.4-22.4l0-6.3l0.1-0.1V36.3l0,0l0-13.7
			C186.7,10.3,176.6,0.2,164.3,0.2z"/>
		<g>
			<path class="st1" d="M127,51.2H8.3V22.3c0-7.8,6.4-14.2,14.2-14.2H127V51.2z"/>
			<path class="st2" d="M8.3,59.5h43.1v104.5H22.5c-7.8,0-14.2-6.4-14.2-14.2V59.5z"/>
			<rect x="59.7" y="118.5" class="st3" width="67.3" height="45.5"/>
			<path class="st1" d="M178.3,118.5v31.3c0,7.8-6.4,14.2-14.2,14.2h-28.9v-45.5H178.3z"/>
			<path class="st4" d="M178.3,22.3v88H59.9V59.5h75.3V8.1h28.9C172,8.1,178.3,14.5,178.3,22.3z"/>
		</g>
	</g>
	<g>
		<g>
			<path class="st2" d="M215.8,34.8h8.7l7.7,32.9h0.1l7-32.9h11.2l7.3,32.9h0.1l7.7-32.9h8L262.9,76h-10.6l-7.4-32.9h-0.1L237.4,76
				h-10.7L215.8,34.8z"/>
			<path class="st2" d="M276.5,31.7h7.9v18h0.1c2-3,5.4-4.8,9.6-4.8c7.2,0,10.3,5.1,10.3,11.9V76h-7.9V59.8c0-3.7-0.1-8.7-5.1-8.7
				c-5.7,0-7,6.2-7,10.1V76h-7.9V31.7z"/>
			<path class="st2" d="M312.2,47.2c3.1-1.4,7.2-2.3,10.6-2.3c9.3,0,13.1,3.8,13.1,12.8v3.9c0,3.1,0.1,5.4,0.1,7.6
				c0.1,2.3,0.2,4.4,0.4,6.8h-7c-0.3-1.6-0.3-3.6-0.4-4.5h-0.1c-1.8,3.4-5.8,5.3-9.4,5.3c-5.4,0-10.6-3.2-10.6-9
				c0-4.5,2.2-7.2,5.2-8.7c3-1.5,6.9-1.8,10.2-1.8h4.4c0-4.9-2.2-6.5-6.8-6.5c-3.4,0-6.7,1.3-9.4,3.3L312.2,47.2z M321.4,70.9
				c2.4,0,4.3-1.1,5.5-2.7c1.3-1.7,1.7-3.9,1.7-6.3h-3.4c-3.5,0-8.8,0.6-8.8,5.3C316.4,69.8,318.6,70.9,321.4,70.9z"/>
			<path class="st2" d="M344.4,51.4h-5.8v-5.8h5.8v-6.1l7.9-2.5v8.6h7v5.8h-7v14.2c0,2.6,0.7,5,3.7,5c1.4,0,2.8-0.3,3.6-0.8l0.2,6.3
				c-1.7,0.5-3.5,0.7-5.8,0.7c-6.2,0-9.6-3.8-9.6-9.9V51.4z"/>
			<path class="st2" d="M374.2,34.8h8.7l7.7,32.9h0.1l7-32.9h11.2l7.3,32.9h0.1l7.7-32.9h8L421.2,76h-10.6l-7.4-32.9h-0.1L395.8,76
				h-10.7L374.2,34.8z"/>
			<path class="st2" d="M447.7,44.9c9,0,15.9,6.1,15.9,16.1c0,8.7-5.8,15.7-15.9,15.7c-10,0-15.9-7-15.9-15.7
				C431.9,51,438.8,44.9,447.7,44.9z M447.7,70.6c6.1,0,7.7-5.4,7.7-10.5c0-4.7-2.5-9-7.7-9c-5.1,0-7.6,4.5-7.6,9
				C440.1,65.1,441.7,70.6,447.7,70.6z"/>
			<path class="st2" d="M468.3,45.6h7v6.9h0.1c0.4-2.8,3.6-7.6,8.3-7.6c0.8,0,1.6,0,2.4,0.2v8c-0.7-0.4-2.1-0.6-3.5-0.6
				c-6.4,0-6.4,8-6.4,12.4V76h-7.9V45.6z"/>
			<path class="st2" d="M489.4,31.7h7.9v26h0.1l9.4-12.2h9.3l-11.3,13.6L517.7,76h-10l-10.1-14.8h-0.1V76h-7.9V31.7z"/>
			<path class="st2" d="M538.4,52c-2.4-0.8-4.2-1.3-7.1-1.3c-2.1,0-4.7,0.8-4.7,3.4c0,4.8,13.7,1.8,13.7,12.7
				c0,7.1-6.3,9.9-12.7,9.9c-3,0-6.1-0.5-9-1.3l0.5-6.5c2.5,1.2,5.1,2,7.8,2c2,0,5.2-0.8,5.2-3.7c0-6-13.7-1.9-13.7-12.9
				c0-6.5,5.7-9.4,11.9-9.4c3.7,0,6.1,0.6,8.6,1.1L538.4,52z"/>
		</g>
		<g>
			<path class="st2" d="M222.2,110.1h-5.8v-5.8h5.8v-4.2c0-6.1,3.4-10.3,9.7-10.3c2,0,4.2,0.3,5.8,0.6l-0.6,6.5
				c-0.7-0.4-1.7-1.1-3.4-1.1c-2.7,0-3.5,2.3-3.5,4.7v3.8h6.9v5.8h-6.9v24.6h-7.9V110.1z"/>
			<path class="st2" d="M254.4,103.6c9,0,15.9,6.1,15.9,16.1c0,8.7-5.8,15.7-15.9,15.7c-10,0-15.9-7-15.9-15.7
				C238.5,109.7,245.4,103.6,254.4,103.6z M254.4,129.3c6.1,0,7.7-5.4,7.7-10.5c0-4.7-2.5-9-7.7-9c-5.1,0-7.6,4.5-7.6,9
				C246.8,123.8,248.4,129.3,254.4,129.3z"/>
			<path class="st2" d="M274.9,104.3h7v6.9h0.1c0.4-2.8,3.6-7.6,8.3-7.6c0.8,0,1.6,0,2.4,0.2v8c-0.7-0.4-2.1-0.6-3.5-0.6
				c-6.4,0-6.4,8-6.4,12.4v11.2h-7.9V104.3z"/>
			<path class="st2" d="M311.3,93.5h8.3v16.6h16.5V93.5h8.3v41.2h-8.3v-18.1h-16.5v18.1h-8.3V93.5z"/>
			<path class="st2" d="M375.8,133c-2.9,1.6-6.2,2.4-10.4,2.4c-10,0-15.9-5.8-15.9-15.8c0-8.8,4.7-16,14.1-16
				c11.3,0,14.5,7.7,14.5,18.4h-21c0.4,4.9,3.8,7.7,8.7,7.7c3.8,0,7.1-1.4,10.1-3.1V133z M370.4,116.5c-0.2-3.8-2-7.1-6.4-7.1
				c-4.4,0-6.7,3.1-7,7.1H370.4z"/>
			<path class="st2" d="M383.8,105.9c3.1-1.4,7.2-2.3,10.6-2.3c9.3,0,13.1,3.8,13.1,12.8v3.9c0,3.1,0.1,5.4,0.1,7.6
				c0.1,2.3,0.2,4.4,0.4,6.8h-7c-0.3-1.6-0.3-3.6-0.4-4.5h-0.1c-1.8,3.4-5.8,5.3-9.4,5.3c-5.4,0-10.6-3.2-10.6-9
				c0-4.5,2.2-7.2,5.2-8.7c3-1.5,6.9-1.8,10.2-1.8h4.4c0-4.9-2.2-6.5-6.8-6.5c-3.4,0-6.7,1.3-9.4,3.3L383.8,105.9z M393,129.6
				c2.4,0,4.3-1.1,5.5-2.7c1.3-1.7,1.7-3.9,1.7-6.3h-3.4c-3.5,0-8.8,0.6-8.8,5.3C388,128.5,390.2,129.6,393,129.6z"/>
			<path class="st2" d="M413.6,90.4h7.9v44.3h-7.9V90.4z"/>
			<path class="st2" d="M430.7,110.1h-5.8v-5.8h5.8v-6.1l7.9-2.5v8.6h7v5.8h-7v14.2c0,2.6,0.7,5,3.7,5c1.4,0,2.8-0.3,3.6-0.8
				l0.2,6.3c-1.7,0.5-3.5,0.7-5.8,0.7c-6.2,0-9.6-3.8-9.6-9.9V110.1z"/>
			<path class="st2" d="M449.3,90.4h7.9v18h0.1c2-3,5.4-4.8,9.6-4.8c7.2,0,10.3,5.1,10.3,11.9v19.2h-7.9v-16.2
				c0-3.7-0.1-8.7-5.1-8.7c-5.7,0-7,6.2-7,10.1v14.9h-7.9V90.4z"/>
		</g>
	</g>
</g>
</svg>
